<svg width="260" height="281" viewBox="0 0 260 281" fill="none" xmlns="http://www.w3.org/2000/svg">
<rect y="0.714844" width="260" height="280" rx="8" fill="#EEEEEE"/>
<path fill-rule="evenodd" clip-rule="evenodd" d="M147.328 122.998C146.648 122.998 146.013 122.653 145.645 122.08C144.81 120.783 143.7 119.05 142.865 117.755C141.76 116.038 139.86 115 137.818 115H122.185C120.143 115 118.24 116.038 117.138 117.755C116.303 119.05 115.193 120.783 114.358 122.08C113.99 122.652 113.355 122.998 112.675 122.998H106C102.685 122.998 100 125.682 100 128.998V160.998C100 162.59 100.632 164.115 101.758 165.24C102.882 166.365 104.407 166.998 106 166.998H154C155.593 166.998 157.118 166.365 158.242 165.24C159.367 164.115 160 162.59 160 160.998V128.998C160 125.682 157.315 122.998 154 122.998H147.325H147.328ZM147.328 126.998H154.003C155.108 126.998 156.003 127.892 156.003 128.998V160.998C156.003 161.528 155.793 162.038 155.418 162.412C155.043 162.787 154.533 162.997 154.003 162.997H106.003C105.473 162.997 104.963 162.787 104.588 162.412C104.213 162.037 104.003 161.527 104.003 160.998V128.998C104.003 127.892 104.898 126.998 106.003 126.998H112.678C114.718 126.998 116.621 125.96 117.723 124.242C118.558 122.948 119.671 121.215 120.506 119.918C120.873 119.345 121.508 119 122.188 119H137.821C138.501 119 139.136 119.345 139.503 119.918C140.338 121.215 141.451 122.948 142.286 124.242C143.391 125.96 145.291 126.998 147.331 126.998H147.328ZM130.003 130.998C122.278 130.998 116.003 137.273 116.003 144.998C116.003 152.722 122.278 158.998 130.003 158.998C137.728 158.998 144.003 152.722 144.003 144.998C144.003 137.273 137.728 130.998 130.003 130.998ZM130.003 134.998C135.523 134.998 140.003 139.478 140.003 144.998C140.003 150.518 135.523 154.998 130.003 154.998C124.483 154.998 120.003 150.518 120.003 144.998C120.003 139.478 124.483 134.998 130.003 134.998ZM148.003 134.998H150.003C151.108 134.998 152.003 134.103 152.003 132.998C152.003 131.892 151.108 130.998 150.003 130.998H148.003C146.898 130.998 146.003 131.892 146.003 132.998C146.003 134.103 146.898 134.998 148.003 134.998Z" fill="black" fill-opacity="0.3"/>
</svg>
