<svg width="227" height="193" viewBox="0 0 227 193" fill="none" xmlns="http://www.w3.org/2000/svg">
<g clip-path="url(#clip0_131_890)">
<path d="M16.695 84.604L0.359375 131.515L70.1621 155.679L86.4977 108.768L16.695 84.604Z" fill="#EBEBEB"/>
<path d="M86.4926 108.774C86.5008 108.795 86.202 108.932 85.6254 109.174C84.9862 109.432 84.1434 109.773 83.0908 110.198C80.8105 111.088 77.6259 112.33 73.7163 113.856C65.7132 116.909 54.7579 121.088 42.624 125.718L42.3679 125.815L42.221 125.584C42.109 125.407 41.9875 125.215 41.866 125.023C34.8842 113.917 28.5661 103.867 23.9462 96.519C21.7095 92.9008 19.8861 89.9519 18.581 87.8402C17.9867 86.8521 17.5111 86.0616 17.1512 85.4627C16.8307 84.9153 16.6716 84.6215 16.6911 84.6093C16.7105 84.5971 16.9077 84.8665 17.2654 85.3908C17.6526 85.973 18.1635 86.7409 18.8018 87.7014C20.1509 89.7851 22.0354 92.696 24.3474 96.2668C29.0099 103.588 35.3865 113.601 42.4331 124.666C42.5546 124.859 42.6757 125.05 42.7876 125.227L42.3855 125.093C54.5471 120.536 65.5268 116.422 73.5481 113.417C77.4889 111.974 80.6995 110.799 82.9979 109.957C84.0691 109.58 84.9263 109.278 85.5769 109.049C86.1698 108.848 86.4844 108.752 86.4926 108.774Z" fill="#E0E0E0"/>
<path d="M0.356358 131.518C0.261611 131.359 7.75022 126.747 17.0798 121.216C26.4131 115.684 34.0531 111.329 34.1478 111.488C34.2426 111.647 26.7558 116.259 17.423 121.791C8.09294 127.322 0.451105 131.677 0.356358 131.518Z" fill="#E0E0E0"/>
<path d="M57.553 118.934C57.7285 118.874 60.6919 127.053 64.1717 137.2C67.6528 147.35 70.3316 155.624 70.1561 155.684C69.9807 155.743 67.0177 147.566 63.537 137.416C60.0572 127.27 57.378 118.994 57.553 118.934Z" fill="#E0E0E0"/>
<path d="M211.642 77.0021L142.578 88.6733L150.468 135.088L219.532 123.417L211.642 77.0021Z" fill="#E0E0E0"/>
<path d="M211.652 77.0187C211.669 77.0327 211.483 77.2827 211.114 77.7451C210.701 78.2508 210.156 78.9171 209.476 79.7497C207.988 81.5265 205.91 84.0075 203.359 87.054C198.105 93.2319 190.913 101.689 182.946 111.055L182.778 111.253L182.55 111.127C182.376 111.031 182.187 110.926 181.999 110.822C171.115 104.768 161.265 99.2901 154.064 95.2845C150.549 93.2952 147.685 91.6734 145.633 90.5123C144.687 89.9613 143.931 89.5206 143.357 89.187C142.84 88.8778 142.574 88.7061 142.584 88.6871C142.595 88.6681 142.882 88.8023 143.419 89.0753C144.007 89.3832 144.783 89.789 145.754 90.2966C147.828 91.4149 150.726 92.9766 154.282 94.8926C161.506 98.8562 171.388 104.277 182.307 110.268C182.496 110.372 182.684 110.476 182.858 110.572L182.463 110.644C190.485 101.325 197.728 92.9115 203.019 86.7652C205.634 83.7734 207.764 81.3362 209.29 79.5915C210.007 78.7905 210.582 78.1496 211.017 77.6632C211.417 77.2271 211.635 77.0047 211.652 77.0187Z" fill="#EBEBEB"/>
<path d="M150.473 135.104C150.321 135.015 154.434 127.775 159.657 118.935C164.882 110.091 169.239 102.997 169.39 103.086C169.541 103.174 165.43 110.413 160.205 119.257C154.982 128.097 150.624 135.193 150.473 135.104Z" fill="#EBEBEB"/>
<path d="M192.25 98.6273C192.368 98.498 198.574 103.947 206.108 110.797C213.646 117.649 219.658 123.307 219.54 123.436C219.421 123.565 213.217 118.117 205.68 111.266C198.145 104.416 192.131 98.7565 192.25 98.6273Z" fill="#EBEBEB"/>
<path d="M142.59 3.21245L130.15 34.7568L177.088 53.1579L189.528 21.6135L142.59 3.21245Z" fill="#EBEBEB"/>
<path d="M189.542 22.0445C189.547 22.0594 189.339 22.1444 188.939 22.2931C188.496 22.4518 187.912 22.661 187.182 22.9223C185.602 23.4665 183.396 24.2263 180.687 25.1593C175.144 27.0215 167.556 29.5708 159.152 32.394L158.974 32.4536L158.881 32.2914C158.809 32.1675 158.732 32.0337 158.654 31.8995C154.2 24.1323 150.168 17.1037 147.221 11.9645C145.796 9.43507 144.634 7.3735 143.802 5.89727C143.424 5.20707 143.122 4.65472 142.893 4.23617C142.689 3.85378 142.589 3.64947 142.603 3.64134C142.616 3.63365 142.743 3.82259 142.973 4.19007C143.221 4.59777 143.548 5.13565 143.957 5.80823C144.82 7.26683 146.024 9.30354 147.502 11.8031C150.48 16.9247 154.552 23.9303 159.052 31.6712C159.13 31.8055 159.207 31.9397 159.278 32.0631L159.008 31.9605C167.429 29.1875 175.032 26.6838 180.586 24.8546C183.314 23.9791 185.536 23.2658 187.127 22.7551C187.868 22.5273 188.461 22.3446 188.911 22.2063C189.32 22.0861 189.537 22.0301 189.542 22.0445Z" fill="#E0E0E0"/>
<path d="M130.161 35.1878C130.1 35.0771 135.335 32.1364 141.852 28.6212C148.371 25.1046 153.703 22.3447 153.763 22.4559C153.823 22.5666 148.589 25.5064 142.07 29.023C135.554 32.5382 130.221 35.2986 130.161 35.1878Z" fill="#E0E0E0"/>
<path d="M169.522 28.1779C169.643 28.1422 171.438 33.8021 173.531 40.8185C175.624 47.8372 177.222 53.5545 177.101 53.5902C176.98 53.626 175.185 47.9674 173.092 40.9483C170.999 33.9323 169.401 28.2141 169.522 28.1779Z" fill="#E0E0E0"/>
<path d="M226.83 188.599C226.83 188.664 168.661 188.716 96.9213 188.716C25.1572 188.716 -33 188.664 -33 188.599C-33 188.534 25.1572 188.481 96.9213 188.481C168.661 188.481 226.83 188.534 226.83 188.599Z" fill="#263238"/>
<path d="M51.2372 79.1356L158.165 78.3613L161.146 150.845L50.4258 149.822L51.2372 79.1356Z" fill="url(#paint0_linear_131_890)"/>
<path d="M51.2363 79.1355L101.842 38.3077C103.985 36.5788 107.051 36.5887 109.183 38.3307L158.165 78.3612" fill="url(#paint1_linear_131_890)"/>
<g opacity="0.3">
<path d="M51.2363 79.1355L101.842 38.3077C103.985 36.5788 107.051 36.5887 109.183 38.3307L158.165 78.3612" fill="black"/>
</g>
<path d="M50.4254 149.821C50.2921 149.697 58.8524 140.378 69.5429 129.009C80.2375 117.638 89.0117 108.523 89.1455 108.647C89.2787 108.772 80.7203 118.089 70.0261 129.461C59.3352 140.829 50.5586 149.946 50.4254 149.821Z" fill="#263238"/>
<path d="M161.144 150.845C161.007 150.966 152.671 141.836 142.526 130.454C132.378 119.068 124.265 109.743 124.402 109.622C124.539 109.501 132.874 118.63 143.022 130.016C153.166 141.397 161.281 150.724 161.144 150.845Z" fill="#263238"/>
<g opacity="0.5">
<path d="M158.164 78.3613L104.471 121.129L51.2363 79.1356" fill="black"/>
</g>
<path d="M56.6219 83.0961L56.4551 49.7981L150.085 48.6943L151.14 83.7293L104.466 120.569L56.6219 83.0961Z" fill="#FAFAFA"/>
<path d="M56.6224 83.0959C56.6224 83.0959 56.9252 83.3219 57.5005 83.7666C58.0771 84.2146 58.9285 84.8758 60.0405 85.7396C62.265 87.4744 65.5294 90.0201 69.7024 93.2745C78.0396 99.7909 90.0045 109.143 104.526 120.493L104.406 120.493C117.852 109.874 133.805 97.2728 151.068 83.6383L151.023 83.7332C150.821 77.049 150.61 70.0376 150.394 62.9019C150.25 58.0989 150.107 53.352 149.967 48.6982L150.086 48.8117C112.355 49.2397 79.0696 49.6171 56.4564 49.8739L56.5312 49.7979C56.5679 60.2748 56.597 68.5934 56.6169 74.2972C56.6228 77.1484 56.6273 79.3456 56.6301 80.8336C56.6296 81.5749 56.6292 82.1385 56.6287 82.5209C56.6278 82.9001 56.6224 83.0959 56.6224 83.0959C56.6224 83.0959 56.6151 82.9065 56.6097 82.53C56.6056 82.1494 56.5997 81.588 56.5915 80.8508C56.5797 79.3651 56.5621 77.171 56.5394 74.3243C56.5022 68.6147 56.4478 60.287 56.3794 49.7988L56.3789 49.7238L56.4542 49.7229C79.0673 49.4463 112.352 49.039 150.083 48.5775L150.198 48.5762L150.202 48.6914C150.342 53.3448 150.485 58.0917 150.63 62.8951C150.845 70.0308 151.055 77.0422 151.256 83.7264L151.258 83.7852L151.212 83.8213C133.94 97.4446 117.978 110.035 104.526 120.645L104.466 120.693L104.406 120.646C89.8957 109.257 77.9399 99.8741 69.609 93.3355C65.4542 90.0671 62.2038 87.5101 59.9888 85.7676C58.8877 84.898 58.0445 84.2322 57.4737 83.7811C56.9075 83.3304 56.6224 83.0959 56.6224 83.0959Z" fill="#263238"/>
<path d="M135.287 65.4592C135.287 65.5243 120.968 65.6635 103.309 65.7707C85.6429 65.8778 71.3266 65.9117 71.3262 65.8466C71.3257 65.7815 85.6415 65.6423 103.307 65.5352C120.967 65.4285 135.287 65.3942 135.287 65.4592Z" fill="#263238"/>
<path d="M135.287 74.8651C135.287 74.9302 120.968 75.0694 103.309 75.1765C85.6429 75.2837 71.3266 75.3176 71.3262 75.2525C71.3257 75.1874 85.6415 75.0482 103.307 74.941C120.967 74.8339 135.287 74.8 135.287 74.8651Z" fill="#263238"/>
<path d="M135.287 85.7059C135.287 85.771 120.968 85.9102 103.309 86.0174C85.6429 86.124 71.3266 86.1584 71.3262 86.0933C71.3257 86.0282 85.6415 85.889 103.307 85.7819C120.967 85.6747 135.287 85.6408 135.287 85.7059Z" fill="#263238"/>
<path d="M135.287 96.5459C135.287 96.6109 121.626 96.7461 104.778 96.8482C87.9246 96.9504 74.2661 96.9802 74.2656 96.9151C74.2652 96.85 87.9232 96.7149 104.777 96.6127C121.624 96.511 135.286 96.4812 135.287 96.5459Z" fill="#263238"/>
<path d="M123.312 106.061C123.312 106.069 123.183 106.078 122.937 106.087C122.67 106.095 122.312 106.105 121.862 106.116C120.904 106.132 119.559 106.154 117.906 106.182C114.546 106.229 109.942 106.295 104.856 106.368C99.7579 106.453 95.1421 106.482 91.8014 106.486C90.1486 106.482 88.8031 106.478 87.8452 106.476C87.395 106.47 87.0369 106.465 86.7694 106.461C86.5237 106.455 86.3945 106.448 86.3945 106.44C86.3945 106.432 86.5237 106.423 86.7694 106.414C87.0369 106.407 87.395 106.397 87.8447 106.385C88.8026 106.369 90.1477 106.347 91.8001 106.32C95.1606 106.272 99.7647 106.206 104.852 106.133C109.949 106.048 114.564 106.02 117.905 106.016C119.558 106.02 120.903 106.023 121.861 106.025C122.311 106.031 122.669 106.036 122.937 106.04C123.183 106.046 123.312 106.053 123.312 106.061Z" fill="#263238"/>
<path d="M111.258 115.208C111.258 115.273 108.205 115.325 104.44 115.325C100.673 115.325 97.6211 115.272 97.6211 115.208C97.6211 115.143 100.673 115.09 104.44 115.09C108.205 115.09 111.258 115.143 111.258 115.208Z" fill="#263238"/>
<path d="M57.3535 34.5907L67.6963 34.5875L66.2982 32.9852L66.2969 29.1477C66.296 27.0726 64.6082 25.3907 62.527 25.3911C60.4453 25.392 58.7589 27.0748 58.7593 29.1499L58.7607 32.8017L57.3535 34.5907Z" fill="url(#paint2_linear_131_890)"/>
<path d="M61.0781 34.0845C61.1022 34.6861 61.5002 35.2569 62.0573 35.4897C62.6145 35.7225 63.3017 35.6045 63.7487 35.1995C64.1957 34.7945 64.3793 34.1238 64.2007 33.5488" fill="url(#paint3_linear_131_890)"/>
<path d="M63.1005 23.8301H62.0859V25.9802H63.1005V23.8301Z" fill="url(#paint4_linear_131_890)"/>
<path d="M77.6075 27.5321C77.6021 27.533 77.5776 27.4413 77.5355 27.2623C77.4915 27.0688 77.4312 26.8048 77.3541 26.4663C77.2929 26.1119 77.1519 25.6916 76.9869 25.1948C76.8985 24.9489 76.8351 24.6719 76.7099 24.3979C76.5889 24.1222 76.4606 23.8293 76.3251 23.5193C75.7421 22.3029 74.893 20.8606 73.5833 19.4793C72.2827 18.1002 70.5256 16.7917 68.36 15.8954C67.2892 15.4135 66.0947 15.1288 64.8507 14.8992C63.5968 14.75 62.2749 14.6506 60.9262 14.8368C60.2458 14.8779 59.5753 15.0542 58.8876 15.1916C58.5444 15.2644 58.2135 15.3955 57.8717 15.4958C57.5303 15.5998 57.1876 15.7073 56.8598 15.8646C55.5044 16.3808 54.2232 17.1922 53.0242 18.1536C50.6161 20.0768 48.7347 22.9737 47.9038 26.3207C47.4867 27.995 47.401 29.7885 47.6069 31.5667C47.7755 33.3525 48.329 35.123 49.1604 36.7538L49.4234 37.2456L49.4583 37.3107L49.4379 37.3776C48.6019 40.1122 47.7827 42.7939 46.9885 45.3924L46.7736 45.1985C49.0067 44.0373 51.1723 42.9119 53.2495 41.8316L53.3297 41.79L53.4027 41.846C55.4903 43.447 57.8753 44.4188 60.2213 44.799C62.5741 45.18 64.8739 44.9513 66.9198 44.3433C68.9702 43.7354 70.7627 42.7225 72.2165 41.5174C73.6749 40.312 74.7955 38.9202 75.6242 37.5421C76.4443 36.1504 76.9307 34.7637 77.2771 33.5351C77.5631 32.2871 77.7005 31.1929 77.7249 30.2974C77.7281 29.8513 77.7304 29.4545 77.7327 29.1087C77.7027 28.7701 77.6773 28.4827 77.6565 28.2445C77.6384 28.0221 77.6243 27.8467 77.6134 27.7143C77.6053 27.594 77.603 27.533 77.6075 27.5321C77.6116 27.5317 77.622 27.5913 77.6388 27.7097C77.6556 27.8417 77.6783 28.0162 77.7064 28.2381C77.734 28.4768 77.768 28.7656 77.8075 29.1046C77.812 29.4527 77.8174 29.8518 77.8233 30.3006C77.8138 31.2032 77.6905 32.3088 77.4153 33.5735C77.0794 34.8183 76.6002 36.2268 75.7811 37.6429C74.9533 39.0459 73.8267 40.4647 72.3548 41.6969C70.8873 42.9286 69.0722 43.9673 66.9918 44.5947C64.9165 45.2216 62.5795 45.4634 60.1837 45.0833C57.7951 44.704 55.362 43.7209 53.2304 42.0924L53.3837 42.1068C51.3079 43.1903 49.1446 44.3194 46.9123 45.4837L46.5859 45.6541L46.697 45.2903C47.4899 42.6908 48.3077 40.0087 49.1423 37.2736L49.1563 37.4051L48.8875 36.903C48.0375 35.236 47.4731 33.4248 47.3008 31.5997C47.0914 29.7826 47.1816 27.9489 47.6091 26.2385C48.4614 22.8196 50.3881 19.8703 52.8456 17.9172C54.0696 16.9408 55.3765 16.12 56.7574 15.5984C57.0919 15.4402 57.4405 15.3317 57.7878 15.2269C58.1355 15.1261 58.4728 14.9941 58.8219 14.9213C59.5218 14.7843 60.2036 14.6081 60.8949 14.5692C62.2658 14.3866 63.6095 14.4928 64.8816 14.6515C66.1446 14.8906 67.3545 15.1871 68.4384 15.6825C70.6298 16.6059 72.4005 17.9456 73.7052 19.3532C75.019 20.763 75.8617 22.2306 76.4329 23.4655C76.5653 23.7801 76.6905 24.0775 76.8079 24.3573C76.9298 24.6348 76.9892 24.9155 77.0735 25.1641C77.2308 25.6672 77.3627 26.0925 77.4144 26.4509C77.4792 26.7931 77.5291 27.0607 77.5663 27.2559C77.5985 27.4381 77.6125 27.5317 77.6075 27.5321Z" fill="#263238"/>
<path d="M202.682 134.871C204.163 139.867 203.038 146.287 201.245 151.18C199.45 156.074 196.045 160.366 191.681 163.233C191.189 163.556 190.559 163.869 190.041 163.59C189.617 163.361 189.469 162.834 189.376 162.362C188.325 157.008 189.059 151.321 191.438 146.407C193.816 141.493 197.824 137.381 202.682 134.871Z" fill="url(#paint5_linear_131_890)"/>
<g opacity="0.2">
<path d="M202.682 134.871C204.163 139.867 203.038 146.287 201.245 151.18C199.45 156.074 196.045 160.366 191.681 163.233C191.189 163.556 190.559 163.869 190.041 163.59C189.617 163.361 189.469 162.834 189.376 162.362C188.325 157.008 189.059 151.321 191.438 146.407C193.816 141.493 197.824 137.381 202.682 134.871Z" fill="black"/>
</g>
<path d="M180.414 111.164C183.536 111.079 185.594 114.536 185.907 117.634C186.22 120.732 185.527 123.949 186.44 126.927C187.598 130.709 191.144 133.422 192.218 137.229C193.485 141.718 191.015 146.376 190.897 151.039C190.84 153.307 191.342 155.6 190.922 157.829C190.212 161.589 186.614 164.596 182.777 164.634C178.94 164.672 175.282 161.737 174.498 157.992C173.767 154.499 175.311 150.789 174.385 147.343C173.7 144.796 171.718 142.633 171.556 140.001C171.364 136.87 173.795 134.162 174.245 131.057C174.696 127.95 173.123 124.918 172.889 121.787C172.468 116.173 174.799 111.764 180.414 111.164Z" fill="url(#paint6_linear_131_890)"/>
<path d="M187.253 175.099C187.263 175.1 187.295 174.993 187.345 174.787C187.4 174.549 187.468 174.251 187.552 173.884C187.721 173.099 187.981 171.965 188.322 170.57C189.002 167.778 190.068 163.951 191.54 159.822C193.018 155.694 194.619 152.057 195.863 149.466C196.483 148.169 197 147.127 197.367 146.412C197.535 146.075 197.671 145.801 197.78 145.582C197.871 145.391 197.915 145.288 197.906 145.283C197.897 145.278 197.836 145.372 197.728 145.554C197.606 145.766 197.453 146.032 197.266 146.358C196.867 147.057 196.321 148.087 195.675 149.374C194.381 151.947 192.745 155.583 191.262 159.724C189.786 163.865 188.748 167.713 188.119 170.522C187.804 171.927 187.573 173.068 187.439 173.862C187.378 174.233 187.327 174.535 187.287 174.776C187.255 174.986 187.243 175.097 187.253 175.099Z" fill="#263238"/>
<path d="M180.544 126.476C180.534 126.477 180.548 126.649 180.586 126.974C180.629 127.324 180.688 127.798 180.761 128.395C180.928 129.655 181.163 131.43 181.451 133.614C182.039 138.019 182.844 144.107 183.692 150.836C184.54 157.566 185.27 163.663 185.793 168.078C186.055 170.264 186.269 172.043 186.42 173.305C186.497 173.901 186.557 174.374 186.602 174.724C186.647 175.048 186.675 175.218 186.686 175.217C186.696 175.216 186.687 175.044 186.662 174.718C186.63 174.366 186.588 173.891 186.535 173.292C186.406 172.028 186.225 170.245 186.002 168.055C185.531 163.634 184.834 157.532 183.986 150.799C183.137 144.069 182.299 137.985 181.658 133.585C181.331 131.407 181.064 129.636 180.875 128.379C180.778 127.785 180.701 127.314 180.644 126.966C180.589 126.643 180.554 126.474 180.544 126.476Z" fill="#263238"/>
<path d="M198.141 168.993H174.451V171.751H198.141V168.993Z" fill="#263238"/>
<path d="M176.648 171.751L179.431 188.484H194.124L196.05 171.751H176.648Z" fill="#263238"/>
<path d="M196.124 171.638C196.125 171.703 191.749 171.81 186.351 171.877C180.952 171.944 176.575 171.946 176.574 171.881C176.573 171.815 180.948 171.709 186.348 171.641C191.746 171.575 196.124 171.573 196.124 171.638Z" fill="#455A64"/>
<path d="M195.318 180.012C195.318 180.016 195.273 180.022 195.185 180.028C195.083 180.033 194.953 180.039 194.792 180.046C194.447 180.054 193.934 180.068 193.279 179.988C192.632 179.905 191.806 179.721 191.039 179.151C190.661 178.869 190.299 178.491 190.064 178C189.831 177.516 189.727 176.905 189.924 176.319C190.106 175.736 190.698 175.226 191.401 175.255C191.748 175.273 192.084 175.45 192.315 175.716C192.548 175.982 192.697 176.314 192.772 176.663C193.06 178.093 192.054 179.682 190.522 180.18C188.965 180.705 187.089 179.818 186.317 178.259C186.125 177.869 185.996 177.441 185.976 176.993C185.955 176.549 186.047 176.078 186.32 175.693C186.588 175.315 187.012 175.028 187.499 174.987C187.989 174.941 188.474 175.212 188.743 175.602C189.022 175.988 189.16 176.458 189.149 176.923C189.143 177.384 189.015 177.834 188.809 178.234C188.402 179.042 187.691 179.643 186.921 180.019C186.145 180.398 185.319 180.596 184.504 180.699C183.688 180.797 182.856 180.758 182.102 180.491C181.352 180.224 180.696 179.731 180.297 179.079C179.887 178.433 179.819 177.618 180.064 176.946C180.293 176.271 180.871 175.718 181.553 175.622C182.221 175.528 182.894 175.782 183.285 176.266C183.682 176.765 183.662 177.439 183.44 177.927C183.225 178.433 182.838 178.804 182.445 179.06C182.048 179.321 181.64 179.488 181.267 179.63C180.891 179.771 180.544 179.884 180.227 179.974C179.595 180.157 179.093 180.254 178.752 180.311C178.582 180.34 178.451 180.357 178.363 180.367C178.275 180.377 178.229 180.38 178.229 180.376C178.228 180.372 178.272 180.361 178.359 180.343C178.458 180.323 178.585 180.297 178.743 180.264C179.08 180.192 179.576 180.081 180.201 179.886C180.512 179.79 180.856 179.671 181.225 179.525C181.594 179.379 181.991 179.207 182.37 178.951C182.747 178.697 183.106 178.343 183.3 177.869C183.503 177.408 183.508 176.805 183.154 176.37C182.804 175.941 182.181 175.711 181.58 175.801C180.977 175.891 180.456 176.387 180.248 177.011C180.027 177.635 180.091 178.373 180.473 178.971C180.845 179.573 181.465 180.038 182.173 180.286C182.887 180.536 183.684 180.574 184.475 180.476C185.267 180.374 186.075 180.176 186.816 179.812C187.554 179.45 188.219 178.883 188.599 178.128C188.986 177.394 189.062 176.431 188.551 175.741C188.313 175.399 187.917 175.185 187.516 175.221C187.116 175.252 186.742 175.499 186.511 175.827C186.277 176.155 186.189 176.577 186.208 176.982C186.225 177.391 186.345 177.793 186.524 178.156C187.242 179.62 189.015 180.459 190.454 179.973C191.888 179.517 192.842 178.013 192.58 176.702C192.513 176.381 192.377 176.076 192.172 175.84C191.968 175.604 191.684 175.453 191.389 175.435C190.788 175.405 190.247 175.848 190.081 176.373C189.897 176.904 189.983 177.477 190.199 177.936C190.415 178.402 190.757 178.769 191.118 179.046C191.85 179.606 192.652 179.801 193.291 179.897C193.936 179.991 194.447 179.992 194.791 179.999C194.953 180.001 195.082 180.002 195.184 180.004C195.272 180.006 195.318 180.009 195.318 180.012Z" fill="#455A64"/>
<path d="M85.852 61V52.54H91.552V53.752H87.34V56.092H91.276V57.316H87.34V59.776H91.552V61H85.852ZM92.8687 61V56.452C92.8687 56.204 92.8607 55.952 92.8447 55.696C92.8287 55.44 92.8047 55.188 92.7727 54.94H94.2247L94.3447 56.14H94.2007C94.3687 55.724 94.6247 55.4 94.9687 55.168C95.3207 54.936 95.7367 54.82 96.2167 54.82C96.6967 54.82 97.0927 54.936 97.4047 55.168C97.7247 55.392 97.9487 55.744 98.0767 56.224H97.8847C98.0527 55.792 98.3287 55.452 98.7127 55.204C99.0967 54.948 99.5367 54.82 100.033 54.82C100.713 54.82 101.221 55.02 101.557 55.42C101.893 55.82 102.061 56.444 102.061 57.292V61H100.561V57.352C100.561 56.872 100.481 56.528 100.321 56.32C100.161 56.104 99.9047 55.996 99.5527 55.996C99.1367 55.996 98.8087 56.144 98.5687 56.44C98.3287 56.728 98.2087 57.12 98.2087 57.616V61H96.7087V57.352C96.7087 56.872 96.6287 56.528 96.4687 56.32C96.3087 56.104 96.0527 55.996 95.7007 55.996C95.2847 55.996 94.9567 56.144 94.7167 56.44C94.4847 56.728 94.3687 57.12 94.3687 57.616V61H92.8687ZM103.662 63.592V56.452C103.662 56.204 103.654 55.952 103.638 55.696C103.622 55.44 103.598 55.188 103.566 54.94H105.018L105.15 56.212H105.018C105.138 55.788 105.39 55.452 105.774 55.204C106.166 54.948 106.618 54.82 107.13 54.82C107.666 54.82 108.134 54.948 108.534 55.204C108.934 55.452 109.246 55.812 109.47 56.284C109.694 56.748 109.806 57.308 109.806 57.964C109.806 58.62 109.694 59.184 109.47 59.656C109.246 60.128 108.934 60.492 108.534 60.748C108.134 60.996 107.666 61.12 107.13 61.12C106.626 61.12 106.182 60.996 105.798 60.748C105.414 60.5 105.158 60.168 105.03 59.752H105.162V63.592H103.662ZM106.71 59.968C107.19 59.968 107.574 59.804 107.862 59.476C108.15 59.14 108.294 58.636 108.294 57.964C108.294 57.292 108.15 56.792 107.862 56.464C107.574 56.136 107.19 55.972 106.71 55.972C106.238 55.972 105.858 56.136 105.57 56.464C105.282 56.792 105.138 57.292 105.138 57.964C105.138 58.636 105.282 59.14 105.57 59.476C105.858 59.804 106.238 59.968 106.71 59.968ZM113.637 61.12C112.917 61.12 112.373 60.932 112.005 60.556C111.637 60.18 111.453 59.616 111.453 58.864V56.068H110.289V54.94H111.453V53.392L112.953 53.008V54.94H114.573V56.068H112.953V58.768C112.953 59.184 113.033 59.476 113.193 59.644C113.353 59.812 113.573 59.896 113.853 59.896C114.005 59.896 114.133 59.884 114.237 59.86C114.349 59.836 114.457 59.804 114.561 59.764V60.952C114.425 61.008 114.273 61.048 114.105 61.072C113.945 61.104 113.789 61.12 113.637 61.12ZM115.565 63.724L115.217 62.536C115.593 62.456 115.909 62.364 116.165 62.26C116.421 62.156 116.633 62.02 116.801 61.852C116.969 61.684 117.109 61.468 117.221 61.204L117.521 60.496L117.485 61.084L114.845 54.94H116.441L118.337 59.668H117.989L119.897 54.94H121.409L118.649 61.336C118.465 61.768 118.265 62.124 118.049 62.404C117.833 62.692 117.601 62.92 117.353 63.088C117.105 63.264 116.833 63.4 116.537 63.496C116.241 63.592 115.917 63.668 115.565 63.724Z" fill="black"/>
</g>
<defs>
<linearGradient id="paint0_linear_131_890" x1="105.786" y1="65.5238" x2="105.786" y2="150.845" gradientUnits="userSpaceOnUse">
<stop stop-color="#FF007F"/>
<stop offset="1" stop-color="#A5147F"/>
</linearGradient>
<linearGradient id="paint1_linear_131_890" x1="104.7" y1="29.5581" x2="104.7" y2="79.1355" gradientUnits="userSpaceOnUse">
<stop stop-color="#FF007F"/>
<stop offset="1" stop-color="#A5147F"/>
</linearGradient>
<linearGradient id="paint2_linear_131_890" x1="62.5249" y1="23.7618" x2="62.5249" y2="34.5907" gradientUnits="userSpaceOnUse">
<stop stop-color="#FF007F"/>
<stop offset="1" stop-color="#A5147F"/>
</linearGradient>
<linearGradient id="paint3_linear_131_890" x1="62.6732" y1="33.1841" x2="62.6732" y2="35.608" gradientUnits="userSpaceOnUse">
<stop stop-color="#FF007F"/>
<stop offset="1" stop-color="#A5147F"/>
</linearGradient>
<linearGradient id="paint4_linear_131_890" x1="62.5932" y1="23.4493" x2="62.5932" y2="25.9802" gradientUnits="userSpaceOnUse">
<stop stop-color="#FF007F"/>
<stop offset="1" stop-color="#A5147F"/>
</linearGradient>
<linearGradient id="paint5_linear_131_890" x1="196.137" y1="129.765" x2="196.137" y2="163.698" gradientUnits="userSpaceOnUse">
<stop stop-color="#FF007F"/>
<stop offset="1" stop-color="#A5147F"/>
</linearGradient>
<linearGradient id="paint6_linear_131_890" x1="182.062" y1="101.692" x2="182.062" y2="164.634" gradientUnits="userSpaceOnUse">
<stop stop-color="#FF007F"/>
<stop offset="1" stop-color="#A5147F"/>
</linearGradient>
<clipPath id="clip0_131_890">
<rect width="227" height="193" fill="white"/>
</clipPath>
</defs>
</svg>
