<svg width="376" height="380" viewBox="0 0 376 380" fill="none" xmlns="http://www.w3.org/2000/svg">
<path d="M13.9268 358.903H368.647" stroke="#263238" stroke-linecap="round" stroke-linejoin="round"/>
<path d="M274.819 298.448C276.849 299.336 281.821 299.226 281.821 299.226C281.821 299.226 280.756 295.97 280.663 295.767C279.572 293.493 276.122 289.721 273.314 290.102C272.849 290.182 272.406 290.358 272.013 290.62C271.62 290.881 271.286 291.222 271.033 291.62C270.78 292.018 270.613 292.465 270.543 292.932C270.472 293.399 270.501 293.875 270.625 294.33C271.09 296.249 273.086 297.687 274.819 298.448Z" fill="#263238"/>
<path d="M276.528 312.85C278.642 313.154 283.073 311.869 283.428 311.759C284.16 314.299 285.058 316.787 286.117 319.209C286.726 320.621 287.386 322.025 288.062 323.437C287.665 322.845 287.293 322.321 287.216 322.253C285.525 320.342 281.246 317.619 278.634 318.727C278.21 318.927 277.832 319.213 277.524 319.567C277.217 319.92 276.986 320.334 276.847 320.782C276.708 321.23 276.663 321.701 276.716 322.167C276.769 322.633 276.918 323.082 277.154 323.488C278.118 325.238 280.418 326.1 282.287 326.38C284.155 326.659 287.986 325.635 288.992 325.348C289.254 325.881 289.516 326.422 289.787 326.955C291.072 329.491 292.366 332.028 293.55 334.565C293.973 335.461 294.396 336.358 294.742 337.254C294.379 336.73 294.074 336.282 294.015 336.222C292.366 334.311 288.045 331.588 285.441 332.696C285.016 332.895 284.637 333.181 284.329 333.534C284.021 333.888 283.789 334.301 283.649 334.749C283.509 335.197 283.464 335.669 283.516 336.135C283.568 336.601 283.717 337.051 283.952 337.457C284.916 339.207 287.216 340.078 289.085 340.349C290.954 340.619 294.421 339.698 295.613 339.368C295.977 340.298 296.349 341.228 296.662 342.142C296.856 342.776 297.093 343.368 297.262 344.01C297.431 344.653 297.609 345.27 297.786 345.896C298.074 347.105 298.387 348.348 298.632 349.541C298.81 350.386 298.97 351.147 299.131 351.942C298.725 351.054 297.888 349.321 297.803 349.177C296.459 347.038 292.594 343.697 289.855 344.391C289.405 344.524 288.987 344.749 288.629 345.051C288.271 345.354 287.979 345.728 287.773 346.15C287.567 346.571 287.451 347.031 287.433 347.5C287.414 347.968 287.493 348.436 287.665 348.872C288.35 350.75 290.497 351.959 292.307 352.509C294.294 353.117 298.691 352.559 299.241 352.509C299.511 353.819 299.757 355.105 299.968 356.314C300.12 357.21 300.264 358.081 300.399 358.91H302.167C301.997 357.98 301.811 357.016 301.617 356.009C301.355 354.673 301.042 353.244 300.712 351.781C302.037 351.25 303.33 350.643 304.585 349.963C306.039 351.528 309.752 353.346 310.234 353.599C309.726 354.842 309.219 356.043 308.728 357.176C308.466 357.777 308.213 358.335 307.967 358.867H309.828C309.98 358.512 310.124 358.166 310.276 357.794C310.792 356.534 311.324 355.181 311.849 353.777C312.381 353.887 316.745 354.775 318.774 354.318C320.618 353.904 322.85 352.855 323.67 351.037C323.874 350.615 323.988 350.155 324.005 349.686C324.022 349.218 323.941 348.751 323.768 348.315C323.594 347.879 323.332 347.484 322.998 347.155C322.664 346.826 322.265 346.57 321.827 346.403C319.138 345.507 315.062 348.551 313.54 350.589C313.447 350.707 312.635 352.12 312.136 353.016C312.348 352.441 312.559 351.891 312.779 351.325C313.202 350.158 313.624 348.974 314.022 347.714C314.208 347.097 314.394 346.471 314.588 345.837C314.783 345.203 314.918 344.535 315.087 343.875C315.459 342.344 315.747 340.772 316.009 339.182C317.032 339.554 320.694 340.822 322.579 340.696C324.465 340.569 326.807 339.85 327.924 338.159C328.189 337.771 328.371 337.333 328.458 336.872C328.545 336.41 328.535 335.935 328.428 335.478C328.322 335.021 328.121 334.59 327.839 334.215C327.557 333.839 327.2 333.527 326.79 333.297C324.254 332.003 319.764 334.396 317.971 336.18C317.861 336.29 316.719 337.719 316.111 338.505C316.254 337.55 316.415 336.603 316.533 335.63C316.88 332.815 317.142 329.965 317.421 327.124C317.506 326.278 317.599 325.382 317.692 324.511C318.055 324.646 322.368 326.253 324.457 326.109C326.334 325.974 328.685 325.263 329.792 323.572C330.058 323.185 330.241 322.747 330.328 322.286C330.416 321.825 330.406 321.351 330.301 320.893C330.195 320.436 329.995 320.006 329.714 319.63C329.433 319.254 329.076 318.941 328.668 318.71C326.131 317.416 321.641 319.809 319.848 321.593C319.713 321.729 318.072 323.775 317.675 324.325C317.878 322.405 318.098 320.503 318.394 318.634C318.772 316.109 319.318 313.612 320.026 311.159C320.195 311.218 324.685 312.918 326.85 312.765C328.735 312.63 331.078 311.92 332.194 310.229C332.458 309.842 332.64 309.405 332.726 308.945C332.813 308.484 332.803 308.011 332.698 307.555C332.592 307.098 332.393 306.669 332.112 306.294C331.832 305.919 331.477 305.606 331.069 305.375C328.532 304.073 324.034 306.466 322.241 308.25C322.106 308.394 320.339 310.601 320.051 311.023C320.051 310.88 320.119 310.727 320.161 310.584C320.94 308.143 321.931 305.775 323.121 303.506C323.772 302.246 324.457 301.079 325.15 299.963C325.953 300.36 329.649 302.153 331.619 302.238C333.589 302.322 335.931 301.883 337.2 300.335C337.506 299.979 337.735 299.564 337.872 299.115C338.009 298.666 338.051 298.193 337.995 297.727C337.939 297.261 337.787 296.812 337.548 296.408C337.31 296.003 336.989 295.653 336.608 295.38C334.249 293.816 329.505 295.701 327.526 297.274C327.416 297.359 326.427 298.356 325.708 299.084C326.029 298.585 326.351 298.06 326.664 297.587C327.847 295.803 329.048 294.204 330.114 292.868C330.731 292.09 331.297 291.406 331.805 290.763C332.803 290.763 336.811 290.628 338.57 289.799C340.328 288.97 342.231 287.499 342.645 285.571C342.754 285.115 342.766 284.641 342.681 284.18C342.596 283.719 342.417 283.28 342.153 282.892C341.89 282.504 341.549 282.175 341.152 281.926C340.755 281.677 340.31 281.513 339.847 281.444C337.031 281.14 333.682 284.996 332.65 287.313C332.566 287.507 331.534 290.788 331.585 290.788H331.644C331.111 291.397 330.545 292.048 329.953 292.775C328.854 294.128 327.619 295.667 326.393 297.435C325.047 299.334 323.813 301.31 322.698 303.354C321.439 305.624 320.383 308.001 319.544 310.457V310.541C319.544 309.696 319.544 307.396 319.501 307.218C319.172 304.681 317.075 300.056 314.292 299.54C313.828 299.471 313.355 299.5 312.902 299.624C312.45 299.748 312.028 299.965 311.664 300.261C311.299 300.556 311.001 300.925 310.787 301.342C310.572 301.76 310.447 302.217 310.42 302.686C310.259 304.681 311.705 306.677 313.117 307.937C314.707 309.349 319.112 310.728 319.468 310.837C318.674 313.358 318.05 315.929 317.599 318.532C317.328 320.046 317.108 321.577 316.897 323.116C316.897 322.405 316.897 321.763 316.897 321.67C316.567 319.133 314.47 314.507 311.68 313.992C311.215 313.924 310.742 313.954 310.29 314.079C309.838 314.204 309.417 314.422 309.053 314.718C308.69 315.015 308.392 315.384 308.179 315.802C307.966 316.22 307.842 316.677 307.815 317.146C307.655 319.141 309.101 321.128 310.513 322.388C311.925 323.648 315.671 324.925 316.669 325.23L316.44 327.005C316.102 329.847 315.781 332.688 315.375 335.461C315.231 336.434 315.054 337.389 314.884 338.353C314.884 337.711 314.884 337.178 314.842 337.093C314.521 334.557 312.415 329.931 309.633 329.415C309.169 329.348 308.696 329.377 308.244 329.502C307.792 329.628 307.37 329.845 307.007 330.142C306.644 330.439 306.346 330.808 306.133 331.225C305.92 331.643 305.796 332.101 305.769 332.569C305.608 334.565 307.054 336.561 308.458 337.812C309.862 339.064 313.261 340.214 314.436 340.594C314.233 341.575 314.03 342.556 313.785 343.486C313.599 344.129 313.472 344.746 313.252 345.38C313.033 346.014 312.855 346.623 312.652 347.24C312.229 348.407 311.806 349.617 311.35 350.75C311.054 351.536 310.749 352.28 310.445 353.033C310.597 352.06 310.859 350.158 310.859 349.997C310.83 347.772 310.23 345.591 309.117 343.664C309.127 343.438 309.116 343.211 309.084 342.987C309.02 342.523 308.861 342.077 308.616 341.678C308.371 341.279 308.046 340.935 307.661 340.668C307.277 340.4 306.841 340.216 306.381 340.126C305.921 340.037 305.448 340.043 304.991 340.146C302.251 340.873 300.518 345.676 300.391 348.204C300.391 348.357 300.475 349.98 300.551 351.003C300.416 350.412 300.289 349.828 300.146 349.219C299.858 348.01 299.528 346.809 299.19 345.515C299.004 344.898 298.818 344.272 298.624 343.647C298.429 343.021 298.184 342.37 297.964 341.727C297.423 340.247 296.805 338.776 296.146 337.305C297.203 337.051 300.949 336.095 302.454 334.945C303.959 333.795 305.541 331.91 305.532 329.872C305.54 329.403 305.451 328.937 305.269 328.505C305.088 328.072 304.818 327.682 304.478 327.359C304.138 327.036 303.734 326.787 303.292 326.629C302.851 326.471 302.381 326.406 301.913 326.439C299.097 326.743 296.653 331.225 296.137 333.702C296.137 333.863 295.943 335.681 295.867 336.679C295.469 335.833 295.072 334.92 294.632 334.041C293.372 331.504 292.028 328.967 290.683 326.43C290.277 325.652 289.838 324.883 289.474 324.105C289.855 324.02 294.328 322.98 296.019 321.686C297.516 320.536 299.106 318.651 299.089 316.655C299.097 316.186 299.007 315.72 298.826 315.288C298.644 314.855 298.375 314.465 298.035 314.142C297.694 313.819 297.29 313.571 296.849 313.412C296.407 313.254 295.937 313.189 295.469 313.222C292.654 313.526 290.21 318.017 289.702 320.494C289.66 320.68 289.423 323.293 289.398 323.961C288.51 322.27 287.648 320.579 286.861 318.828C285.786 316.512 284.862 314.128 284.096 311.691C284.274 311.649 288.95 310.584 290.675 309.256C292.172 308.106 293.761 306.229 293.753 304.233C293.761 303.764 293.672 303.299 293.49 302.866C293.309 302.433 293.039 302.043 292.699 301.72C292.358 301.397 291.955 301.149 291.513 300.99C291.071 300.832 290.602 300.767 290.134 300.8C287.318 301.105 284.874 305.586 284.358 308.064C284.358 308.258 284.071 311.074 284.062 311.59C284.02 311.446 283.952 311.303 283.91 311.167C283.209 308.701 282.731 306.176 282.481 303.624C282.32 302.221 282.253 300.868 282.21 299.549C283.056 299.439 287.174 298.898 288.857 297.857C290.54 296.817 292.239 295.177 292.468 293.19C292.527 292.725 292.488 292.252 292.355 291.803C292.222 291.353 291.996 290.937 291.693 290.579C291.391 290.221 291.016 289.93 290.595 289.724C290.174 289.519 289.714 289.403 289.246 289.385C286.413 289.385 283.496 293.57 282.709 295.972C282.667 296.107 282.388 297.485 282.194 298.509C282.194 297.908 282.194 297.299 282.194 296.724C282.194 294.585 282.329 292.623 282.464 290.89C282.549 289.9 282.642 289.012 282.743 288.175C283.589 287.617 286.836 285.3 287.817 283.651C288.798 282.002 289.609 279.711 288.874 277.851C288.712 277.41 288.46 277.008 288.135 276.67C287.809 276.332 287.417 276.065 286.982 275.887C286.548 275.709 286.081 275.623 285.612 275.635C285.143 275.647 284.681 275.756 284.257 275.956C281.72 277.259 281.086 282.324 281.5 284.818C281.5 285.03 282.481 288.336 282.532 288.311C282.422 289.106 282.312 290.002 282.219 290.907C282.041 292.64 281.864 294.602 281.813 296.75C281.729 299.068 281.786 301.389 281.982 303.701C282.184 306.287 282.614 308.851 283.267 311.362V311.446C282.819 310.744 281.509 308.833 281.39 308.698C279.741 306.787 275.42 304.064 272.816 305.172C272.391 305.371 272.013 305.657 271.704 306.01C271.396 306.363 271.164 306.777 271.024 307.225C270.884 307.673 270.839 308.144 270.891 308.611C270.943 309.077 271.092 309.527 271.328 309.933C272.359 311.7 274.659 312.546 276.528 312.85Z" fill="#263238"/>
<path d="M325.091 299.539C325.133 299.539 325.996 296.232 326.029 296.021C326.376 293.484 325.573 288.47 323.027 287.235C322.598 287.048 322.134 286.952 321.665 286.953C321.196 286.955 320.733 287.053 320.304 287.243C319.876 287.434 319.491 287.711 319.175 288.057C318.86 288.404 318.619 288.812 318.47 289.256C317.785 291.133 318.647 293.484 319.679 295.032C320.922 296.892 325.091 299.539 325.091 299.539Z" fill="#263238"/>
<path d="M34.8214 298.448C36.8509 299.336 41.823 299.226 41.823 299.226C41.823 299.226 40.7575 295.97 40.6645 295.767C39.5737 293.493 36.1236 289.721 33.3163 290.102C32.8512 290.182 32.4079 290.358 32.0151 290.62C31.6222 290.881 31.2884 291.222 31.0352 291.62C30.7819 292.018 30.6148 292.465 30.5445 292.932C30.4743 293.399 30.5025 293.875 30.6273 294.33C31.0923 296.249 33.088 297.687 34.8214 298.448Z" fill="#263238"/>
<path d="M36.538 312.85C38.6435 313.154 43.0829 311.869 43.4296 311.759C44.1559 314.298 45.0485 316.787 46.1017 319.209C46.7218 320.618 47.3729 322.027 48.055 323.437C47.6491 322.845 47.2771 322.32 47.2094 322.253C45.5182 320.342 41.231 317.619 38.6266 318.727C38.2019 318.926 37.8233 319.211 37.5149 319.565C37.2065 319.918 36.9749 320.332 36.8349 320.78C36.695 321.227 36.6497 321.699 36.7019 322.165C36.7541 322.632 36.9028 323.082 37.1383 323.487C38.1023 325.238 40.4108 326.1 42.2711 326.379C44.1314 326.658 47.9789 325.635 48.9767 325.348C49.2473 325.88 49.501 326.422 49.7716 326.954C51.0569 329.491 52.3507 332.028 53.543 334.565C53.9573 335.461 54.3886 336.357 54.7268 337.254C54.3632 336.729 54.0588 336.281 54.008 336.222C52.3168 334.311 48.0296 331.588 45.4252 332.696C45.0005 332.895 44.622 333.181 44.3135 333.534C44.0051 333.887 43.7735 334.301 43.6336 334.749C43.4936 335.197 43.4483 335.669 43.5005 336.135C43.5528 336.601 43.7014 337.051 43.9369 337.457C44.9009 339.207 47.2094 340.078 49.0782 340.349C50.947 340.619 54.4055 339.698 55.5978 339.368C55.9614 340.298 56.3334 341.228 56.6463 342.141C56.8493 342.776 57.086 343.367 57.2467 344.01C57.4073 344.653 57.6018 345.27 57.771 345.896C58.0669 347.105 58.3713 348.348 58.6166 349.54C58.7941 350.386 58.9548 351.147 59.1155 351.942C58.7096 351.054 57.8724 349.32 57.7879 349.177C56.4434 347.037 52.5874 343.697 49.8392 344.391C49.3893 344.523 48.9719 344.748 48.6136 345.051C48.2554 345.354 47.964 345.728 47.758 346.15C47.552 346.571 47.436 347.031 47.4172 347.499C47.3985 347.968 47.4775 348.436 47.6491 348.872C48.3341 350.75 50.4819 351.959 52.2915 352.508C54.2786 353.117 58.6842 352.559 59.2338 352.508C59.496 353.819 59.7412 355.104 59.9526 356.314C60.1133 357.21 60.257 358.081 60.3839 358.91H62.1681C61.999 357.979 61.8214 357.015 61.6184 356.009C61.3563 354.673 61.0434 353.244 60.7136 351.781C62.0398 351.253 63.3331 350.646 64.5865 349.963C66.0409 351.527 69.7531 353.346 70.2351 353.599C69.7277 354.842 69.2288 356.043 68.7299 357.176L67.9689 358.867H69.8292C69.9814 358.512 70.1252 358.165 70.2774 357.793C70.7932 356.533 71.3259 355.18 71.8586 353.777C72.3914 353.887 76.7462 354.775 78.7756 354.318C80.6191 353.904 82.8514 352.855 83.6801 351.037C83.884 350.614 83.9977 350.154 84.014 349.685C84.0302 349.216 83.9487 348.748 83.7745 348.312C83.6003 347.876 83.3373 347.482 83.0023 347.153C82.6672 346.824 82.2674 346.569 81.8283 346.403C79.1393 345.507 75.0635 348.551 73.5414 350.589C73.4568 350.707 72.6366 352.119 72.1377 353.016C72.3491 352.441 72.5689 351.891 72.7803 351.325C73.2116 350.158 73.6259 348.974 74.0318 347.714C74.2094 347.097 74.4039 346.471 74.5899 345.837C74.776 345.202 74.9197 344.534 75.0973 343.875C75.4609 342.344 75.7569 340.771 76.019 339.182C77.0422 339.554 80.6952 340.822 82.5893 340.695C84.4834 340.569 86.8173 339.85 87.925 338.159C88.191 337.772 88.3736 337.334 88.4611 336.873C88.5486 336.411 88.5392 335.937 88.4334 335.48C88.3276 335.022 88.1278 334.592 87.8466 334.216C87.5655 333.84 87.2092 333.527 86.8004 333.296C84.2636 332.003 79.765 334.396 77.9808 336.18C77.8624 336.29 76.7208 337.719 76.112 338.505C76.2642 337.55 76.4164 336.603 76.5348 335.63C76.8815 332.814 77.1521 329.965 77.4311 327.123C77.5157 326.278 77.6087 325.382 77.7017 324.511C78.0569 324.646 82.3694 326.253 84.4665 326.109C86.3522 325.973 88.6945 325.263 89.8023 323.572C90.0682 323.185 90.2508 322.747 90.3383 322.286C90.4258 321.825 90.4164 321.351 90.3106 320.893C90.2048 320.436 90.005 320.006 89.7239 319.63C89.4427 319.254 89.0864 318.94 88.6776 318.71C86.1408 317.416 81.6507 319.809 79.858 321.593C79.7227 321.729 78.0823 323.775 77.6933 324.325C77.8878 322.405 78.1076 320.502 78.4036 318.634C78.7823 316.109 79.3275 313.612 80.0356 311.159C80.2047 311.218 84.6948 312.917 86.868 312.765C88.7537 312.63 91.096 311.92 92.2038 310.228C92.4683 309.842 92.6497 309.405 92.7364 308.944C92.8232 308.484 92.8134 308.011 92.7076 307.554C92.6019 307.098 92.4026 306.669 92.1222 306.294C91.8419 305.918 91.4867 305.605 91.0791 305.375C88.5423 304.072 84.0522 306.465 82.2595 308.25C82.1158 308.393 80.3485 310.6 80.061 311.023C80.061 310.88 80.1286 310.727 80.1709 310.584C80.9496 308.141 81.9428 305.773 83.1389 303.506C83.7816 302.246 84.4665 301.079 85.1599 299.963C85.9632 300.36 89.6585 302.153 91.6288 302.237C93.599 302.322 95.9413 301.882 97.2097 300.335C97.5164 299.98 97.7458 299.565 97.8834 299.116C98.021 298.667 98.0637 298.195 98.0088 297.729C97.9539 297.263 97.8027 296.813 97.5646 296.409C97.3266 296.004 97.007 295.654 96.6263 295.38C94.267 293.815 89.5148 295.701 87.5361 297.274C87.4346 297.358 86.4368 298.356 85.718 299.083C86.0393 298.584 86.3607 298.06 86.6735 297.587C87.8658 295.802 89.0581 294.204 90.1236 292.868C90.7409 292.09 91.3074 291.405 91.8148 290.763C92.8126 290.763 96.8207 290.627 98.5796 289.799C100.338 288.97 102.241 287.499 102.655 285.571C102.764 285.114 102.776 284.641 102.691 284.18C102.606 283.718 102.427 283.28 102.163 282.892C101.9 282.504 101.559 282.175 101.162 281.926C100.765 281.676 100.32 281.512 99.8564 281.444C97.0406 281.14 93.692 284.996 92.6688 287.313C92.5758 287.507 91.5442 290.788 91.5949 290.788H91.764C91.2313 291.397 90.6732 292.048 90.0729 292.775C88.9736 294.128 87.739 295.667 86.5129 297.434C85.1693 299.334 83.9382 301.31 82.8261 303.354C81.5603 305.62 80.5045 307.998 79.672 310.457C79.6683 310.485 79.6683 310.513 79.672 310.541C79.672 309.696 79.672 307.396 79.6212 307.218C79.2999 304.681 77.1944 300.056 74.4124 299.54C73.9488 299.472 73.4763 299.502 73.0247 299.626C72.5731 299.751 72.1524 299.968 71.7891 300.264C71.4258 300.56 71.1279 300.928 70.9142 301.344C70.7006 301.761 70.5759 302.218 70.548 302.686C70.3788 304.681 71.8248 306.677 73.237 307.937C74.8267 309.349 79.2323 310.727 79.5874 310.837C78.7942 313.358 78.1698 315.929 77.7186 318.532C77.4481 320.046 77.2282 321.576 77.0168 323.115C77.0168 322.405 77.0168 321.762 77.0168 321.669C76.6955 319.133 74.5899 314.507 71.8079 313.991C71.3437 313.924 70.8705 313.953 70.4184 314.079C69.9662 314.204 69.5451 314.421 69.1817 314.718C68.8182 315.015 68.5205 315.384 68.3073 315.802C68.0942 316.219 67.9703 316.677 67.9435 317.145C67.7744 319.141 69.2204 321.128 70.6325 322.388C72.0447 323.648 75.7991 324.925 76.7885 325.229C76.7124 325.821 76.6363 326.413 76.5686 327.005C76.2219 329.846 75.9006 332.688 75.4947 335.461C75.351 336.434 75.1734 337.389 75.0043 338.353C75.0043 337.71 75.0043 337.178 75.0043 337.093C74.6745 334.556 72.5774 329.931 69.7869 329.415C69.3227 329.347 68.8495 329.377 68.3974 329.502C67.9453 329.627 67.5241 329.845 67.1607 330.142C66.7973 330.438 66.4995 330.807 66.2864 331.225C66.0732 331.643 65.9493 332.101 65.9225 332.569C65.7619 334.565 67.2078 336.56 68.6115 337.812C70.0152 339.063 73.4145 340.213 74.5984 340.594C74.387 341.575 74.184 342.556 73.9388 343.486C73.7612 344.128 73.6259 344.746 73.4145 345.38L72.8057 347.24C72.3829 348.407 71.9601 349.616 71.5119 350.75C71.2075 351.536 70.9031 352.28 70.5987 353.033C70.7509 352.06 71.013 350.158 71.013 349.997C70.9877 347.771 70.3877 345.589 69.2711 343.663C69.2921 343.416 69.2921 343.167 69.2711 342.919C69.2077 342.454 69.0483 342.008 68.8029 341.608C68.5575 341.208 68.2316 340.863 67.8459 340.596C67.4602 340.329 67.0231 340.145 66.5624 340.056C66.1017 339.966 65.6275 339.974 65.17 340.078C62.4302 340.805 60.6967 345.608 60.5699 348.137C60.5699 348.289 60.6544 349.912 60.739 350.936C60.5953 350.344 60.4684 349.76 60.3247 349.151C60.0372 347.942 59.7158 346.741 59.3691 345.448C59.1831 344.83 58.9971 344.205 58.8026 343.579C58.6081 342.953 58.3629 342.302 58.143 341.659C57.6018 340.18 56.9845 338.708 56.325 337.237C57.382 336.983 61.1364 336.028 62.6416 334.878C64.1468 333.728 65.728 331.842 65.7111 329.804C65.7193 329.335 65.6298 328.869 65.4484 328.437C65.2669 328.004 64.9974 327.614 64.6571 327.291C64.3167 326.968 63.9129 326.72 63.4713 326.561C63.0297 326.403 62.56 326.338 62.092 326.371C59.2761 326.675 56.8323 331.157 56.325 333.635C56.325 333.795 56.122 335.613 56.0544 336.611C55.6485 335.766 55.2088 334.852 54.8114 333.973C53.5599 331.436 52.2069 328.899 50.8709 326.362C50.4565 325.584 50.0253 324.815 49.6532 324.037C50.0337 323.952 54.5154 322.912 56.1981 321.619C57.6949 320.469 59.2846 318.583 59.2677 316.587C59.2759 316.118 59.1864 315.653 59.0049 315.22C58.8234 314.787 58.554 314.397 58.2136 314.074C57.8732 313.751 57.4694 313.503 57.0278 313.344C56.5862 313.186 56.1165 313.121 55.6485 313.154C52.8327 313.459 50.3973 317.949 49.8815 320.426C49.8815 320.612 49.6109 323.225 49.5771 323.893C48.7315 322.202 47.8267 320.511 47.0403 318.761C45.9651 316.444 45.0415 314.06 44.2752 311.624C44.4528 311.581 49.1289 310.516 50.854 309.188C52.3591 308.038 53.9488 306.161 53.9319 304.165C53.9401 303.696 53.8506 303.231 53.6692 302.798C53.4877 302.365 53.2182 301.975 52.8779 301.652C52.5375 301.33 52.1337 301.081 51.6921 300.923C51.2505 300.764 50.7808 300.699 50.3128 300.732C47.4969 301.037 45.0531 305.518 44.5458 307.996C44.5458 308.191 44.2498 311.006 44.2414 311.522C44.2414 311.378 44.1399 311.235 44.0976 311.099C43.3943 308.633 42.9132 306.109 42.6601 303.557C42.4994 302.153 42.4318 300.8 42.3895 299.481C43.2858 299.371 47.3532 298.83 49.0359 297.79C50.7187 296.75 52.4183 295.109 52.6466 293.122C52.7056 292.657 52.6672 292.185 52.534 291.735C52.4007 291.286 52.1754 290.869 51.8725 290.511C51.5696 290.153 51.1955 289.862 50.7742 289.657C50.3528 289.451 49.8933 289.335 49.4249 289.317C46.5921 289.317 43.6748 293.502 42.8969 295.904C42.8969 296.039 42.5671 297.418 42.3726 298.441C42.3726 297.84 42.3726 297.232 42.3726 296.657C42.3726 294.517 42.5079 292.555 42.6432 290.822C42.7277 289.833 42.8292 288.945 42.9222 288.108C43.7678 287.549 47.0149 285.232 47.9958 283.584C48.9767 281.935 49.78 279.643 49.0444 277.783C48.8825 277.343 48.6311 276.942 48.306 276.605C47.981 276.267 47.5895 276.001 47.1562 275.823C46.723 275.645 46.2575 275.559 45.7892 275.57C45.3209 275.582 44.86 275.69 44.4358 275.889C41.899 277.191 41.2564 282.256 41.6707 284.75C41.6707 284.962 42.6601 288.268 42.7024 288.243H42.7531C42.6432 289.038 42.5333 289.934 42.4318 290.839C42.2542 292.572 42.0766 294.534 42.0259 296.682C41.9507 299 42.0071 301.321 42.195 303.633C42.3966 306.219 42.8267 308.783 43.4803 311.294V311.378C43.0406 310.677 41.7299 308.766 41.6115 308.63C39.9203 306.719 35.6332 303.996 33.0287 305.104C32.604 305.303 32.2255 305.589 31.917 305.942C31.6086 306.296 31.377 306.709 31.2371 307.157C31.0971 307.605 31.0518 308.077 31.104 308.543C31.1563 309.009 31.3049 309.459 31.5405 309.865C32.3607 311.7 34.6692 312.545 36.538 312.85Z" fill="#263238"/>
<path d="M85.0925 299.539C85.1432 299.539 85.9973 296.232 86.0311 296.021C86.3778 293.484 85.583 288.47 83.0292 287.235C82.5995 287.048 82.1355 286.952 81.6667 286.953C81.1979 286.955 80.7345 287.053 80.306 287.243C79.8774 287.434 79.493 287.711 79.1772 288.057C78.8614 288.404 78.6211 288.812 78.4715 289.256C77.7865 291.133 78.6575 293.484 79.6807 295.032C80.8814 296.892 85.0925 299.539 85.0925 299.539Z" fill="#263238"/>
<path d="M314.157 180.166L286.59 207.733L181.609 312.782L76.5435 207.792L48.9769 180.166C35.0544 166.242 27.2338 147.357 27.2354 127.666C27.2369 107.975 35.0607 89.0908 48.9854 75.1683C62.9101 61.2459 81.7952 53.4252 101.486 53.4268C121.177 53.4283 140.061 61.2521 153.983 75.1768L181.609 102.743L209.176 75.1768C223.166 61.5859 241.943 54.0465 261.447 54.1881C280.952 54.3298 299.617 62.1411 313.408 75.9337C327.2 89.7264 335.01 108.392 335.15 127.897C335.29 147.401 327.749 166.177 314.157 180.166Z" stroke="#263238" stroke-linecap="round" stroke-linejoin="round"/>
<path d="M138.941 45.0068L137.249 46.698L130.848 53.1077L124.439 46.7065L122.747 45.0153C121.893 44.1642 121.412 43.0085 121.409 41.8025C121.407 40.5965 121.884 39.439 122.735 38.5845C123.586 37.73 124.741 37.2487 125.947 37.2463C127.153 37.2439 128.311 37.7207 129.165 38.5718L130.857 40.263L132.548 38.5718C132.968 38.1515 133.467 37.8181 134.016 37.5906C134.565 37.3632 135.154 37.2461 135.748 37.2461C136.343 37.2461 136.931 37.3632 137.481 37.5906C138.03 37.8181 138.529 38.1515 138.949 38.5718C139.369 38.9921 139.703 39.4911 139.93 40.0403C140.158 40.5894 140.275 41.178 140.275 41.7724C140.275 42.3668 140.158 42.9554 139.93 43.5046C139.703 44.0537 139.369 44.5527 138.949 44.973L138.941 45.0068Z" stroke="#263238" stroke-linecap="round" stroke-linejoin="round"/>
<path d="M79.0807 44.5498L77.3895 46.241L70.9883 52.6422L64.5786 46.241L62.8874 44.5498C62.4412 44.1349 62.0832 43.6343 61.8349 43.0779C61.5866 42.5215 61.453 41.9207 61.4421 41.3115C61.4313 40.7023 61.5434 40.0971 61.7717 39.5322C62 38.9673 62.3399 38.4542 62.771 38.0236C63.2022 37.5931 63.7157 37.2539 64.2809 37.0263C64.8461 36.7987 65.4514 36.6874 66.0606 36.6991C66.6698 36.7107 67.2704 36.8451 67.8265 37.0942C68.3826 37.3432 68.8827 37.7019 69.2971 38.1486L70.9883 39.8398L72.6795 38.1486C73.5283 37.2998 74.6796 36.8229 75.8801 36.8229C77.0805 36.8229 78.2318 37.2998 79.0807 38.1486C79.9295 38.9975 80.4064 40.1488 80.4064 41.3492C80.4064 42.5497 79.9295 43.701 79.0807 44.5498Z" stroke="#263238" stroke-linecap="round" stroke-linejoin="round"/>
<path d="M27.9387 87.3363L26.2475 89.0275L19.8886 95.4287L13.479 89.019L11.7878 87.3278C11.0113 86.4641 10.596 85.3353 10.6277 84.1743C10.6593 83.0133 11.1354 81.9087 11.9577 81.0886C12.7801 80.2684 13.8859 79.7952 15.0469 79.7667C16.208 79.7381 17.3357 80.1564 18.1974 80.9351L19.8886 82.6263L21.5798 80.9351C22 80.5145 22.4989 80.1809 23.0481 79.9532C23.5972 79.7256 24.1859 79.6084 24.7804 79.6084C25.3749 79.6084 25.9636 79.7256 26.5127 79.9532C27.0619 80.1809 27.5608 80.5145 27.981 80.9351C28.3988 81.358 28.7292 81.8592 28.9532 82.4098C29.1772 82.9605 29.2905 83.55 29.2866 84.1445C29.2827 84.739 29.1616 85.3269 28.9303 85.8745C28.6991 86.4222 28.3621 86.9189 27.9387 87.3363Z" stroke="#263238" stroke-linecap="round" stroke-linejoin="round"/>
<path d="M27.6763 161.623L25.9851 163.315L19.5839 169.724L13.1743 163.315L11.4831 161.623C10.8521 160.989 10.423 160.182 10.2498 159.304C10.0766 158.427 10.167 157.517 10.5097 156.691C10.8524 155.864 11.432 155.158 12.1756 154.66C12.9191 154.163 13.7932 153.896 14.6879 153.895C15.2879 153.896 15.8815 154.018 16.4335 154.254C16.9855 154.489 17.4846 154.833 17.9012 155.264L19.5924 156.956L21.2836 155.264C22.1426 154.466 23.2779 154.031 24.4508 154.052C25.6237 154.073 26.7427 154.548 27.5728 155.377C28.4028 156.205 28.8791 157.324 28.9016 158.497C28.924 159.67 28.4909 160.805 27.6932 161.666L27.6763 161.623Z" stroke="#263238" stroke-linecap="round" stroke-linejoin="round"/>
<path d="M71.7833 217.619L70.0921 219.31L63.6909 225.72L57.2812 219.318L55.59 217.627C54.7924 216.767 54.3592 215.631 54.3817 214.458C54.4042 213.286 54.8805 212.167 55.7105 211.338C56.5405 210.509 57.6596 210.034 58.8325 210.014C60.0053 209.993 61.1406 210.427 61.9997 211.226L63.6909 212.917L65.3821 211.226C65.8024 210.806 66.3014 210.472 66.8505 210.245C67.3997 210.017 67.9883 209.9 68.5827 209.9C69.1771 209.9 69.7657 210.017 70.3148 210.245C70.864 210.472 71.363 210.806 71.7833 211.226C72.2036 211.646 72.537 212.145 72.7645 212.695C72.9919 213.244 73.109 213.832 73.109 214.427C73.109 215.021 72.9919 215.61 72.7645 216.159C72.537 216.708 72.2036 217.207 71.7833 217.627V217.619Z" stroke="#263238" stroke-linecap="round" stroke-linejoin="round"/>
<path d="M115.17 256.844L113.479 258.535L107.069 264.945L100.668 258.535L98.9771 256.844C98.5568 256.424 98.2234 255.925 97.9959 255.376C97.7684 254.827 97.6514 254.238 97.6514 253.644C97.6514 253.049 97.7684 252.461 97.9959 251.911C98.2234 251.362 98.5568 250.863 98.9771 250.443C99.3974 250.023 99.8964 249.689 100.446 249.462C100.995 249.234 101.583 249.117 102.178 249.117C102.772 249.117 103.361 249.234 103.91 249.462C104.459 249.689 104.958 250.023 105.378 250.443L107.069 252.134L108.761 250.443C109.62 249.644 110.755 249.209 111.928 249.23C113.101 249.251 114.22 249.726 115.05 250.555C115.88 251.384 116.356 252.502 116.379 253.675C116.401 254.848 115.968 255.984 115.17 256.844Z" stroke="#263238" stroke-linecap="round" stroke-linejoin="round"/>
<path d="M225.37 45.0068L227.061 46.698L233.462 53.1077L239.872 46.7065L241.563 45.0153C241.986 44.595 242.322 44.0955 242.552 43.5452C242.782 42.995 242.902 42.4049 242.904 41.8085C242.906 41.2121 242.79 40.6212 242.564 40.0695C242.337 39.5178 242.004 39.016 241.584 38.593C241.164 38.1699 240.664 37.8337 240.114 37.6037C239.564 37.3737 238.974 37.2542 238.377 37.2523C237.781 37.2503 237.19 37.3658 236.638 37.5922C236.087 37.8187 235.585 38.1515 235.162 38.5718L233.47 40.263L231.779 38.5718C230.926 37.7218 229.77 37.2457 228.566 37.2481C227.361 37.2504 226.207 37.7312 225.357 38.5845C224.507 39.4378 224.031 40.5939 224.033 41.7983C224.036 43.0027 224.516 44.1569 225.37 45.0068Z" stroke="#263238" stroke-linecap="round" stroke-linejoin="round"/>
<path d="M285.28 44.5495L286.971 46.2407L293.381 52.6419L299.782 46.2322L301.473 44.541C301.894 44.1207 302.227 43.6217 302.454 43.0726C302.682 42.5234 302.799 41.9348 302.799 41.3404C302.799 40.746 302.682 40.1574 302.454 39.6083C302.227 39.0591 301.894 38.5602 301.473 38.1398C301.053 37.7195 300.554 37.3861 300.005 37.1587C299.456 36.9312 298.867 36.8141 298.273 36.8141C297.678 36.8141 297.09 36.9312 296.54 37.1587C295.991 37.3861 295.492 37.7195 295.072 38.1398L293.381 39.831L291.69 38.1398C291.275 37.6931 290.775 37.3345 290.219 37.0854C289.663 36.8363 289.062 36.702 288.453 36.6903C287.844 36.6786 287.239 36.7899 286.673 37.0175C286.108 37.2451 285.595 37.5843 285.164 38.0148C284.732 38.4454 284.393 38.9585 284.164 39.5234C283.936 40.0883 283.824 40.6935 283.835 41.3027C283.846 41.9119 283.979 42.5127 284.227 43.0691C284.476 43.6255 284.834 44.1261 285.28 44.541V44.5495Z" stroke="#263238" stroke-linecap="round" stroke-linejoin="round"/>
<path d="M336.396 87.3363L338.088 89.0275L344.489 95.4371L350.898 89.0275L352.59 87.3363C353.01 86.9161 353.344 86.4172 353.572 85.868C353.799 85.3189 353.916 84.7302 353.916 84.1357C353.916 83.5412 353.799 82.9525 353.572 82.4034C353.344 81.8542 353.01 81.3553 352.59 80.9351C352.169 80.5145 351.671 80.1809 351.121 79.9532C350.572 79.7256 349.984 79.6084 349.389 79.6084C348.795 79.6084 348.206 79.7256 347.657 79.9532C347.108 80.1809 346.609 80.5145 346.188 80.9351L344.497 82.6263L342.806 80.9351C341.957 80.0863 340.806 79.6094 339.605 79.6094C338.405 79.6094 337.254 80.0863 336.405 80.9351C335.556 81.784 335.079 82.9352 335.079 84.1357C335.079 85.3362 335.556 86.4874 336.405 87.3363H336.396Z" stroke="#263238" stroke-linecap="round" stroke-linejoin="round"/>
<path d="M336.659 161.621L338.35 163.313L344.751 169.722L351.161 163.313L352.852 161.621C353.65 160.761 354.083 159.625 354.06 158.453C354.038 157.28 353.562 156.161 352.732 155.332C351.901 154.503 350.782 154.029 349.61 154.008C348.437 153.987 347.301 154.421 346.442 155.22L344.751 156.911L343.06 155.22C342.64 154.8 342.141 154.467 341.591 154.239C341.042 154.012 340.454 153.895 339.859 153.895C339.265 153.895 338.676 154.012 338.127 154.239C337.578 154.467 337.079 154.8 336.659 155.22C336.238 155.641 335.905 156.14 335.678 156.689C335.45 157.238 335.333 157.826 335.333 158.421C335.333 159.015 335.45 159.604 335.678 160.153C335.905 160.702 336.238 161.201 336.659 161.621Z" stroke="#263238" stroke-linecap="round" stroke-linejoin="round"/>
<path d="M292.552 217.619L294.243 219.31L300.652 225.72L307.054 219.318L308.745 217.627C309.165 217.207 309.499 216.708 309.726 216.159C309.954 215.61 310.071 215.021 310.071 214.427C310.071 213.832 309.954 213.244 309.726 212.695C309.499 212.145 309.165 211.646 308.745 211.226C308.325 210.806 307.826 210.472 307.276 210.245C306.727 210.017 306.139 209.9 305.544 209.9C304.95 209.9 304.361 210.017 303.812 210.245C303.263 210.472 302.764 210.806 302.344 211.226L300.652 212.917L298.961 211.226C298.112 210.377 296.961 209.9 295.761 209.9C294.56 209.9 293.409 210.377 292.56 211.226C291.711 212.075 291.234 213.226 291.234 214.427C291.234 215.627 291.711 216.778 292.56 217.627L292.552 217.619Z" stroke="#263238" stroke-linecap="round" stroke-linejoin="round"/>
<path d="M249.165 256.845L250.856 258.536L257.257 264.946L263.667 258.536L265.358 256.845C266.156 255.985 266.589 254.849 266.566 253.676C266.544 252.503 266.067 251.385 265.237 250.556C264.407 249.727 263.288 249.252 262.115 249.231C260.943 249.21 259.807 249.645 258.948 250.444L257.257 252.135L255.566 250.444C255.146 250.023 254.647 249.69 254.098 249.462C253.548 249.234 252.96 249.117 252.365 249.117C251.771 249.117 251.182 249.234 250.633 249.462C250.084 249.69 249.585 250.023 249.165 250.444C248.744 250.864 248.41 251.363 248.183 251.912C247.955 252.461 247.838 253.05 247.838 253.645C247.838 254.239 247.955 254.828 248.183 255.377C248.41 255.926 248.744 256.425 249.165 256.845Z" stroke="#263238" stroke-linecap="round" stroke-linejoin="round"/>
<path d="M156.875 26.6095L159.767 29.5099L170.76 40.5027L181.753 29.5099L184.653 26.6095C185.45 25.9055 186.094 25.0459 186.546 24.0834C186.998 23.121 187.248 22.0762 187.281 21.0135C187.314 19.9507 187.129 18.8925 186.737 17.9039C186.346 16.9154 185.756 16.0176 185.004 15.2657C184.252 14.5139 183.354 13.9239 182.366 13.5323C181.377 13.1406 180.319 12.9555 179.256 12.9884C178.194 13.0213 177.149 13.2714 176.186 13.7235C175.224 14.1755 174.364 14.8198 173.66 15.6167L170.76 18.5086L167.868 15.5997C167.164 14.8029 166.304 14.1586 165.342 13.7065C164.38 13.2545 163.335 13.0044 162.272 12.9715C161.209 12.9386 160.151 13.1237 159.162 13.5154C158.174 13.907 157.276 14.497 156.524 15.2488C155.772 16.0007 155.182 16.8985 154.791 17.887C154.399 18.8755 154.214 19.9338 154.247 20.9966C154.28 22.0593 154.53 23.1041 154.982 24.0665C155.434 25.0289 156.078 25.8886 156.875 26.5925V26.6095Z" fill="#FF81AE" stroke="#263238" stroke-linecap="round" stroke-linejoin="round"/>
<path d="M186.386 11.0151L188.567 13.2052L196.871 21.509L205.175 13.2052L207.357 11.0236C207.902 10.4783 208.334 9.83104 208.629 9.11866C208.925 8.40627 209.076 7.64274 209.076 6.87166C209.076 6.10058 208.925 5.33706 208.629 4.62468C208.334 3.91229 207.902 3.26501 207.357 2.71977C206.811 2.17454 206.164 1.74203 205.452 1.44695C204.739 1.15188 203.976 1 203.205 1C202.434 1 201.67 1.15188 200.958 1.44695C200.245 1.74203 199.598 2.17454 199.053 2.71977L196.871 4.90142L194.69 2.71977C194.144 2.17454 193.497 1.74203 192.785 1.44695C192.072 1.15188 191.309 1 190.538 1C189.767 1 189.003 1.15188 188.291 1.44695C187.578 1.74203 186.931 2.17454 186.386 2.71977C185.841 3.26501 185.408 3.91229 185.113 4.62468C184.818 5.33706 184.666 6.10058 184.666 6.87166C184.666 7.64274 184.818 8.40627 185.113 9.11866C185.408 9.83104 185.841 10.4783 186.386 11.0236V11.0151Z" fill="#FF81AE" stroke="#263238" stroke-linecap="round" stroke-linejoin="round"/>
<path d="M177.829 104.53C177.829 104.53 193.101 108.826 194.098 109.435C195.096 110.044 194.809 136.088 194.809 136.088L183.376 134.253L177.829 104.53Z" fill="#263238" stroke="#263238" stroke-linecap="round" stroke-linejoin="round"/>
<path d="M153.865 102.78L153.12 158.116L130.813 155.334L132.099 139.082L137.181 103.339L144.504 100.43L153.865 102.78Z" fill="#263238" stroke="#263238" stroke-linecap="round" stroke-linejoin="round"/>
<path d="M173.086 98.3903L171.505 101.993L177.83 104.529C177.83 104.529 182.996 132.493 183.377 134.252C183.757 136.011 173.314 139.326 165.01 139.596C160.843 139.812 156.666 139.77 152.504 139.469C152.504 139.469 155.041 119.336 154.593 111.751C154.144 104.166 152.825 90.7376 152.825 90.7376C152.825 90.7376 154.212 88.3107 156.106 88.3783C158 88.446 173.086 98.3903 173.086 98.3903Z" fill="white" stroke="#263238" stroke-linecap="round" stroke-linejoin="round"/>
<path d="M170.861 100.986L167.834 109.874" stroke="#263238" stroke-linecap="round" stroke-linejoin="round"/>
<path d="M186.775 232.377C186.775 232.377 183.832 264.662 180.966 275.976C178.099 287.29 172.992 311.229 170.522 326.492C168.053 341.755 168.129 347.446 168.129 347.446L168.62 352.461C171.949 355.505 175.689 358.067 179.731 360.071C185.726 362.861 192.221 363.918 190.961 366.303C189.701 368.688 183.502 370.683 176.958 370.337C170.413 369.99 162.193 366.109 162.193 366.109C162.193 366.109 154.82 364.984 153.112 364.138C151.403 363.293 151.522 361.703 152.038 359.792C152.554 357.881 156.08 340.385 156.494 337.4C156.908 334.415 156.097 309.115 156.748 300.997C157.399 292.88 157.509 289.328 159.175 281.819C160.01 277.809 161.098 273.855 162.43 269.981C162.667 269.287 160.874 233.967 160.874 233.967L186.775 232.377Z" fill="white" stroke="#263238" stroke-linecap="round" stroke-linejoin="round"/>
<path d="M176.958 370.371C183.503 370.718 189.701 368.722 190.961 366.338C192.221 363.953 185.727 362.896 179.732 360.106C175.69 358.101 171.95 355.54 168.621 352.495C168.621 352.495 166.6 351.092 165.576 352.783C164.931 353.867 164.365 354.998 163.885 356.165C163.885 356.165 162.651 356.064 158.541 354.136C156.911 353.365 155.329 352.496 153.806 351.531C152.96 355.548 152.258 359.04 152.047 359.835C151.531 361.746 151.404 363.336 153.121 364.181C154.837 365.027 162.202 366.152 162.202 366.152C162.202 366.152 170.405 370.05 176.958 370.371Z" fill="white" stroke="#263238" stroke-linecap="round" stroke-linejoin="round"/>
<path d="M190.96 366.338C191.087 366.115 191.134 365.857 191.096 365.604C191.058 365.351 190.935 365.118 190.749 364.943C187.9 366.756 184.784 368.112 181.515 368.959C174.809 370.549 168.188 366.642 161.136 363.767C157.196 362.161 153.999 360.951 151.953 360.19C151.522 361.949 151.505 363.395 153.111 364.19C154.718 364.985 162.193 366.16 162.193 366.16C162.193 366.16 170.412 370.025 176.957 370.388C183.502 370.752 189.7 368.723 190.96 366.338Z" fill="white" stroke="#263238" stroke-linecap="round" stroke-linejoin="round"/>
<path d="M164.688 232.571C164.688 232.571 178.911 273.634 178.218 279.46C177.524 285.286 131.71 313.698 127.549 316.04C123.389 318.383 118.129 322.103 117.918 323.16C117.707 324.217 121.546 341.713 124.226 346.414C126.907 351.116 129.3 354.025 127.828 355.217C126.357 356.409 121.977 355.217 116.54 353.602C111.102 351.987 105.547 344.013 102.029 336.986C98.5115 329.959 98.1902 324.801 100.025 322.915C101.86 321.029 115.128 311.195 122.222 305.58C129.317 299.966 143.024 282.529 146.651 280.001C149.383 277.922 151.897 275.571 154.152 272.982L132.124 242.828L164.688 232.571Z" fill="white" stroke="#263238" stroke-linecap="round" stroke-linejoin="round"/>
<path d="M154.118 272.983L160.587 281" stroke="#263238" stroke-linecap="round" stroke-linejoin="round"/>
<path d="M127.795 355.217C129.249 354.025 126.865 351.107 124.192 346.414C122.273 343.032 119.753 333.121 118.561 327.371L118.096 327.245C118.096 327.245 117.25 325.443 114.933 326.61C113.213 327.592 111.672 328.859 110.375 330.356C110.375 330.356 106.325 326.889 104.862 318.924C102.427 320.826 100.592 322.306 99.9914 322.915C98.1564 324.801 98.5116 329.959 101.995 336.986C105.479 344.013 111.069 351.995 116.506 353.593C121.943 355.192 126.332 356.409 127.795 355.217Z" fill="white" stroke="#263238" stroke-linecap="round" stroke-linejoin="round"/>
<path d="M111.043 347.387C105.293 341.654 101.209 329.088 99.5941 323.439C98.2326 325.646 98.7907 330.517 101.996 336.969C105.488 343.996 111.069 351.978 116.506 353.577C121.943 355.175 126.332 356.392 127.795 355.2C127.959 355.061 128.085 354.883 128.16 354.681C128.236 354.48 128.258 354.263 128.226 354.05C124.624 353.982 116.709 353.035 111.043 347.387Z" fill="white" stroke="#263238" stroke-linecap="round" stroke-linejoin="round"/>
<path d="M151.886 101.47C152.06 109.086 151.851 116.706 151.26 124.301C150.288 135.903 147.48 154.582 147.48 154.582L131.059 154.176L127.279 167.867C127.279 167.867 119.33 183.747 116.438 196.313C113.546 208.878 124.099 241.087 124.099 241.087L167.174 232.352L193.016 229.579C193.016 229.579 191.587 211.635 189.27 198.173C186.953 184.711 184.864 173.431 184.619 171.959C184.374 170.488 186.488 137.975 184.441 129.468C182.395 120.961 179.004 105.132 179.004 105.132L176.121 104.286C176.121 104.286 180.501 125.528 180.991 128.166C181.303 129.9 181.487 131.655 181.541 133.417C181.541 133.417 174.928 135.379 169.263 135.193C163.597 135.007 156.325 134.263 156.325 134.263C156.325 134.263 155.945 115.659 155.818 111.026C155.691 106.392 154.862 100.219 154.862 100.219L151.886 101.47Z" fill="#FF81AE" stroke="#263238" stroke-linecap="round" stroke-linejoin="round"/>
<path d="M154.744 141.864L153.94 161.482L169.55 170.555L182.183 161.119L182.539 141.923L154.744 141.864Z" stroke="#263238" stroke-linecap="round" stroke-linejoin="round"/>
<path d="M142.051 162.879C142.051 162.879 139.794 170.396 135.473 172.705C131.152 175.013 128.902 175.385 128.902 175.385" stroke="#263238" stroke-linecap="round" stroke-linejoin="round"/>
<path d="M133.249 165.727C133.249 165.727 127.203 172.897 125.436 192.261" stroke="#263238" stroke-linecap="round" stroke-linejoin="round"/>
<path d="M131.896 227.829C132.394 228.979 132.936 230.095 133.511 231.169" stroke="#263238" stroke-linecap="round" stroke-linejoin="round"/>
<path d="M125.521 196.508C125.521 196.508 125.96 211.001 130.315 223.728" stroke="#263238" stroke-linecap="round" stroke-linejoin="round"/>
<path d="M158.261 200.65C157.747 199.351 157.157 198.083 156.494 196.854" stroke="#263238" stroke-linecap="round" stroke-linejoin="round"/>
<path d="M166.599 228.562C166.599 228.562 163.166 214.077 159.505 203.896" stroke="#263238" stroke-linecap="round" stroke-linejoin="round"/>
<path d="M163.166 214.628C163.166 214.628 171.69 203.567 174.159 198.333" stroke="#263238" stroke-linecap="round" stroke-linejoin="round"/>
<path d="M167.918 230.524L169 238.134C169 238.134 179.325 236.697 184.948 235.547C188.092 234.925 191.183 234.057 194.191 232.951L193.345 225.771L167.918 230.524Z" fill="#E3E3E3" stroke="#263238" stroke-linecap="round" stroke-linejoin="round"/>
<path d="M121.005 237.891C121.005 237.891 124.277 246.93 124.945 246.955C125.613 246.981 160.689 239.895 170.413 236.199L168.426 228.767L121.005 237.891Z" fill="#E3E3E3" stroke="#263238" stroke-linecap="round" stroke-linejoin="round"/>
<path d="M183.739 90.5029C183.739 90.5029 184.145 100.566 184.475 101.817C184.805 103.069 184.771 104.176 182.649 104.608C179.815 105.022 176.923 104.711 174.243 103.703C171.309 102.612 170.48 101.47 170.861 100.988C171.242 100.506 173.254 96.3545 173.254 96.3545L183.739 90.5029Z" fill="#263238" stroke="#263238" stroke-linecap="round" stroke-linejoin="round"/>
<path d="M175.605 55.7656C175.605 55.7656 154.888 67.215 154.837 68.7033C154.786 70.1916 156.596 90.0885 157.797 91.3738C158.997 92.6591 169.635 99.5846 172.747 100.43C175.859 101.276 178.666 100.878 179.715 99.5423C180.763 98.2063 184.213 91.137 185.701 87.3488C187.19 83.5605 186.64 66.9191 186.547 65.9213C186.454 64.9235 179.452 55.7656 175.605 55.7656Z" fill="white" stroke="#263238" stroke-linecap="round" stroke-linejoin="round"/>
<path d="M179.646 72.1453C179.646 72.1453 182.369 68.5092 185.118 71.7056" stroke="#263238" stroke-linecap="round" stroke-linejoin="round"/>
<path d="M170.709 72.4569C170.709 72.4569 167.944 69.9201 163.732 73.3448" stroke="#263238" stroke-linecap="round" stroke-linejoin="round"/>
<path d="M183.461 76.7266C183.418 77.8259 182.945 78.6969 182.404 78.68C181.863 78.6631 181.44 77.7583 181.474 76.6674C181.507 75.5766 181.989 74.6972 182.531 74.7141C183.072 74.731 183.495 75.6358 183.461 76.7266Z" fill="#263238"/>
<path d="M171.031 77.556C171.031 78.6469 170.523 79.5178 169.974 79.5009C169.424 79.484 169.01 78.5792 169.052 77.4884C169.094 76.3976 169.559 75.5181 170.109 75.5435C170.658 75.5689 171.064 76.4567 171.031 77.556Z" fill="#263238"/>
<path d="M176.188 86.5268C176.836 86.4128 177.452 86.1652 177.998 85.7997C178.544 85.4343 179.007 84.959 179.359 84.4043" stroke="#263238" stroke-linecap="round" stroke-linejoin="round"/>
<path d="M174.574 90.3246C171.958 89.7227 169.529 88.492 167.496 86.7393" stroke="#263238" stroke-linecap="round" stroke-linejoin="round"/>
<path d="M186.471 68.7712C186.471 68.7712 189.084 64.7715 189.278 62.666C189.473 60.5604 182.826 51.2588 179.418 49.3224C176.011 47.386 158.109 48.8489 153.205 51.4195C148.3 53.9901 132.995 84.7108 131.938 90.5031C130.881 96.2955 138.965 101.995 148.419 103.83C157.873 105.665 159.513 105.69 159.513 105.69C159.513 105.69 158.727 77.5147 158.803 75.0371C158.879 72.5595 158.803 70.5808 159.716 69.9635C160.629 69.3462 176.357 58.2435 176.357 58.2435C176.357 58.2435 185.879 67.3929 186.471 68.7712Z" fill="#263238" stroke="#263238" stroke-linecap="round" stroke-linejoin="round"/>
<path d="M195.671 249.535C195.671 249.535 193.371 249.273 193.32 250.905C193.27 252.537 193.32 256.689 193.802 257.61C193.802 257.61 195.223 257.484 195.24 256.942C195.257 256.401 196.204 260.046 196.365 265.661C196.525 271.275 196.238 274.886 198.115 276.941C199.992 278.996 202.63 279.799 203.002 279.275C203.375 278.75 195.671 249.535 195.671 249.535Z" fill="#FF81AE" stroke="#263238" stroke-linecap="round" stroke-linejoin="round"/>
<path d="M211.341 315.93C211.341 315.93 213.378 344.942 213.319 346.929C213.26 348.917 212.474 352.003 205.032 356.231C197.591 360.459 192.095 361.406 193.118 362.708C194.141 364.01 200.897 368.391 208.043 366.826C215.188 365.262 217.344 363.698 221.107 362.92C224.87 362.142 227.872 362.784 229.014 359.749C230.155 356.713 225.673 348.418 225.445 344.612C225.217 340.807 228.168 316.116 228.168 316.116L211.341 315.93Z" fill="white" stroke="#263238" stroke-linecap="round" stroke-linejoin="round"/>
<path d="M229.013 359.757C229.74 357.863 228.261 353.939 226.992 350.32C224.237 351.428 221.245 351.815 218.299 351.445C217.971 350.043 217.352 348.727 216.481 347.58C215.12 345.889 212.862 349.813 212.862 349.813H212.507C211.551 351.504 209.497 353.669 205.032 356.248C197.616 360.518 192.094 361.423 193.117 362.725C194.141 364.027 200.897 368.408 208.042 366.843C215.188 365.279 217.344 363.714 221.107 362.937C224.87 362.159 227.846 362.793 229.013 359.757Z" fill="#263238" stroke="#263238" stroke-linecap="round" stroke-linejoin="round"/>
<path d="M221.141 362.93C224.887 362.152 227.906 362.795 229.047 359.759C229.334 358.53 229.275 357.245 228.878 356.047C228.244 356.351 227.466 356.706 226.477 357.138C220.718 359.675 213.64 364.672 205.472 365.12C201.234 365.385 197.032 364.191 193.566 361.738C193.059 362.076 192.889 362.38 193.152 362.719C194.166 364.012 200.931 368.401 208.076 366.837C215.222 365.272 217.361 363.708 221.141 362.93Z" fill="white" stroke="#263238" stroke-linecap="round" stroke-linejoin="round"/>
<path d="M235.051 322.322C235.051 322.322 235.364 350.016 234.915 352.899C234.467 355.783 231.288 361.456 224.692 367.029C218.096 372.601 216.828 374.36 218.198 375.679C219.568 376.999 226.755 379.4 230.882 378.453C235.008 377.506 247.295 369.955 248.394 368.906C249.494 367.858 249.891 366.606 250.001 363.173C250.111 359.74 249.392 349.584 249.553 344.883C249.713 340.181 252.504 320.36 252.504 320.36L235.051 322.322Z" fill="white" stroke="#263238" stroke-linecap="round" stroke-linejoin="round"/>
<path d="M249.984 363.175C250.035 361.78 249.942 359.277 249.832 356.486C247.636 357.582 245.291 358.351 242.872 358.769C242.872 358.769 241.875 351.319 239.219 351.235C236.564 351.15 234.501 354.693 234.501 354.693H234.408C233.224 357.805 230.104 362.464 224.692 367.056C218.122 372.62 216.828 374.387 218.198 375.707C219.568 377.026 226.755 379.427 230.882 378.48C235.008 377.533 247.295 369.982 248.394 368.933C249.493 367.885 249.891 366.608 249.984 363.175Z" fill="#263238" stroke="#263238" stroke-linecap="round" stroke-linejoin="round"/>
<path d="M249.891 364.383C242.94 367.723 235.305 376.221 230.341 377.168C225.885 378.014 220.194 375.173 217.868 373.887C217.699 374.173 217.636 374.51 217.69 374.838C217.744 375.166 217.912 375.464 218.164 375.68C219.543 376.991 226.722 379.401 230.848 378.454C234.975 377.507 247.261 369.955 248.361 368.907C249.333 367.994 249.756 366.92 249.891 364.383Z" fill="white" stroke="#263238" stroke-linecap="round" stroke-linejoin="round"/>
<path d="M190.04 211.345C190.04 211.345 193.76 248.383 197.236 260.804C200.711 273.226 202.977 295.914 202.977 295.914L203.147 317.054C203.147 317.054 205.683 320.039 214.9 320.707C224.117 321.375 228.734 320.445 228.734 320.445L229.495 324.275C229.495 324.275 241.089 327.193 244.835 326.592C248.581 325.992 257.383 322.136 257.383 322.136C257.383 322.136 258.407 307.693 256.766 298.408C255.126 289.124 254.009 280.042 254.009 280.042C254.009 280.042 251.278 261.134 251.726 252.983C252.174 244.831 258.136 231.124 260.055 221.416C261.195 215.151 261.349 208.746 260.512 202.433L259.768 198.205L189.067 197.824L190.04 211.345Z" fill="#FF81AE" stroke="#263238" stroke-linecap="round" stroke-linejoin="round"/>
<path d="M215.957 215.305C215.957 215.305 215.154 244.41 219.078 264.806C223.001 285.202 228.21 309.8 228.734 320.489" fill="#FF81AE"/>
<path d="M215.957 215.305C215.957 215.305 215.154 244.41 219.078 264.806C223.001 285.202 228.21 309.8 228.734 320.489" stroke="#263238" stroke-linecap="round" stroke-linejoin="round"/>
<path d="M249.189 223.142C249.189 223.142 246.847 241.051 246.382 246.26" stroke="#263238" stroke-linecap="round" stroke-linejoin="round"/>
<path d="M251.988 311.179C252.115 312.929 252.183 314.502 252.174 315.83" stroke="#263238" stroke-linecap="round" stroke-linejoin="round"/>
<path d="M247.854 280.271C247.854 280.271 250.39 295.044 251.583 306.561" stroke="#263238" stroke-linecap="round" stroke-linejoin="round"/>
<path d="M231.397 320.937C231.397 320.937 241.325 327.651 256.765 317.724" stroke="#263238" stroke-linecap="round" stroke-linejoin="round"/>
<path d="M209.902 315.618C214.976 316.743 222.586 317.867 228.167 316.126" stroke="#263238" stroke-linecap="round" stroke-linejoin="round"/>
<path d="M204.626 314.239C204.626 314.239 205.624 314.561 207.264 314.992" stroke="#263238" stroke-linecap="round" stroke-linejoin="round"/>
<path d="M241.156 261.737C241.156 261.737 241.156 277.118 242.002 278.59C242.847 280.061 247.659 278.962 249.612 278.302C251.566 277.643 252.995 278.057 254.069 277.364C255.142 276.67 256.115 274.539 255.65 272.535C254.802 268.813 254.159 265.047 253.722 261.255C253.727 260.15 253.585 259.05 253.299 257.982C253.299 257.982 243.803 262.185 241.156 261.737Z" fill="#FF81AE" stroke="#263238" stroke-linecap="round" stroke-linejoin="round"/>
<path d="M238.839 251.708L239.904 262.058C239.904 262.058 245.933 262.058 247.515 261.407C249.096 260.756 254.702 258.388 254.702 258.388C254.702 258.388 254.466 254.946 254.17 253.128C253.725 251.193 253.143 249.291 252.428 247.438C252.428 247.438 244.487 252.257 238.839 251.708Z" fill="#FF81AE" stroke="#263238" stroke-linecap="round" stroke-linejoin="round"/>
<path d="M211.424 96.285C211.424 96.285 189.921 105.587 189.692 108.301C189.625 109.087 184.407 129.441 184.407 129.441L185.109 156.12L193.565 150.775C193.565 150.775 188.492 191.263 185.955 199.194C183.418 207.126 183.418 210.559 183.418 210.559C183.418 210.559 205.04 219.015 225.047 219.971C245.054 220.926 258.6 214.052 258.6 214.052L258.076 204.006L261.644 212.859C261.644 212.859 265.12 211.692 268.595 206.365C268.595 206.365 258.321 179.678 256.283 172.169C254.245 164.66 252.055 153.414 251.92 152.72C251.785 152.027 257.898 102.669 257.543 100.369C257.188 98.0692 232.353 87.3555 232.353 87.3555L211.424 96.285Z" fill="#A3A3A3" stroke="#263238" stroke-linecap="round" stroke-linejoin="round"/>
<path d="M193.566 150.81C193.566 150.81 190.792 137.027 191.426 132.503C191.858 128.193 192.059 123.863 192.027 119.531" stroke="#263238" stroke-linecap="round" stroke-linejoin="round"/>
<path d="M209.835 92.5146L202.884 99.0089L213.471 107.812C213.471 107.812 213.893 99.5247 212.701 96.6158C212.116 95.0243 211.128 93.6114 209.835 92.5146Z" fill="white" stroke="#263238" stroke-linecap="round" stroke-linejoin="round"/>
<path d="M183.258 56.6953C183.695 60.3374 184.546 63.9178 185.795 67.3668C187.638 72.0092 191.054 72.5588 191.063 76.6684C191.071 80.778 189.558 83.0611 190.395 83.6615C191.232 84.2619 194.538 83.9406 194.538 83.9406C194.538 83.9406 200.88 91.3142 202.149 91.923C203.417 92.5319 207.036 91.2296 207.036 91.2296C208.956 94.1943 210.531 97.369 211.729 100.692C212.506 103 213.097 105.367 213.496 107.77L216.38 98.7047L227.237 82.1733C225.787 79.9757 224.571 77.6318 223.61 75.1802C222.434 71.8485 221.504 69.5231 221.504 69.5231C221.504 69.5231 216.828 59.7733 211.628 56.7376C206.427 53.7019 186.243 53.2115 183.258 56.6953Z" fill="white" stroke="#263238" stroke-linecap="round" stroke-linejoin="round"/>
<path d="M177.212 53.4815C177.212 53.4815 182.573 60.2463 189.397 61.6246C196.221 63.003 204.711 61.5655 204.711 61.5655C204.711 61.5655 211.712 66.2332 213.167 65.9964C214.621 65.7596 216.718 62.5379 218.486 65.3115C220.253 68.085 218.088 72.7443 221.868 74.8752C225.648 77.0061 229.943 73.2855 231.009 71.1799C231.651 69.9244 232.128 68.5915 232.43 67.2141C232.43 67.2141 227.889 66.064 227.55 63.4765C227.212 60.889 229.724 58.4029 229.724 58.4029L227.736 57.7603C227.736 57.7603 230.857 54.5723 231.195 53.008C231.533 51.4436 233.292 50.2175 231.719 50.1668C230.146 50.116 228.768 48.4756 228.768 48.4756C228.768 48.4756 226.358 44.0277 220.058 39.8082C213.759 35.5886 208.017 31.6735 194.986 36.2482C181.956 40.8229 173.026 50.3359 177.212 53.4815Z" fill="#263238" stroke="#263238" stroke-linecap="round" stroke-linejoin="round"/>
<path d="M214.545 67.1885C214.545 67.1885 215.467 61.0663 218.773 61.1763C222.079 61.2862 222.688 68.1778 221.31 70.7062C219.931 73.2345 219.06 73.7842 217.927 73.3106" fill="white"/>
<path d="M214.545 67.1885C214.545 67.1885 215.467 61.0663 218.773 61.1763C222.079 61.2862 222.688 68.1778 221.31 70.7062C219.931 73.2345 219.06 73.7842 217.927 73.3106" stroke="#263238" stroke-linecap="round" stroke-linejoin="round"/>
<path d="M193.464 72.6357L194.808 75.1218C194.808 75.1218 197.387 75.2064 198.453 73.3799" stroke="#263238" stroke-linecap="round" stroke-linejoin="round"/>
<path d="M190.817 70.5455C190.923 69.7146 191.353 68.9592 192.014 68.4443C192.674 67.9294 193.512 67.6968 194.344 67.7973" stroke="#263238" stroke-linecap="round" stroke-linejoin="round"/>
<path d="M198.952 83.989C198.952 83.989 202.884 81.968 203.129 78.9746" stroke="#263238" stroke-linecap="round" stroke-linejoin="round"/>
<path d="M207.011 91.2727C207.011 91.2727 212.253 88.5836 214.477 86.3682L210.148 96.3885L207.011 91.2727Z" fill="#263238" stroke="#263238" stroke-linecap="round" stroke-linejoin="round"/>
<path d="M202.884 99.0098L205.835 109.275L210.545 105.419L202.884 99.0098Z" fill="white" stroke="#263238" stroke-linecap="round" stroke-linejoin="round"/>
<path d="M216.354 98.7463L222.587 110.771L233.613 87.8719L227.212 82.2148L216.354 98.7463Z" fill="white" stroke="#263238" stroke-linecap="round" stroke-linejoin="round"/>
<path d="M238.45 88.7515C238.45 88.7515 237.528 86.4261 235.795 86.6544C234.061 86.8828 232.666 94.713 233.359 95.4487C234.053 96.1843 234.958 94.6454 236.471 92.117C237.985 89.5887 238.45 88.7515 238.45 88.7515Z" fill="white" stroke="#263238" stroke-linecap="round" stroke-linejoin="round"/>
<path d="M238.45 88.7516C238.45 88.7516 241.384 86.553 241.832 89.2927C242.28 92.0325 238.019 96.3197 236.294 96.4042C234.568 96.4888 238.45 88.7516 238.45 88.7516Z" fill="white" stroke="#263238" stroke-linecap="round" stroke-linejoin="round"/>
<path d="M241.689 90.434C241.689 90.434 244.445 89.2333 244.522 91.2796C244.598 93.326 241.207 96.1756 240.065 95.9896C238.924 95.8036 240.581 93.4528 240.581 93.4528C241.065 92.4922 241.436 91.4794 241.689 90.434Z" fill="white" stroke="#263238" stroke-linecap="round" stroke-linejoin="round"/>
<path d="M244.521 91.248C245.592 91.6642 246.514 92.3916 247.168 93.3367C247.845 94.6474 247.743 97.6492 246.204 96.4569C245.218 95.5695 244.555 94.3798 244.318 93.0745L244.521 91.248Z" fill="white" stroke="#263238" stroke-linecap="round" stroke-linejoin="round"/>
<path d="M236.725 136.477L215.221 129.349C215.221 129.349 201.971 120.665 200.339 120.047C198.707 119.43 194.419 116.369 193.32 116.513C192.221 116.656 186.555 120.318 185.312 120.639C185.078 120.675 184.858 120.771 184.673 120.919C184.489 121.067 184.346 121.261 184.26 121.481C184.175 121.702 184.149 121.941 184.185 122.174C184.221 122.408 184.318 122.628 184.467 122.812C185.008 123.193 185.312 124.504 185.862 125.053C186.412 125.603 187.815 126.744 189.118 126.262C190.42 125.78 193.946 124.047 194.479 124.614C195.011 125.18 198.707 128.782 199.053 130.076C199.4 131.37 198.318 135.725 196.449 136.756C194.58 137.788 192.221 136.985 190.369 138.016C188.517 139.048 187.19 139.192 187.604 140.858C188.018 142.523 190.403 142.413 193.168 141.957C195.933 141.5 196.88 140.266 200.525 140.739C203.7 141.025 206.897 140.948 210.055 140.511C211.162 140.367 213.361 140.257 213.361 140.257L234.974 150.869C234.974 150.869 237.816 142.371 236.725 136.477Z" fill="white" stroke="#263238" stroke-linecap="round" stroke-linejoin="round"/>
<path d="M199.527 119.818C199.527 119.818 195.527 116.064 194.403 116.301C193.278 116.538 184.112 123.759 184.095 124.317C184.078 124.875 185.6 125.932 186.852 125.306C188.103 124.681 196.745 119.725 196.745 119.725L199.527 119.818Z" fill="white" stroke="#263238" stroke-linecap="round" stroke-linejoin="round"/>
<path d="M207.239 136.139C204.237 135.699 203.476 131.776 202.089 129.831C200.702 127.886 195.274 123.464 195.274 123.464C195.274 123.464 189.109 126.279 187.587 126.668C186.065 127.057 185.592 126.263 185.05 125.916C184.509 125.569 187.367 123.54 189.278 122.373C191.189 121.206 195.874 118.694 195.874 118.694C196.14 118.484 196.457 118.348 196.793 118.3C197.129 118.253 197.471 118.295 197.785 118.424C198.766 118.897 204.778 122.652 204.778 122.652" fill="white"/>
<path d="M207.239 136.139C204.237 135.699 203.476 131.776 202.089 129.831C200.702 127.886 195.274 123.464 195.274 123.464C195.274 123.464 189.109 126.279 187.587 126.668C186.065 127.057 185.592 126.263 185.05 125.916C184.509 125.569 187.367 123.54 189.278 122.373C191.189 121.206 195.874 118.694 195.874 118.694C196.14 118.484 196.457 118.348 196.793 118.3C197.129 118.253 197.471 118.295 197.785 118.424C198.766 118.897 204.778 122.652 204.778 122.652" stroke="#263238" stroke-linecap="round" stroke-linejoin="round"/>
<path d="M244.724 116.428L246.83 135.538C246.83 135.538 235.837 135.716 235.11 135.538C234.382 135.361 234.805 144.679 234.349 147.377C233.74 150.137 232.977 152.861 232.065 155.537C232.065 155.537 233.672 156.687 240.116 155.621C246.559 154.556 251.514 154.175 252.25 154.015C252.986 153.854 264.824 155.9 269.23 155.317C273.635 154.733 273.339 153.076 273.255 149.964C273.17 146.852 270.456 135.217 269.289 131.708C268.122 128.199 262.456 100.717 262.118 99.9724C261.78 99.2283 246.204 96.4463 246.204 96.4463" fill="#A3A3A3"/>
<path d="M244.724 116.428L246.83 135.538C246.83 135.538 235.837 135.716 235.11 135.538C234.382 135.361 234.805 144.679 234.349 147.377C233.74 150.137 232.977 152.861 232.065 155.537C232.065 155.537 233.672 156.687 240.116 155.621C246.559 154.556 251.514 154.175 252.25 154.015C252.986 153.854 264.824 155.9 269.23 155.317C273.635 154.733 273.339 153.076 273.255 149.964C273.17 146.852 270.456 135.217 269.289 131.708C268.122 128.199 262.456 100.717 262.118 99.9724C261.78 99.2283 246.204 96.4463 246.204 96.4463" stroke="#263238" stroke-linecap="round" stroke-linejoin="round"/>
<path d="M246.83 135.54L264.08 134.288" stroke="#263238" stroke-linecap="round" stroke-linejoin="round"/>
<path d="M249.223 135.065L263.835 130.617" stroke="#263238" stroke-linecap="round" stroke-linejoin="round"/>
<path d="M250.313 150.235C250.212 150.793 250.085 151.36 249.941 151.927" stroke="#263238" stroke-linecap="round" stroke-linejoin="round"/>
<path d="M248.259 136.503C250.237 140.172 251.037 144.362 250.55 148.502" stroke="#263238" stroke-linecap="round" stroke-linejoin="round"/>
<path d="M240.59 152.35C240.583 152.605 240.5 152.852 240.353 153.06C240.205 153.268 239.999 153.427 239.761 153.517C239.522 153.608 239.263 153.625 239.014 153.568C238.766 153.51 238.541 153.38 238.366 153.194C238.192 153.008 238.077 152.774 238.036 152.523C237.995 152.271 238.03 152.013 238.136 151.781C238.242 151.549 238.414 151.354 238.631 151.221C238.849 151.087 239.1 151.021 239.355 151.031C239.693 151.044 240.012 151.19 240.243 151.437C240.474 151.684 240.599 152.012 240.59 152.35Z" stroke="#263238" stroke-linecap="round" stroke-linejoin="round"/>
<path d="M107.662 137.754C107.662 137.754 103.434 147.529 103.434 147.8C103.434 148.07 121.766 152.569 121.766 152.569L126.688 142.988L107.662 137.754Z" stroke="#263238" stroke-linecap="round" stroke-linejoin="round"/>
<path d="M148.081 106.407C148.081 106.407 141.891 100.319 138.441 100.488C134.991 100.657 129.926 102.881 126.822 107.768C123.719 112.656 105.623 137.61 105.623 137.61C105.623 137.61 111.475 142.151 116.793 143.605C122.112 145.059 133.063 146.455 133.063 146.455L146.33 116.859" fill="#263238"/>
<path d="M148.081 106.407C148.081 106.407 141.891 100.319 138.441 100.488C134.991 100.657 129.926 102.881 126.822 107.768C123.719 112.656 105.623 137.61 105.623 137.61C105.623 137.61 111.475 142.151 116.793 143.605C122.112 145.059 133.063 146.455 133.063 146.455L146.33 116.859" stroke="#263238" stroke-linecap="round" stroke-linejoin="round"/>
<path d="M106.038 143.427C103.881 144.645 100.964 155.951 101.911 157.862C102.858 159.773 107.467 160.517 109.598 160.001C111.729 159.485 155.7 145.119 155.7 145.119C155.7 145.119 159.463 144.89 163.124 144.273C166.786 143.656 169.043 142.125 174.481 142.066C179.918 142.007 183.782 142.852 184.45 142.751C185.118 142.649 185.879 142.1 185.456 140.789C185.034 139.478 180.721 138.252 179.317 137.999C177.914 137.745 174.531 137.255 172.916 136.375C171.301 135.496 170.151 131.107 170.295 130.456C170.439 129.805 174.328 122.127 174.328 122.127C174.328 122.127 180.4 123.505 181.567 123.547C182.734 123.59 184.459 122.862 184.56 122.118C184.662 121.374 185.27 120.689 184.391 119.996C181.261 117.993 178.026 116.159 174.7 114.499C174.007 114.356 166.794 115.531 165.974 115.616C165.154 115.7 164.35 118.262 163.344 120.233C162.338 122.203 156.292 134.329 156.292 134.329C156.292 134.329 151.666 135.707 151.218 135.809C150.77 135.91 108.346 142.125 108.346 142.125" fill="white"/>
<path d="M106.038 143.427C103.881 144.645 100.964 155.951 101.911 157.862C102.858 159.773 107.467 160.517 109.598 160.001C111.729 159.485 155.7 145.119 155.7 145.119C155.7 145.119 159.463 144.89 163.124 144.273C166.786 143.656 169.043 142.125 174.481 142.066C179.918 142.007 183.782 142.852 184.45 142.751C185.118 142.649 185.879 142.1 185.456 140.789C185.034 139.478 180.721 138.252 179.317 137.999C177.914 137.745 174.531 137.255 172.916 136.375C171.301 135.496 170.151 131.107 170.295 130.456C170.439 129.805 174.328 122.127 174.328 122.127C174.328 122.127 180.4 123.505 181.567 123.547C182.734 123.59 184.459 122.862 184.56 122.118C184.662 121.374 185.27 120.689 184.391 119.996C181.261 117.993 178.026 116.159 174.7 114.499C174.007 114.356 166.794 115.531 165.974 115.616C165.154 115.7 164.35 118.262 163.344 120.233C162.338 122.203 156.292 134.329 156.292 134.329C156.292 134.329 151.666 135.707 151.218 135.809C150.77 135.91 108.346 142.125 108.346 142.125" stroke="#263238" stroke-linecap="round" stroke-linejoin="round"/>
<path d="M166.777 119.608L172.105 118.373C172.105 118.373 177.804 120.064 178.869 120.479C179.935 120.893 182.455 122.246 183.512 122.17C184.569 122.094 184.484 121.138 184.028 120.893C183.571 120.648 175.03 115.887 174.092 115.625C173.17 115.412 172.235 115.263 171.293 115.177H168.942" fill="white"/>
<path d="M166.777 119.608L172.105 118.373C172.105 118.373 177.804 120.064 178.869 120.479C179.935 120.893 182.455 122.246 183.512 122.17C184.569 122.094 184.484 121.138 184.028 120.893C183.571 120.648 175.03 115.887 174.092 115.625C173.17 115.412 172.235 115.263 171.293 115.177H168.942" stroke="#263238" stroke-linecap="round" stroke-linejoin="round"/>
<path d="M165.619 129.56C165.619 129.56 163.928 135.377 162.236 136.73C161.053 137.579 159.649 138.063 158.194 138.125" stroke="#263238" stroke-linecap="round" stroke-linejoin="round"/>
<path d="M171.217 120.343L176.054 119.802" stroke="#263238" stroke-linecap="round" stroke-linejoin="round"/>
</svg>
