<svg width="40" height="41" viewBox="0 0 40 41" fill="none" xmlns="http://www.w3.org/2000/svg">
<rect x="0.5" y="1.21484" width="39" height="39" rx="19.5" stroke="url(#paint0_linear_1_31686)"/>
<path d="M17.3774 21.0924H22.6274C22.8337 21.0924 23.0024 20.9274 23.0024 20.7174V18.8424C23.0024 17.8636 22.5299 16.9899 21.7987 16.4424C21.3899 16.9899 20.7374 17.3424 20.0024 17.3424C19.2674 17.3424 18.6149 16.9899 18.2062 16.4424C17.4749 16.9899 17.0024 17.8636 17.0024 18.8424V20.7174C17.0024 20.9274 17.1712 21.0924 17.3774 21.0924Z" fill="url(#paint1_linear_1_31686)"/>
<path d="M19.9976 16.5908C20.826 16.5908 21.4976 15.9192 21.4976 15.0908C21.4976 14.2624 20.826 13.5908 19.9976 13.5908C19.1691 13.5908 18.4976 14.2624 18.4976 15.0908C18.4976 15.9192 19.1691 16.5908 19.9976 16.5908Z" fill="url(#paint2_linear_1_31686)"/>
<path d="M11.375 29.7148H28.625C28.8312 29.7148 29 29.5498 29 29.3398V12.0898C29 11.8836 28.8312 11.7148 28.625 11.7148H11.375C11.1687 11.7148 11 11.8836 11 12.0898V29.3398C11 29.5498 11.1687 29.7148 11.375 29.7148ZM16.25 18.8398C16.25 17.5686 16.8875 16.4436 17.855 15.7686C17.7875 15.5548 17.75 15.3261 17.75 15.0898C17.75 13.8486 18.7587 12.8398 20 12.8398C21.2413 12.8398 22.25 13.8486 22.25 15.0898C22.25 15.3261 22.2125 15.5548 22.145 15.7686C23.1125 16.4436 23.75 17.5686 23.75 18.8398V20.7148C23.75 21.3336 23.2437 21.8398 22.625 21.8398H17.375C16.7562 21.8398 16.25 21.3336 16.25 20.7148V18.8398ZM14 22.9648H26C26.2063 22.9648 26.375 23.1336 26.375 23.3398C26.375 23.5461 26.2063 23.7148 26 23.7148H14C13.7938 23.7148 13.625 23.5461 13.625 23.3398C13.625 23.1336 13.7938 22.9648 14 22.9648ZM14 25.5898H26C26.2063 25.5898 26.375 25.7586 26.375 25.9648C26.375 26.1711 26.2063 26.3398 26 26.3398H14C13.7938 26.3398 13.625 26.1711 13.625 25.9648C13.625 25.7586 13.7938 25.5898 14 25.5898Z" fill="url(#paint3_linear_1_31686)"/>
<defs>
<linearGradient id="paint0_linear_1_31686" x1="20" y1="-6.36953" x2="20" y2="40.7148" gradientUnits="userSpaceOnUse">
<stop stop-color="#FF007F"/>
<stop offset="1" stop-color="#A5147F"/>
</linearGradient>
<linearGradient id="paint1_linear_1_31686" x1="20.0024" y1="15.6188" x2="20.0024" y2="21.0924" gradientUnits="userSpaceOnUse">
<stop stop-color="#FF007F"/>
<stop offset="1" stop-color="#A5147F"/>
</linearGradient>
<linearGradient id="paint2_linear_1_31686" x1="19.9976" y1="13.0595" x2="19.9976" y2="16.5908" gradientUnits="userSpaceOnUse">
<stop stop-color="#FF007F"/>
<stop offset="1" stop-color="#A5147F"/>
</linearGradient>
<linearGradient id="paint3_linear_1_31686" x1="20" y1="8.52688" x2="20" y2="29.7148" gradientUnits="userSpaceOnUse">
<stop stop-color="#FF007F"/>
<stop offset="1" stop-color="#A5147F"/>
</linearGradient>
</defs>
</svg>
