<svg width="21" height="12" viewBox="0 0 21 12" fill="none" xmlns="http://www.w3.org/2000/svg">
<path d="M3.31661 5.09304C3.31661 3.32886 4.75245 1.89352 6.51663 1.89352H8.57624C9.28815 1.89352 9.97243 2.13456 10.5277 2.56509C11.0832 2.13456 11.7673 1.89352 12.4792 1.89352H14.5388C16.303 1.89352 17.7383 3.32886 17.7383 5.09304V5.30831H18.4692V1.56978C18.4692 0.703961 17.7648 -0.000488281 16.8983 -0.000488281H4.21463C3.34898 -0.000488281 2.64453 0.703961 2.64453 1.56978V5.30831H3.31661V5.09304Z" fill="#1B1B1B" fill-opacity="0.6"/>
<path d="M18.9773 6.17948C18.8946 6.16592 18.8186 6.16016 18.7407 6.16016H2.37121C2.29375 6.16016 2.21748 6.16592 2.14273 6.17846C1.37404 6.29372 0.800781 6.9602 0.800781 7.73008V10.8726H2.07849V12.0008H2.87565V10.8726H18.3068V12.0008H19.1034V10.8726H20.3116V7.73008C20.3116 6.9602 19.738 6.29372 18.9773 6.17948Z" fill="#1B1B1B" fill-opacity="0.6"/>
<path d="M8.57569 3.08643H6.51608C5.41126 3.08643 4.51172 3.98546 4.51172 5.09028V5.30554H10.5797V5.09028C10.5797 4.6055 10.4019 4.13666 10.0788 3.77053C9.69712 3.33492 9.1498 3.08643 8.57569 3.08643Z" fill="#1B1B1B" fill-opacity="0.6"/>
<path d="M16.5428 5.30554V5.09028C16.5428 3.98546 15.6438 3.08643 14.5386 3.08643H12.479C12.0617 3.08643 11.6598 3.21898 11.3242 3.45763C11.6178 3.94851 11.7758 4.51194 11.7758 5.09028V5.30554H16.5428Z" fill="#1B1B1B" fill-opacity="0.6"/>
</svg>
