<svg width="40" height="41" viewBox="0 0 40 41" fill="none" xmlns="http://www.w3.org/2000/svg">
<rect x="0.5" y="1.21484" width="39" height="39" rx="19.5" stroke="url(#paint0_linear_1_31663)"/>
<path d="M11.4224 27.3357C10.2172 26.0562 9.57007 24.6203 9.57007 22.2926C9.57007 18.1988 12.4438 14.5287 16.625 12.7148L17.6694 14.3265C13.7676 16.4376 13.005 19.1758 12.7002 20.9025C13.3284 20.5776 14.1508 20.4633 14.9569 20.5381C17.0678 20.7338 18.7315 22.4666 18.7315 24.6203C18.7315 26.8817 16.8983 28.7148 14.6369 28.7148C13.3816 28.7148 12.1812 28.141 11.4224 27.3357ZM23.1211 27.3357C21.9159 26.0562 21.2687 24.6203 21.2687 22.2926C21.2687 18.1988 24.1425 14.5287 28.3237 12.7148L29.368 14.3265C25.4662 16.4376 24.7036 19.1758 24.3988 20.9025C25.027 20.5776 25.8494 20.4633 26.6556 20.5381C28.7665 20.7338 30.4301 22.4666 30.4301 24.6203C30.4301 26.8817 28.597 28.7148 26.3356 28.7148C25.0802 28.7148 23.8798 28.141 23.1211 27.3357Z" fill="url(#paint1_linear_1_31663)"/>
<defs>
<linearGradient id="paint0_linear_1_31663" x1="20" y1="-6.36953" x2="20" y2="40.7148" gradientUnits="userSpaceOnUse">
<stop stop-color="#FF007F"/>
<stop offset="1" stop-color="#A5147F"/>
</linearGradient>
<linearGradient id="paint1_linear_1_31663" x1="20.0001" y1="9.88109" x2="20.0001" y2="28.7148" gradientUnits="userSpaceOnUse">
<stop stop-color="#FF007F"/>
<stop offset="1" stop-color="#A5147F"/>
</linearGradient>
</defs>
</svg>
