<svg width="18" height="19" viewBox="0 0 18 19" fill="none" xmlns="http://www.w3.org/2000/svg">
<path d="M6.77997 2.83237C6.50999 2.15742 5.85629 1.71484 5.12934 1.71484H2.68421C1.75405 1.71484 1 2.46871 1 3.39887C1 11.3053 7.40959 17.7148 15.316 17.7148C16.2461 17.7148 17 16.9607 17 16.0306L17.0004 13.585C17.0004 12.8581 16.558 12.2045 15.883 11.9345L13.5395 10.9975C12.9332 10.755 12.2429 10.8641 11.7413 11.2821L11.1365 11.7866C10.4301 12.3752 9.39079 12.3284 8.74062 11.6782L7.03754 9.97357C6.38737 9.3234 6.33932 8.28493 6.92796 7.57857L7.4323 6.97378C7.85033 6.47214 7.96044 5.78166 7.71793 5.17537L6.77997 2.83237Z" stroke="url(#paint0_linear_1_31676)" stroke-width="2" stroke-linecap="round" stroke-linejoin="round"/>
<defs>
<linearGradient id="paint0_linear_1_31676" x1="9.00021" y1="-1.11891" x2="9.00021" y2="17.7148" gradientUnits="userSpaceOnUse">
<stop stop-color="#FF007F"/>
<stop offset="1" stop-color="#A5147F"/>
</linearGradient>
</defs>
</svg>
