<svg width="15" height="16" viewBox="0 0 15 16" fill="none" xmlns="http://www.w3.org/2000/svg">
<path fill-rule="evenodd" clip-rule="evenodd" d="M9.66107 2.04395C12.1899 2.29851 14.2166 4.32243 14.476 6.8498H3.76765C4.027 4.32243 6.05375 2.29851 8.58254 2.04395C8.33667 1.66441 8.11277 1.262 8.11277 1.00903C8.11277 0.45169 8.56446 0 9.12181 0C9.67915 0 10.1308 0.451867 10.1308 1.00903C10.1308 1.262 9.90694 1.66423 9.66107 2.04395ZM1.95664 11.093L3.01229 15.0327C5.21508 14.6494 5.57175 15.7682 7.10693 14.9288L12.4145 12.0265C12.909 11.7558 12.8544 11.0919 12.2976 10.9669C12.1321 10.9297 11.9477 10.9512 11.7848 11.0402L8.32213 12.9313C8.22499 13.0341 8.10178 13.1228 7.95021 13.1906C7.36202 13.4544 6.3147 13.3924 4.66926 12.5553C4.55793 12.4988 4.51361 12.3626 4.57034 12.2513C4.62689 12.14 4.76304 12.0956 4.87436 12.1524C6.37657 12.9166 7.2858 12.9946 7.76638 12.7788C7.92912 12.7058 8.06704 12.5734 8.1227 12.4037C8.26505 11.9694 7.92415 11.3894 7.3755 11.3614C6.005 11.2915 5.34236 10.9175 4.82544 10.6257C4.25621 10.3043 3.89174 10.0987 2.69267 10.7149L1.95664 11.093ZM1.41348 10.8147L2.69959 15.6148C2.71714 15.6803 2.67796 15.7482 2.61255 15.7655L1.75348 15.9958C1.68807 16.0134 1.62018 15.9742 1.6028 15.9088L0.316693 11.1086C0.299143 11.0432 0.33832 10.9753 0.403733 10.9579L1.26279 10.7276C1.32821 10.7101 1.3961 10.7493 1.41348 10.8147ZM3.41967 8.38905H14.8239C14.8768 8.38905 14.9198 8.43213 14.9198 8.48496V8.75299C14.9198 9.17472 14.5747 9.51987 14.153 9.51987H4.09064C3.66891 9.51987 3.32376 9.17472 3.32376 8.75299V8.48496C3.32376 8.43213 3.36684 8.38905 3.41967 8.38905ZM9.12163 0.638003C8.9167 0.638003 8.75042 0.804107 8.75042 1.00921C8.75042 1.21414 8.91652 1.38042 9.12163 1.38042C9.32655 1.38042 9.49284 1.21431 9.49284 1.00921C9.49284 0.804107 9.32673 0.638003 9.12163 0.638003ZM14.5031 7.30237L14.5043 7.93666H3.73929L3.74053 7.30237H14.5031Z" fill="#1B1B1B" fill-opacity="0.6"/>
</svg>
