<svg width="13" height="16" viewBox="0 0 13 16" fill="none" xmlns="http://www.w3.org/2000/svg">
<path d="M3.5313 8.31614C3.0559 7.93676 2.4905 7.74608 1.92578 7.73407L2.52252 1.91533C2.63454 0.826533 3.55131 -0.000976562 4.64485 -0.000976562H8.15725C9.25071 -0.000976562 10.1674 0.826465 10.2796 1.91533L10.8763 7.73407C10.3116 7.74607 9.74618 7.93676 9.2708 8.31681C7.57859 9.66765 5.23544 9.67765 3.5313 8.31614Z" fill="#1B1B1B" fill-opacity="0.6"/>
<path d="M0.408001 9.23546C1.05141 8.42935 2.22616 8.29801 3.03164 8.94141C5.02919 10.5369 7.78682 10.5249 9.76986 8.94141C10.5753 8.29801 11.7502 8.42935 12.3935 9.23546C13.0369 10.0409 12.9056 11.2158 12.0995 11.8591C11.5814 12.2731 11.0307 12.6232 10.4573 12.9092L11.1787 15.3142C11.2634 15.5962 11.1033 15.8936 10.8213 15.9783C10.5393 16.063 10.2419 15.9029 10.1572 15.6209L9.47048 13.3313C7.48829 14.044 5.31936 14.0474 3.33102 13.332L2.64428 15.6209C2.5596 15.9029 2.26223 16.0629 1.9802 15.9783C1.69818 15.8936 1.53816 15.5962 1.62282 15.3142L2.34424 12.9099C1.7715 12.6238 1.22078 12.2738 0.702044 11.8591C-0.103395 11.2157 -0.235405 10.0409 0.408001 9.23546Z" fill="#1B1B1B" fill-opacity="0.6"/>
</svg>
