<svg width="40" height="41" viewBox="0 0 40 41" fill="none" xmlns="http://www.w3.org/2000/svg">
<rect x="0.5" y="1.21484" width="39" height="39" rx="19.5" stroke="url(#paint0_linear_1_31670)"/>
<path d="M29.7972 27.5209C28.6641 30.2376 26.0072 30.7137 25.1389 30.7137C24.884 30.7137 20.9134 30.9242 15.2057 25.5102C10.6123 21.1531 10.0511 16.4677 10.0022 15.5774C9.9546 14.7103 10.2029 12.5351 13.1952 10.9189C13.566 10.7186 14.301 10.6299 14.4909 10.8198C14.5751 10.904 17.0866 15.0368 17.1527 15.1738C17.2187 15.3105 17.2518 15.4452 17.2518 15.5772C17.2518 15.7659 17.1173 16.002 16.8481 16.2852C16.5792 16.5684 16.2867 16.828 15.9704 17.0638C15.6541 17.2999 15.3615 17.5499 15.0924 17.8142C14.8234 18.0783 14.6889 18.2957 14.6889 18.4655C14.7072 18.9063 15.0684 20.4851 17.8199 22.9029C20.572 25.3213 21.8977 26.0025 22.025 26.0497C22.1526 26.0968 22.2586 26.1201 22.3435 26.1201C22.5136 26.1201 22.7308 25.9859 22.995 25.7169C23.2591 25.4477 24.1476 24.2301 24.4307 23.9609C24.7139 23.6922 24.95 23.5577 25.1389 23.5577C25.271 23.5577 25.4054 23.5906 25.5421 23.6566C25.6791 23.7226 29.8172 26.1441 29.8964 26.225C30.1111 26.4451 29.9595 27.1319 29.7972 27.5209Z" fill="url(#paint1_linear_1_31670)" stroke="url(#paint2_linear_1_31670)"/>
<defs>
<linearGradient id="paint0_linear_1_31670" x1="20" y1="-6.36953" x2="20" y2="40.7148" gradientUnits="userSpaceOnUse">
<stop stop-color="#FF007F"/>
<stop offset="1" stop-color="#A5147F"/>
</linearGradient>
<linearGradient id="paint1_linear_1_31670" x1="19.9999" y1="7.17266" x2="19.9999" y2="30.7148" gradientUnits="userSpaceOnUse">
<stop stop-color="#FF007F"/>
<stop offset="1" stop-color="#A5147F"/>
</linearGradient>
<linearGradient id="paint2_linear_1_31670" x1="19.9999" y1="7.17266" x2="19.9999" y2="30.7148" gradientUnits="userSpaceOnUse">
<stop stop-color="#FF007F"/>
<stop offset="1" stop-color="#A5147F"/>
</linearGradient>
</defs>
</svg>
