<svg width="48" height="59" viewBox="0 0 48 59" fill="none" xmlns="http://www.w3.org/2000/svg">
<path d="M0 47.0173V55.5789C0 56.9735 1.13179 58.1053 2.52632 58.1053C3.92084 58.1053 5.05263 56.9735 5.05263 55.5789V47.0173C5.05263 38.1979 10.6156 30.4472 18.6493 27.7768C20.496 28.6712 22.5246 29.1663 24.6063 29.1663C27.1251 29.1663 29.5832 28.4792 31.6851 27.1958C36.0455 24.6038 38.7537 19.7709 38.7537 14.5844C38.7537 6.54316 32.4076 0 24.6063 0C16.8051 0 10.4589 6.54316 10.4589 14.5844C10.4589 18.1693 11.7752 21.5646 14.0059 24.1844C5.58568 28.3276 0 37.1621 0 47.0173ZM24.6063 5.05263C29.6211 5.05263 33.7011 9.32716 33.7011 14.5844C33.7011 18 31.9402 21.1655 29.0779 22.8682C26.4101 24.5002 22.8328 24.5128 20.1095 22.8531C17.2724 21.1655 15.5116 17.9975 15.5116 14.5844C15.5116 9.32716 19.5916 5.05263 24.6063 5.05263Z" fill="url(#paint0_linear_1_25645)"/>
<path d="M37.9695 50.6126C39.364 50.6126 40.4958 49.4808 40.4958 48.0863V42.8265H45.4727C46.8672 42.8265 47.999 41.6947 47.999 40.3002C47.999 38.9056 46.8672 37.7739 45.4727 37.7739H40.4958V32.5115C40.4958 31.117 39.364 29.9852 37.9695 29.9852C36.575 29.9852 35.4432 31.117 35.4432 32.5115V37.7739H30.4638C29.0693 37.7739 27.9375 38.9056 27.9375 40.3002C27.9375 41.6947 29.0693 42.8265 30.4638 42.8265H35.4432V48.0863C35.4432 49.4808 36.575 50.6126 37.9695 50.6126Z" fill="url(#paint1_linear_1_25645)"/>
<defs>
<linearGradient id="paint0_linear_1_25645" x1="19.3768" y1="-10.291" x2="19.3768" y2="58.1053" gradientUnits="userSpaceOnUse">
<stop stop-color="#FF007F"/>
<stop offset="1" stop-color="#A5147F"/>
</linearGradient>
<linearGradient id="paint1_linear_1_25645" x1="37.9682" y1="26.3319" x2="37.9682" y2="50.6126" gradientUnits="userSpaceOnUse">
<stop stop-color="#FF007F"/>
<stop offset="1" stop-color="#A5147F"/>
</linearGradient>
</defs>
</svg>
