<svg width="40" height="41" viewBox="0 0 40 41" fill="none" xmlns="http://www.w3.org/2000/svg">
<rect x="0.5" y="1.21484" width="39" height="39" rx="19.5" stroke="url(#paint0_linear_1_31791)"/>
<path fill-rule="evenodd" clip-rule="evenodd" d="M27.5509 21.4178V30.6851C27.5509 31.2396 27.0757 31.7148 26.5212 31.7148H13.4519C12.8975 31.7148 12.4222 31.2396 12.4222 30.6851V21.497H10.2836C9.3331 21.497 8.93706 20.4673 9.57073 19.8337L19.3925 10.0119C19.7885 9.61583 20.4222 9.61583 20.8183 10.0119L30.4816 19.6752C31.0361 20.3089 30.64 21.4178 29.7687 21.4178H27.5509ZM23.2737 28.3089V21.497H16.6994V28.3089H23.2737Z" fill="url(#paint1_linear_1_31791)"/>
<defs>
<linearGradient id="paint0_linear_1_31791" x1="20" y1="-6.36953" x2="20" y2="40.7148" gradientUnits="userSpaceOnUse">
<stop stop-color="#FF007F"/>
<stop offset="1" stop-color="#A5147F"/>
</linearGradient>
<linearGradient id="paint1_linear_1_31791" x1="20.0001" y1="5.81844" x2="20.0001" y2="31.7148" gradientUnits="userSpaceOnUse">
<stop stop-color="#FF007F"/>
<stop offset="1" stop-color="#A5147F"/>
</linearGradient>
</defs>
</svg>
