<svg width="22" height="22" viewBox="0 0 22 22" fill="none" xmlns="http://www.w3.org/2000/svg">
<path d="M8.46338 21.2297V14.2472H6.29862V11.0386H8.46338V9.65607C8.46338 6.0817 10.0804 4.42532 13.5891 4.42532C13.94 4.42532 14.4248 4.46207 14.8736 4.51545C15.2098 4.55005 15.5434 4.60705 15.872 4.68607V7.59545C15.682 7.57773 15.4914 7.56722 15.3006 7.56395C15.0869 7.5584 14.8731 7.55578 14.6592 7.55607C14.0406 7.55607 13.5576 7.64007 13.1936 7.82645C12.9489 7.94922 12.7432 8.13767 12.5995 8.3707C12.3737 8.7382 12.2723 9.24132 12.2723 9.9037V11.0386H15.7014L15.3636 12.8787L15.1125 14.2472H12.2723V21.4616C17.4715 20.8333 21.5 16.4067 21.5 11.0386C21.5 5.23995 16.7986 0.538574 11 0.538574C5.20138 0.538574 0.5 5.23995 0.5 11.0386C0.5 15.9631 3.88975 20.0948 8.46338 21.2297Z" fill="url(#paint0_linear_1_26418)"/>
<defs>
<linearGradient id="paint0_linear_1_26418" x1="11" y1="-3.16708" x2="11" y2="21.4616" gradientUnits="userSpaceOnUse">
<stop stop-color="#FF007F"/>
<stop offset="1" stop-color="#A5147F"/>
</linearGradient>
</defs>
</svg>
