<svg width="64" height="58" viewBox="0 0 64 58" fill="none" xmlns="http://www.w3.org/2000/svg">
<path d="M23.5493 2.83522L18.9317 4.07328L15.9785 1.24225L20.4888 0.0330811L23.5493 2.83522Z" fill="url(#paint0_linear_1_25674)"/>
<path d="M14.4064 1.66321L17.3554 4.49424L11.127 6.16149L12.2669 2.23684L14.4064 1.66321Z" fill="url(#paint1_linear_1_25674)"/>
<path d="M10.6892 2.65771L9.54927 6.58649L4.93164 7.82042L6.17898 3.86689L10.6892 2.65771Z" fill="url(#paint2_linear_1_25674)"/>
<path d="M9.82058 7.95667L13.9921 13.9035C13.765 13.9901 13.5378 14.0809 13.3148 14.1758L5.56641 9.09568L9.82058 7.95667Z" fill="url(#paint3_linear_1_25674)"/>
<path d="M17.9493 5.77759L17.3174 12.9006C16.9869 12.9748 16.6606 13.0532 16.3344 13.1399C16.0081 13.2266 15.6818 13.3215 15.3596 13.4247L11.25 7.57277L17.9493 5.77759Z" fill="url(#paint4_linear_1_25674)"/>
<path d="M23.6365 4.25488L19.465 12.5251C19.2254 12.5581 18.9817 12.5911 18.7422 12.6283L19.3824 5.3939L23.6365 4.25488Z" fill="url(#paint5_linear_1_25674)"/>
<path d="M54.1796 7.92358L58.4296 9.0626L50.6813 14.1386C50.4582 14.0437 50.2311 13.9529 50.0039 13.8663L54.1796 7.92358Z" fill="url(#paint6_linear_1_25674)"/>
<path d="M57.823 3.8338L59.0703 7.78734L54.4527 6.54928L53.3086 2.62463L57.823 3.8338Z" fill="url(#paint7_linear_1_25674)"/>
<path d="M51.735 2.20388L52.8749 6.12853L46.6465 4.46128L49.5955 1.63025L51.735 2.20388Z" fill="url(#paint8_linear_1_25674)"/>
<path d="M48.0219 1.20917L45.0688 4.0402L40.4512 2.80214L43.5117 0L48.0219 1.20917Z" fill="url(#paint9_linear_1_25674)"/>
<path d="M44.6192 5.36082L45.2594 12.5952C45.0198 12.5581 44.7761 12.5209 44.5366 12.492L40.3691 4.2218L44.6192 5.36082Z" fill="url(#paint10_linear_1_25674)"/>
<path d="M52.7462 7.53969L48.6366 13.3916C48.3144 13.2884 47.9922 13.1976 47.6618 13.111C47.3314 13.0243 47.0051 12.9418 46.6788 12.8675L46.0469 5.74451L52.7462 7.53969Z" fill="url(#paint11_linear_1_25674)"/>
<path d="M47.3026 14.4565C59.0987 17.6135 66.1242 29.7712 62.9604 41.5576C60.3129 51.4331 51.342 57.9618 41.5657 57.9618C39.674 57.9618 37.7535 57.7184 35.8411 57.2066C34.6392 56.8847 33.4662 56.4638 32.3428 55.9521C32.3387 55.9479 32.3304 55.9479 32.3263 55.9438C32.3263 55.9438 32.3222 55.9438 32.3222 55.9397C30.1786 54.9575 28.2167 53.6451 26.4902 52.0398C26.4902 52.0398 26.4902 52.0357 26.4861 52.0357C20.4724 46.4355 18.0562 38.0332 20.1833 30.1055C21.2242 26.218 23.2934 22.7061 26.1722 19.9287C27.7252 20.296 29.2203 20.8902 30.6164 21.695C30.6535 21.7156 30.6907 21.7404 30.7279 21.761C29.3277 22.834 28.1052 24.0968 27.085 25.5288C25.8583 27.2497 24.9579 29.1728 24.4045 31.2363C23.1778 35.8171 23.8056 40.6001 26.1805 44.7105C27.5476 47.0793 29.3773 49.0437 31.6159 50.5541C31.6283 50.5624 31.6365 50.5706 31.6489 50.5748C33.2721 51.6643 35.0605 52.4731 36.9728 52.9848C37.2743 53.0633 37.5882 53.1417 37.9021 53.2077C37.9063 53.2077 37.9063 53.2077 37.9104 53.2077C39.133 53.4677 40.3679 53.5956 41.5987 53.5956C42.5198 53.5956 43.4408 53.5213 44.3577 53.3769C46.5014 53.0385 48.5541 52.308 50.4623 51.2062C54.5719 48.8332 57.5126 45.0076 58.7435 40.4227C59.9743 35.8419 59.3423 31.0588 56.9674 26.9485C54.5925 22.8422 50.7597 19.9039 46.1751 18.6741C43.5647 17.9767 40.814 17.8776 38.1954 18.3852C36.8035 17.1348 35.2753 16.0577 33.6315 15.1704C37.9765 13.5032 42.7759 13.2432 47.3026 14.4565Z" fill="url(#paint12_linear_1_25674)"/>
<path d="M43.8214 30.1343C45.9072 37.9134 43.6149 46.163 37.8408 51.759C37.6714 51.7178 37.5021 51.6765 37.3369 51.6311C35.8996 51.2473 34.5366 50.6778 33.2727 49.9391C35.1107 48.5277 36.6389 46.782 37.8201 44.7351C40.195 40.6289 40.8228 35.8417 39.5961 31.2609C39.0386 29.1851 38.1299 27.2537 36.895 25.5287C35.6641 23.8078 34.1442 22.3345 32.3764 21.1418C32.3723 21.1377 32.3682 21.1377 32.3641 21.1336C32.0254 20.9066 31.6743 20.6879 31.315 20.4774C29.6835 19.5365 27.9323 18.8597 26.1067 18.4759C26.1026 18.4759 26.1026 18.4759 26.0984 18.4759C23.356 17.894 20.5722 17.9724 17.8297 18.707C13.2451 19.9327 9.41219 22.871 7.03729 26.9813C4.66239 31.0876 4.03459 35.8747 5.26128 40.4556C6.4921 45.0364 9.43284 48.8661 13.5425 51.2391C15.4548 52.3451 17.5199 53.0755 19.6759 53.4139C20.5804 53.5542 21.4932 53.6285 22.406 53.6285C23.5418 53.6285 24.6776 53.5171 25.8052 53.2984C27.1971 54.5529 28.7253 55.6342 30.3691 56.5214C29.6463 56.7979 28.9112 57.0373 28.1595 57.2354C22.4473 58.7664 16.4791 57.9823 11.3534 55.0234C6.23189 52.0685 2.56422 47.2979 1.03602 41.5863C-2.12363 29.8 4.90195 17.6423 16.6938 14.4852C21.6708 13.1522 26.9823 13.6021 31.6537 15.7439C31.6619 15.748 31.6702 15.7522 31.6784 15.7563C33.8179 16.7385 35.7757 18.0467 37.498 19.6479L37.5021 19.652C40.5585 22.4789 42.7393 26.1023 43.8214 30.1343Z" fill="url(#paint13_linear_1_25674)"/>
<defs>
<linearGradient id="paint0_linear_1_25674" x1="19.7639" y1="-0.682476" x2="19.7639" y2="4.07328" gradientUnits="userSpaceOnUse">
<stop stop-color="#FF007F"/>
<stop offset="1" stop-color="#A5147F"/>
</linearGradient>
<linearGradient id="paint1_linear_1_25674" x1="14.2412" y1="0.86652" x2="14.2412" y2="6.16149" gradientUnits="userSpaceOnUse">
<stop stop-color="#FF007F"/>
<stop offset="1" stop-color="#A5147F"/>
</linearGradient>
<linearGradient id="paint2_linear_1_25674" x1="7.81043" y1="1.74335" x2="7.81043" y2="7.82042" gradientUnits="userSpaceOnUse">
<stop stop-color="#FF007F"/>
<stop offset="1" stop-color="#A5147F"/>
</linearGradient>
<linearGradient id="paint3_linear_1_25674" x1="9.77927" y1="6.85519" x2="9.77927" y2="14.1758" gradientUnits="userSpaceOnUse">
<stop stop-color="#FF007F"/>
<stop offset="1" stop-color="#A5147F"/>
</linearGradient>
<linearGradient id="paint4_linear_1_25674" x1="14.5996" y1="4.42322" x2="14.5996" y2="13.4247" gradientUnits="userSpaceOnUse">
<stop stop-color="#FF007F"/>
<stop offset="1" stop-color="#A5147F"/>
</linearGradient>
<linearGradient id="paint5_linear_1_25674" x1="21.1894" y1="2.77187" x2="21.1894" y2="12.6283" gradientUnits="userSpaceOnUse">
<stop stop-color="#FF007F"/>
<stop offset="1" stop-color="#A5147F"/>
</linearGradient>
<linearGradient id="paint6_linear_1_25674" x1="54.2168" y1="6.82284" x2="54.2168" y2="14.1386" gradientUnits="userSpaceOnUse">
<stop stop-color="#FF007F"/>
<stop offset="1" stop-color="#A5147F"/>
</linearGradient>
<linearGradient id="paint7_linear_1_25674" x1="56.1895" y1="1.71027" x2="56.1895" y2="7.78734" gradientUnits="userSpaceOnUse">
<stop stop-color="#FF007F"/>
<stop offset="1" stop-color="#A5147F"/>
</linearGradient>
<linearGradient id="paint8_linear_1_25674" x1="49.7607" y1="0.833561" x2="49.7607" y2="6.12853" gradientUnits="userSpaceOnUse">
<stop stop-color="#FF007F"/>
<stop offset="1" stop-color="#A5147F"/>
</linearGradient>
<linearGradient id="paint9_linear_1_25674" x1="44.2366" y1="-0.715557" x2="44.2366" y2="4.0402" gradientUnits="userSpaceOnUse">
<stop stop-color="#FF007F"/>
<stop offset="1" stop-color="#A5147F"/>
</linearGradient>
<linearGradient id="paint10_linear_1_25674" x1="42.8143" y1="2.73879" x2="42.8143" y2="12.5952" gradientUnits="userSpaceOnUse">
<stop stop-color="#FF007F"/>
<stop offset="1" stop-color="#A5147F"/>
</linearGradient>
<linearGradient id="paint11_linear_1_25674" x1="49.3965" y1="4.39014" x2="49.3965" y2="13.3916" gradientUnits="userSpaceOnUse">
<stop stop-color="#FF007F"/>
<stop offset="1" stop-color="#A5147F"/>
</linearGradient>
<linearGradient id="paint12_linear_1_25674" x1="41.5713" y1="5.86363" x2="41.5713" y2="57.9618" gradientUnits="userSpaceOnUse">
<stop stop-color="#FF007F"/>
<stop offset="1" stop-color="#A5147F"/>
</linearGradient>
<linearGradient id="paint13_linear_1_25674" x1="22.4293" y1="5.89281" x2="22.4293" y2="57.9999" gradientUnits="userSpaceOnUse">
<stop stop-color="#FF007F"/>
<stop offset="1" stop-color="#A5147F"/>
</linearGradient>
</defs>
</svg>
