<svg width="40" height="41" viewBox="0 0 40 41" fill="none" xmlns="http://www.w3.org/2000/svg">
<rect x="0.5" y="1.21484" width="39" height="39" rx="19.5" stroke="url(#paint0_linear_1_31889)"/>
<path d="M25.3714 14.672L26.7143 13.3244C26.9476 13.5387 27.1905 13.7625 27.3904 14.0006L26.0428 15.3434C25.8238 15.1149 25.6 14.8911 25.3714 14.672ZM15.3714 14.0768C16.7249 13.1281 18.3377 12.6192 19.9905 12.6192C21.6433 12.6192 23.256 13.1281 24.6095 14.0768L25.9762 12.7149C24.2542 11.4169 22.1564 10.7148 20 10.7148C17.8436 10.7148 15.7458 11.4169 14.0238 12.7149L15.3714 14.0768ZM26.0428 26.0863C25.8238 26.3148 25.6 26.5386 25.3714 26.7577L26.7143 28.1053C26.9476 27.891 27.1905 27.6672 27.3904 27.4291L26.0428 26.0863ZM28 14.7387L26.6381 16.0958C27.5867 17.4493 28.0956 19.062 28.0956 20.7148C28.0956 22.3677 27.5867 23.9804 26.6381 25.3339L28 26.691C29.2979 24.969 30 22.8712 30 20.7148C30 18.5585 29.2979 16.4607 28 14.7387ZM13.9572 26.0863L12.6095 27.4291C12.8238 27.6672 13.0524 27.9053 13.2857 28.1053L14.6286 26.7577C14.4 26.5386 14.1762 26.3148 13.9572 26.0863ZM24.619 27.3529C23.2656 28.3016 21.6528 28.8105 20 28.8105C18.3472 28.8105 16.7344 28.3016 15.381 27.3529L14.0238 28.7148C15.7458 30.0128 17.8436 30.7148 20 30.7148C22.1564 30.7148 24.2542 30.0128 25.9762 28.7148L24.619 27.3529ZM13.3619 25.3339C12.4133 23.9804 11.9044 22.3677 11.9044 20.7148C11.9044 19.062 12.4133 17.4493 13.3619 16.0958L12 14.7387C10.7021 16.4607 10 18.5585 10 20.7148C10 22.8712 10.7021 24.969 12 26.691L13.3619 25.3339ZM13.9572 15.3339C14.1762 15.1117 14.4 14.8911 14.6286 14.672L13.2857 13.3244C13.0524 13.5387 12.8095 13.7625 12.6095 14.0006L13.9572 15.3339ZM23.7762 21.191H22.8238C22.724 21.7764 22.4443 22.3161 22.0235 22.7351C21.6028 23.1541 21.0619 23.4317 20.4762 23.5291V24.4815C21.3129 24.3757 22.0908 23.9952 22.688 23.3997C23.2852 22.8042 23.6679 22.0274 23.7762 21.191ZM19.5238 17.9006V16.9482C18.6871 17.054 17.9092 17.4345 17.312 18.03C16.7148 18.6255 16.3321 19.4023 16.2238 20.2387H17.1762C17.276 19.6533 17.5557 19.1136 17.9765 18.6946C18.3972 18.2755 18.9381 17.998 19.5238 17.9006ZM21.9048 20.7148C21.9048 20.3381 21.793 19.9699 21.5837 19.6566C21.3744 19.3434 21.077 19.0992 20.7289 18.9551C20.3809 18.8109 19.9979 18.7732 19.6284 18.8467C19.2589 18.9202 18.9195 19.1016 18.6531 19.368C18.3867 19.6344 18.2053 19.9738 18.1318 20.3432C18.0583 20.7127 18.0961 21.0957 18.2402 21.4438C18.3844 21.7918 18.6285 22.0893 18.9418 22.2986C19.255 22.5079 19.6233 22.6196 20 22.6196C20.5052 22.6196 20.9897 22.4189 21.3469 22.0617C21.7041 21.7045 21.9048 21.22 21.9048 20.7148ZM19.5238 24.491V23.5386C18.9385 23.4388 18.3988 23.1591 17.9797 22.7384C17.5607 22.3176 17.2832 21.7768 17.1857 21.191H16.2333C16.3392 22.0277 16.7196 22.8056 17.3151 23.4029C17.9106 24.0001 18.6874 24.3828 19.5238 24.491ZM20.4762 15.9768C21.5771 16.0823 22.6069 16.5677 23.3889 17.3498C24.1709 18.1318 24.6563 19.1616 24.7619 20.2625H27.1428C27.0308 18.5311 26.2924 16.8998 25.0657 15.673C23.8389 14.4462 22.2075 13.7079 20.4762 13.5958V15.9768ZM20.4762 16.9291V17.8815C21.0629 17.9819 21.6036 18.263 22.0227 18.6856C22.4419 19.1082 22.7186 19.6512 22.8143 20.2387H23.7667C23.6608 19.402 23.2804 18.624 22.6849 18.0268C22.0894 17.4296 21.3126 17.0469 20.4762 16.9387V16.9291ZM19.5238 25.4767C18.4272 25.366 17.403 24.8782 16.6258 24.0967C15.8486 23.3152 15.3666 22.2882 15.2619 21.191H12.881C12.9924 22.9185 13.7274 24.5468 14.9492 25.773C16.1711 26.9993 17.7967 27.7401 19.5238 27.8577V25.4767ZM24.7619 21.191C24.6563 22.2919 24.1709 23.3217 23.3889 24.1037C22.6069 24.8858 21.5771 25.3712 20.4762 25.4767V27.8577C22.2075 27.7456 23.8389 27.0073 25.0657 25.7805C26.2924 24.5537 27.0308 22.9224 27.1428 21.191H24.7619ZM15.2857 20.2387C15.3965 19.142 15.8842 18.1178 16.6657 17.3406C17.4473 16.5634 18.4742 16.0814 19.5714 15.9768V13.5958C17.8397 13.7017 16.2057 14.4342 14.9745 15.6566C13.7434 16.879 12.9992 18.5077 12.881 20.2387H15.2857Z" fill="url(#paint1_linear_1_31889)"/>
<defs>
<linearGradient id="paint0_linear_1_31889" x1="20" y1="-6.36953" x2="20" y2="40.7148" gradientUnits="userSpaceOnUse">
<stop stop-color="#FF007F"/>
<stop offset="1" stop-color="#A5147F"/>
</linearGradient>
<linearGradient id="paint1_linear_1_31889" x1="20" y1="7.17266" x2="20" y2="30.7148" gradientUnits="userSpaceOnUse">
<stop stop-color="#FF007F"/>
<stop offset="1" stop-color="#A5147F"/>
</linearGradient>
</defs>
</svg>
