<svg width="20" height="20" viewBox="0 0 20 20" fill="none" xmlns="http://www.w3.org/2000/svg">
<path d="M11.0275 0C12.1529 0.00186006 12.7233 0.00782029 13.2161 0.0224908L13.4102 0.028831C13.6344 0.0368013 13.8556 0.0468015 14.1223 0.059302C15.1864 0.108474 15.9124 0.276809 16.5499 0.524318C17.209 0.778496 17.7657 1.12184 18.3215 1.6777C18.8766 2.23355 19.22 2.79189 19.475 3.44942C19.7216 4.08611 19.89 4.8128 19.94 5.877C19.9519 6.14368 19.9615 6.36489 19.9694 6.58913L19.9757 6.78323C19.9903 7.27599 19.997 7.8464 19.9991 8.97188L19.9999 9.7175C20 9.80861 20 9.90261 20 9.99961L19.9999 10.2817L19.9993 11.0274C19.9974 12.1529 19.9915 12.7233 19.9768 13.216L19.9704 13.4101C19.9625 13.6344 19.9525 13.8556 19.94 14.1223C19.8908 15.1865 19.7216 15.9123 19.475 16.5498C19.2208 17.2091 18.8766 17.7658 18.3215 18.3216C17.7657 18.8766 17.2065 19.2199 16.5499 19.4749C15.9124 19.7216 15.1864 19.8899 14.1223 19.9399C13.8556 19.9519 13.6344 19.9615 13.4102 19.9694L13.2161 19.9757C12.7233 19.9904 12.1529 19.997 11.0275 19.9992L10.2818 20C10.1907 20 10.0967 20 9.99966 20H9.71755L8.97183 19.9993C7.84639 19.9975 7.27599 19.9915 6.78322 19.9768L6.58913 19.9705C6.36488 19.9625 6.14367 19.9524 5.877 19.9399C4.81279 19.8908 4.08777 19.7216 3.44942 19.4749C2.79106 19.2208 2.23354 18.8766 1.67769 18.3216C1.12184 17.7658 0.779327 17.2066 0.524318 16.5498C0.27681 15.9123 0.109304 15.1865 0.0593022 14.1223C0.0474218 13.8556 0.0377313 13.6344 0.0298811 13.4101L0.0235909 13.216C0.00896039 12.7233 0.00229025 12.1529 0.000130181 11.0274L0 8.97188C0.00186006 7.8464 0.00781028 7.27599 0.0224808 6.78323L0.028831 6.58913C0.0368013 6.36489 0.0468018 6.14368 0.0593022 5.877C0.108464 4.81196 0.27681 4.08694 0.524318 3.44942C0.778487 2.79106 1.12184 2.23355 1.67769 1.6777C2.23354 1.12184 2.7919 0.779326 3.44942 0.524318C4.08694 0.276809 4.81196 0.109304 5.877 0.059302C6.14367 0.0474316 6.36488 0.0377413 6.58913 0.0298911L6.78322 0.0236007C7.27599 0.00896017 7.84639 0.00229002 8.97183 0.000129943L11.0275 0ZM9.99966 4.99947C7.23665 4.99947 4.99947 7.23908 4.99947 9.99961C4.99947 12.7626 7.23908 14.9998 9.99966 14.9998C12.7627 14.9998 14.9998 12.7602 14.9998 9.99961C14.9998 7.23665 12.7602 4.99947 9.99966 4.99947ZM9.99966 6.99954C11.6566 6.99954 12.9998 8.34225 12.9998 9.99961C12.9998 11.6566 11.657 12.9997 9.99966 12.9997C8.34271 12.9997 6.99954 11.6571 6.99954 9.99961C6.99954 8.34265 8.34221 6.99954 9.99966 6.99954ZM15.2498 3.49942C14.5605 3.49942 13.9998 4.05935 13.9998 4.74861C13.9998 5.43789 14.5597 5.99867 15.2498 5.99867C15.9391 5.99867 16.4999 5.43876 16.4999 4.74861C16.4999 4.05935 15.9382 3.49856 15.2498 3.49942Z" fill="url(#paint0_linear_1_26424)"/>
<defs>
<linearGradient id="paint0_linear_1_26424" x1="10" y1="-3.54218" x2="10" y2="20" gradientUnits="userSpaceOnUse">
<stop stop-color="#FF007F"/>
<stop offset="1" stop-color="#A5147F"/>
</linearGradient>
</defs>
</svg>
