<svg width="40" height="41" viewBox="0 0 40 41" fill="none" xmlns="http://www.w3.org/2000/svg">
<rect x="0.5" y="1.21484" width="39" height="39" rx="19.5" stroke="url(#paint0_linear_1_31958)"/>
<path d="M13.3074 20.2153C13.7736 18.2837 14.5951 14.8645 15.0614 12.9328C15.0836 12.7996 15.1946 12.6886 15.3278 12.6664L17.6147 12.0669L17.8367 12.7774L15.7275 13.3325C15.2834 15.1531 14.5063 18.3947 14.0623 20.2153C13.7958 20.1709 13.5516 20.1709 13.3074 20.2153ZM18.4806 18.9498C20.2346 17.8618 22.0775 17.6398 23.6761 17.8396C23.7649 17.3068 24.0979 16.8627 24.6974 16.8849C24.6752 16.6185 24.6752 16.352 24.7196 16.1078C24.4976 15.3085 23.4541 15.1753 22.8324 15.7304C22.788 15.7748 22.7214 15.797 22.6548 15.797C22.5881 15.797 22.5215 15.7526 22.4771 15.7082C22.2329 15.3751 21.8555 15.1975 21.5446 15.2641C20.9673 15.3973 20.7231 16.1744 20.9229 16.7073C20.9895 16.9293 20.7231 17.1069 20.5455 16.9737C19.9238 16.5297 19.0135 16.9293 19.0801 17.8618C19.1023 17.9729 19.0135 18.0839 18.9025 18.1283C18.5472 18.1727 18.303 18.6167 18.4806 18.9498ZM24.4532 17.4178C24.0313 17.662 24.0979 18.5057 24.2756 18.9498C24.3644 19.1052 24.32 19.3272 24.1201 19.3716C23.01 19.5715 23.3652 21.0146 23.8315 21.7029H26.2294L26.6513 20.4596L25.8964 17.4844C25.852 17.3512 25.9408 17.218 26.074 17.1958C26.2072 17.1513 26.3404 17.2402 26.3626 17.3734L26.9177 19.6159L27.5172 17.8174L27.2063 16.2854C27.1397 15.9746 27.6282 15.8636 27.6948 16.1966L27.8502 16.9071L28.2277 15.797C28.3165 15.4861 28.7827 15.6416 28.6939 15.9524L27.7836 18.6833L29.6709 17.9284C29.9595 17.8174 30.1371 18.2615 29.8485 18.3725L27.5838 19.2606L26.7623 21.7029H28.8938C29.5376 21.5253 29.9817 21.0368 29.9817 20.5706C29.9817 20.4596 29.9595 20.2597 29.7597 20.0377C29.6709 19.9267 29.6931 19.7491 29.8041 19.6825C30.8032 18.972 31.1584 18.0839 30.9364 17.662C30.892 17.5732 30.7588 17.4178 30.4036 17.3068C30.3369 17.2846 30.2925 17.2402 30.2481 17.1736C30.2259 17.1069 30.2259 17.0403 30.2481 16.9737C30.4924 16.3742 30.448 15.797 30.1371 15.5083C30.0483 15.4195 29.9151 15.3751 29.7819 15.3307C29.6265 15.3085 29.5376 15.1309 29.6042 14.9755C30.0039 14.0429 28.8494 13.3769 28.3387 14.3316C28.2721 14.4648 28.1167 14.5092 27.9834 14.4204C27.9168 14.376 27.6726 14.2428 27.4062 14.3094C27.1175 14.3982 26.8955 14.6868 26.8955 15.0421C26.8955 15.2197 26.6735 15.3529 26.5181 15.2419C25.3413 14.5314 25.0083 16.2188 25.1859 17.0847C25.2303 17.2624 25.0305 17.4178 24.875 17.3512C24.764 17.3512 24.5198 17.3512 24.4532 17.4178ZM22.9878 19.7269C22.7658 20.3708 22.9656 21.0813 23.2542 21.6807H16.4158C17.9255 19.1496 21.0784 17.9062 23.6539 18.3281C23.6761 18.5279 23.6983 18.75 23.7649 18.9498C23.3875 19.0608 23.121 19.3494 22.9878 19.7269ZM18.1698 20.3486C17.7923 20.3486 17.8145 20.9036 18.1698 20.9036C18.5472 20.9036 18.5472 20.3708 18.1698 20.3486ZM20.0348 20.8148C19.6796 20.8148 19.6574 21.3699 20.0348 21.3699C20.4123 21.3699 20.4123 20.8148 20.0348 20.8148ZM20.4123 19.194C20.0348 19.194 20.057 19.7491 20.4123 19.7491C20.7675 19.7491 20.7675 19.194 20.4123 19.194ZM22.1663 20.5484C21.7888 20.5484 21.811 21.1035 22.1663 21.1035C22.5215 21.0813 22.5215 20.5484 22.1663 20.5484ZM22.2551 18.6389C21.8777 18.6389 21.8777 19.194 22.2551 19.194C22.6103 19.194 22.6103 18.6389 22.2551 18.6389ZM19.0579 28.1862C19.2133 28.275 19.1911 28.5414 19.0357 28.608C18.7248 28.7634 18.525 29.0299 18.4584 29.3407H27.6282C27.5616 29.0299 27.3396 28.7634 27.0509 28.608C26.9621 28.5636 26.9177 28.497 26.9177 28.4082C26.9177 28.3194 26.9621 28.2306 27.0287 28.1862C29.1158 26.854 30.3813 24.6115 30.4702 22.1692H15.6387C15.6831 24.5893 17.0152 26.8762 19.0579 28.1862ZM15.3722 21.6807H15.8385C15.9273 21.5253 16.0383 21.3477 16.1493 21.1923C14.9504 21.3255 14.4841 20.5928 13.4628 20.6816C12.286 20.837 11.9752 22.258 10.5986 21.9472C10.2212 21.8806 9.84371 21.6363 9.53287 21.3477L10.3988 28.7634C10.4432 29.0965 10.7318 29.3629 11.0649 29.3629H15.8163C16.1493 29.3629 16.438 29.1187 16.4824 28.7634L16.7266 26.6764C15.8163 25.4552 15.2612 23.9898 15.1502 22.48C15.1724 22.2136 14.9948 21.7029 15.3722 21.6807ZM10.9983 21.5031C11.7532 21.4809 12.0862 20.7038 12.7523 20.4152L13.6182 16.7739H9.15542C9.04441 16.7961 9 16.8405 9 16.9515L9.42185 20.5484C9.82151 21.0146 10.3322 21.5031 10.9983 21.5031ZM15.3944 16.7517L14.5285 20.3264C15.0836 20.5928 15.8163 20.8148 16.5712 20.615C16.882 20.2597 17.1929 19.9267 17.5481 19.6159L17.8589 16.9293C17.8589 16.8183 17.8145 16.7739 17.7035 16.7517H15.3944Z" fill="url(#paint1_linear_1_31958)"/>
<defs>
<linearGradient id="paint0_linear_1_31958" x1="20" y1="-6.36953" x2="20" y2="40.7148" gradientUnits="userSpaceOnUse">
<stop stop-color="#FF007F"/>
<stop offset="1" stop-color="#A5147F"/>
</linearGradient>
<linearGradient id="paint1_linear_1_31958" x1="20" y1="9.00361" x2="20" y2="29.3629" gradientUnits="userSpaceOnUse">
<stop stop-color="#FF007F"/>
<stop offset="1" stop-color="#A5147F"/>
</linearGradient>
</defs>
</svg>
