<svg width="20" height="20" viewBox="0 0 20 20" fill="none" xmlns="http://www.w3.org/2000/svg">
<path d="M16.6872 16.6912H13.8736V12.2824C13.8736 11.231 13.8523 9.87808 12.4075 9.87808C10.9405 9.87808 10.7165 11.022 10.7165 12.2048V16.6912H7.90287V7.625H10.6056V8.86079H10.642C11.0197 8.14829 11.938 7.39621 13.31 7.39621C16.1608 7.39621 16.688 9.27246 16.688 11.7148L16.6872 16.6912ZM4.72512 6.38446C3.81946 6.38446 3.09192 5.65138 3.09192 4.74967C3.09192 3.84875 3.82025 3.11646 4.72512 3.11646C5.62762 3.11646 6.35913 3.84875 6.35913 4.74967C6.35913 5.65138 5.62683 6.38446 4.72512 6.38446ZM6.13588 16.6912H3.31438V7.625H6.13588V16.6912ZM18.0948 0.5H1.90204C1.127 0.5 0.5 1.11275 0.5 1.86879V18.1312C0.5 18.888 1.127 19.5 1.90204 19.5H18.0924C18.8667 19.5 19.5 18.888 19.5 18.1312V1.86879C19.5 1.11275 18.8667 0.5 18.0924 0.5H18.0948Z" fill="url(#paint0_linear_1_26422)"/>
<defs>
<linearGradient id="paint0_linear_1_26422" x1="10" y1="-2.86508" x2="10" y2="19.5" gradientUnits="userSpaceOnUse">
<stop stop-color="#FF007F"/>
<stop offset="1" stop-color="#A5147F"/>
</linearGradient>
</defs>
</svg>
