<svg width="14" height="20" viewBox="0 0 14 20" fill="none" xmlns="http://www.w3.org/2000/svg">
<path fill-rule="evenodd" clip-rule="evenodd" d="M9.43319 17.173C11.4542 14.5958 14 10.8515 14 8.34267C14 4.18252 10.866 0.810059 7 0.810059C3.13401 0.810059 0 4.18252 0 8.34267C0 10.8515 2.54577 14.5958 4.56681 17.173C5.62122 18.5176 6.14842 19.1898 7 19.1898C7.85158 19.1898 8.37879 18.5176 9.43319 17.173ZM7 11.3101C5.55025 11.3101 4.375 10.1348 4.375 8.68506C4.375 7.23531 5.55025 6.06006 7 6.06006C8.44975 6.06006 9.625 7.23531 9.625 8.68506C9.625 10.1348 8.44975 11.3101 7 11.3101Z" fill="#1B1B1B" fill-opacity="0.4"/>
</svg>
