<svg width="40" height="41" viewBox="0 0 40 41" fill="none" xmlns="http://www.w3.org/2000/svg">
<rect x="0.5" y="1.21484" width="39" height="39" rx="19.5" stroke="url(#paint0_linear_1_31929)"/>
<path d="M20.0001 20.0013C19.1331 20.0013 18.3518 19.4789 18.0205 18.678C17.6883 17.8779 17.8723 16.9556 18.4848 16.343C19.0974 15.7304 20.0197 15.5465 20.8198 15.8787C21.6208 16.2099 22.1431 16.9913 22.1431 17.8583C22.1431 19.0414 21.1832 20.0013 20.0001 20.0013ZM27.8578 18.5726C27.8578 25.2945 20.7144 30.3734 20.4072 30.5876C20.1626 30.7573 19.8375 30.7573 19.5929 30.5876C19.2857 30.3733 12.1423 25.2945 12.1423 18.5726C12.1423 15.7654 13.6398 13.1714 16.0713 11.7676C18.5028 10.3639 21.4975 10.364 23.9289 11.7676C26.3604 13.1713 27.8578 15.7651 27.8578 18.5726ZM20.0001 21.43C20.9475 21.43 21.8556 21.0541 22.5253 20.3835C23.1959 19.7138 23.5718 18.8057 23.5718 17.8583C23.5718 16.9109 23.1959 16.0028 22.5253 15.3331C21.8556 14.6625 20.9475 14.2866 20.0001 14.2866C19.0527 14.2866 18.1446 14.6625 17.4749 15.3331C16.8043 16.0028 16.4284 16.9109 16.4284 17.8583C16.4284 18.8057 16.8043 19.7138 17.4749 20.3835C18.1446 21.0541 19.0527 21.43 20.0001 21.43Z" fill="url(#paint1_linear_1_31929)"/>
<defs>
<linearGradient id="paint0_linear_1_31929" x1="20" y1="-6.36953" x2="20" y2="40.7148" gradientUnits="userSpaceOnUse">
<stop stop-color="#FF007F"/>
<stop offset="1" stop-color="#A5147F"/>
</linearGradient>
<linearGradient id="paint1_linear_1_31929" x1="20.0001" y1="7.17266" x2="20.0001" y2="30.7148" gradientUnits="userSpaceOnUse">
<stop stop-color="#FF007F"/>
<stop offset="1" stop-color="#A5147F"/>
</linearGradient>
</defs>
</svg>
