<svg width="18" height="15" viewBox="0 0 18 15" fill="none" xmlns="http://www.w3.org/2000/svg">
<path d="M1.88889 2.38108L7.3179 6.48087L7.31971 6.48237C7.92253 6.92444 8.22412 7.14561 8.55445 7.23105C8.84643 7.30656 9.15334 7.30656 9.44531 7.23105C9.77593 7.14553 10.0784 6.92372 10.6823 6.48087C10.6823 6.48087 14.1645 3.80858 16.1111 2.38108M1 11.0924V4.33681C1 3.34116 1 2.84296 1.19377 2.46267C1.36421 2.12816 1.63598 1.8564 1.97049 1.68595C2.35077 1.49219 2.84897 1.49219 3.84462 1.49219H14.1557C15.1514 1.49219 15.6485 1.49219 16.0288 1.68595C16.3633 1.8564 16.636 2.12816 16.8064 2.46267C17 2.84259 17 3.34018 17 4.33389V11.0954C17 12.0891 17 12.5859 16.8064 12.9659C16.636 13.3004 16.3633 13.5726 16.0288 13.7431C15.6489 13.9366 15.152 13.9366 14.1583 13.9366H3.8417C2.84799 13.9366 2.3504 13.9366 1.97049 13.7431C1.63598 13.5726 1.36421 13.3004 1.19377 12.9659C1 12.5856 1 12.088 1 11.0924Z" stroke="url(#paint0_linear_1_31680)" stroke-width="2" stroke-linecap="round" stroke-linejoin="round"/>
<defs>
<linearGradient id="paint0_linear_1_31680" x1="9" y1="-0.71184" x2="9" y2="13.9366" gradientUnits="userSpaceOnUse">
<stop stop-color="#FF007F"/>
<stop offset="1" stop-color="#A5147F"/>
</linearGradient>
</defs>
</svg>
