<svg width="39" height="51" viewBox="0 0 39 51" fill="none" xmlns="http://www.w3.org/2000/svg">
<ellipse cx="8.89273" cy="8.38467" rx="6.35171" ry="6.35171" fill="#F9DEE2"/>
<ellipse cx="30.7423" cy="11.433" rx="6.35171" ry="6.35171" fill="#F9DEE2"/>
<path d="M8.9081 0C11.153 0 13.1876 0.91109 14.6582 2.38189C16.1288 3.8527 17.0401 5.88723 17.0401 8.13197C17.0401 10.3767 16.129 12.4115 14.6582 13.8821C13.1874 15.3529 11.1528 16.2639 8.9081 16.2639C6.66335 16.2639 4.62862 15.3529 3.15802 13.8821C1.68722 12.4112 0.776128 10.3767 0.776128 8.13197C0.776128 5.88723 1.68722 3.85249 3.15802 2.38189C4.62882 0.911293 6.66335 0 8.9081 0ZM19.9779 47.4412C23.7174 45.7203 26.5699 42.7945 27.0999 38.5706C27.1892 37.8541 27.0165 37.209 26.4846 36.6949C26.0658 36.29 25.51 36.0459 24.9801 35.9804C24.1841 35.8811 23.2492 36.1014 22.5843 36.5461C21.9055 36.9986 21.3176 36.7616 21 37.5C20.5713 38.4964 19.4188 38.4746 19 37.5C18.6824 36.7616 18.0488 36.9986 17.3699 36.5461C16.7308 36.1193 15.9705 35.9466 15.2083 35.9606C14.589 35.9705 13.9102 36.2722 13.4695 36.6969C12.9376 37.211 12.7649 37.8561 12.8542 38.5727C13.3842 42.7966 16.2365 45.7222 19.9763 47.4432L19.9779 47.4412ZM26.169 46.024C24.5493 47.7548 22.5267 49.0251 20.4565 49.9025C20.1608 50.0275 19.8174 50.0374 19.4978 49.9025C17.4276 49.0251 15.4049 47.7528 13.7854 46.024H1.22471C0.547873 46.024 0 45.4741 0 44.7992V25.9484C0 23.497 1.0024 21.27 2.61609 19.6561C4.22983 18.0424 6.4569 17.04 8.90835 17.04C11.3598 17.04 13.5868 18.0424 15.2006 19.6561C16.8144 21.2699 17.8167 23.4969 17.8167 25.9484V34.015C18.1422 34.156 18.4479 34.3247 18.7318 34.5152C19.2081 34.8348 19.621 36.1293 19.9763 36.5461C20.3316 36.1293 21.0236 35.2539 21.5 34.9343C21.7838 34.7438 21.8143 34.156 22.1398 34.015V27.6079C22.1398 25.3432 23.0648 23.2848 24.5574 21.7944C26.0481 20.3037 28.1065 19.3787 30.371 19.3787C32.6358 19.3787 34.6942 20.3037 36.1846 21.7944C37.6753 23.285 38.6023 25.3434 38.6023 27.6079V44.7972C38.6023 45.474 38.0524 46.0219 37.3775 46.0219H26.1685L26.169 46.024ZM11.9727 43.5726C11.1926 42.205 10.6448 40.6429 10.4224 38.8664C10.2379 37.3936 10.7023 35.9684 11.7762 34.9323C12.6793 34.0609 13.9199 33.5389 15.1704 33.517C15.2359 33.517 15.2994 33.515 15.3629 33.517V25.9483C15.3629 24.1738 14.6364 22.5601 13.4653 21.3909C12.2942 20.2198 10.6805 19.4934 8.90597 19.4934C7.13145 19.4934 5.51771 20.2198 4.34661 21.3909C3.17551 22.562 2.44902 24.1758 2.44902 25.9483V43.5725L11.9727 43.5726ZM24.5907 33.5171C24.817 33.5151 25.0512 33.521 25.2755 33.5488C26.2918 33.6759 27.3637 34.1483 28.1775 34.9343C29.2513 35.9724 29.7138 37.3976 29.5312 38.8684C29.3089 40.6429 28.7611 42.207 27.981 43.5746H36.1508V27.61C36.1508 26.0221 35.4998 24.577 34.4517 23.529C33.4036 22.4811 31.9587 21.8299 30.3707 21.8299C28.7828 21.8299 27.3378 22.4809 26.2898 23.529C25.2418 24.5771 24.5907 26.0221 24.5907 27.61L24.5907 33.5171ZM30.3708 3.62236C32.449 3.62236 34.3287 4.46393 35.6905 5.82559C37.0521 7.18724 37.8937 9.06892 37.8937 11.1453C37.8937 13.2235 37.0501 15.1052 35.6905 16.465C34.3288 17.8266 32.4471 18.6702 30.3708 18.6702C28.2926 18.6702 26.4109 17.8266 25.0491 16.4669C23.6874 15.1053 22.8458 13.2236 22.8458 11.1452C22.8458 9.06704 23.6874 7.18729 25.0491 5.82554C26.4107 4.46388 28.2924 3.62236 30.3708 3.62236ZM33.9575 7.56042C33.0385 6.6414 31.7702 6.07371 30.3708 6.07371C28.9695 6.07371 27.7011 6.6414 26.7821 7.56042C25.8631 8.47745 25.2954 9.7478 25.2954 11.1472C25.2954 12.5485 25.8631 13.8169 26.7821 14.7359C27.7011 15.6529 28.9695 16.2226 30.3708 16.2226C31.7721 16.2226 33.0405 15.6549 33.9575 14.7359C34.8746 13.8169 35.4442 12.5485 35.4442 11.1472C35.4442 9.74581 34.8765 8.47745 33.9575 7.56042ZM12.9232 4.11662C11.895 3.08846 10.4738 2.45329 8.90576 2.45329C7.3377 2.45329 5.91649 3.09044 4.88833 4.11662C3.86016 5.14479 3.22499 6.56599 3.22499 8.13405C3.22499 9.70211 3.86215 11.1233 4.88833 12.1515C5.91649 13.1797 7.3377 13.8148 8.90576 13.8148C10.4738 13.8148 11.895 13.1777 12.9232 12.1515C13.9514 11.1233 14.5865 9.7041 14.5865 8.13405C14.5865 6.56599 13.9494 5.14479 12.9232 4.11662Z" fill="black"/>
<path d="M28.3048 37.0307C26.8177 33.3352 23.336 34.2233 21.1679 36.7729C20.5952 37.4466 19.3135 37.4084 18.8032 36.6862C15.9525 32.6524 12.0081 35.2922 11.7849 37.6749C10.7688 44.1076 17.3837 47.2808 19.9151 48.7818C26.0684 46.5696 28.4086 41.2071 28.5429 38.353C28.5641 37.9014 28.4736 37.4501 28.3048 37.0307Z" stroke="url(#paint0_linear_1_25630)" stroke-width="3"/>
<defs>
<linearGradient id="paint0_linear_1_25630" x1="20.1144" y1="32.0341" x2="20.1144" y2="48.7818" gradientUnits="userSpaceOnUse">
<stop stop-color="#FF007F"/>
<stop offset="1" stop-color="#A5147F"/>
</linearGradient>
</defs>
</svg>
