<svg width="60" height="60" viewBox="0 0 60 60" fill="none" xmlns="http://www.w3.org/2000/svg">
<path d="M33.5956 58.9978C32.1795 58.9978 30.7474 58.819 29.3189 58.4597C18.9474 55.8486 4.14866 41.0499 1.53764 30.6802C0.487922 26.5043 0.981803 22.3072 2.96264 18.5438C3.81763 16.9224 5.34176 15.8372 7.14557 15.5629C8.94054 15.3009 10.6983 15.8744 11.9782 17.1542L16.2301 21.4062C17.8764 23.0525 18.3526 25.5679 17.4162 27.6691C16.9241 28.7755 16.2956 29.7172 15.5469 30.466C14.6565 31.3564 15.0778 32.9867 15.5876 34.1993C16.3647 36.0439 17.9189 38.2106 19.8537 40.1436C21.7867 42.0784 23.9534 43.6326 25.798 44.4097C27.0106 44.9178 28.6409 45.3408 29.5295 44.4522C30.2801 43.7017 31.2218 43.0732 32.3299 42.5794C34.4258 41.6482 36.9466 42.1227 38.5911 43.7672L42.8431 48.0191C44.1247 49.3007 44.7053 51.0638 44.4344 52.8535C44.1601 54.6573 43.0732 56.1814 41.4517 57.0347C38.977 58.3375 36.3146 58.9978 33.5956 58.9978ZM7.9988 18.2181C7.85011 18.2181 7.70141 18.2287 7.55272 18.2518C6.61098 18.3934 5.81617 18.9634 5.37008 19.8113C3.68133 23.0171 3.2795 26.4512 4.17521 30.0164C6.55256 39.4568 20.5405 53.4447 29.9827 55.8221C33.5496 56.7213 36.9802 56.3177 40.1842 54.629C41.0339 54.1811 41.6022 53.3863 41.7455 52.4446C41.8854 51.5188 41.5845 50.6071 40.9206 49.9416L36.6687 45.6896C35.8137 44.8363 34.5161 44.5885 33.4363 45.0629C32.6326 45.4205 31.9653 45.8631 31.4502 46.3764C28.2727 49.5539 22.3691 46.5039 17.9295 42.0678C15.7256 39.8621 14.0033 37.4423 13.0828 35.2544C11.4914 31.4768 12.7376 29.4305 13.6227 28.5454C14.1343 28.032 14.5768 27.3647 14.9326 26.5628C15.4141 25.4829 15.1627 24.1836 14.3077 23.3286L10.0558 19.0767C9.49815 18.5191 8.76706 18.2181 7.9988 18.2181Z" fill="url(#paint0_linear_1_25658)" stroke="url(#paint1_linear_1_25658)"/>
<path d="M32.3476 32.9571C32.0042 32.9571 31.6554 32.8863 31.3209 32.7394C30.3862 32.3304 29.8038 31.44 29.8038 30.4186V27.8395H27.7504C24.9287 27.8395 22.6328 25.5436 22.6328 22.7219V6.11759C22.6328 3.29593 24.9287 1 27.7504 1H53.8818C56.7035 1 58.9994 3.29593 58.9994 6.11759V22.7219C58.9994 25.5436 56.7035 27.8395 53.8818 27.8395H38.8654L34.054 32.2791C33.5725 32.7252 32.9671 32.9571 32.3476 32.9571ZM27.7504 3.719C26.4281 3.719 25.3518 4.79527 25.3518 6.11759V22.7219C25.3518 24.0442 26.4281 25.1205 27.7504 25.1205H31.1633C31.9139 25.1205 32.5228 25.7294 32.5228 26.48V29.992L37.4121 25.4816C37.6634 25.2497 37.9927 25.1205 38.3343 25.1205H53.8818C55.2042 25.1205 56.2804 24.0442 56.2804 22.7219V6.11759C56.2804 4.79527 55.2042 3.719 53.8818 3.719H27.7504Z" fill="url(#paint2_linear_1_25658)" stroke="url(#paint3_linear_1_25658)"/>
<path d="M51.4082 15.501H31.3556C30.605 15.501 29.9961 14.892 29.9961 14.1415C29.9961 13.3909 30.605 12.782 31.3556 12.782H51.4082C52.1588 12.782 52.7677 13.3909 52.7677 14.1415C52.7677 14.892 52.1588 15.501 51.4082 15.501Z" fill="url(#paint4_linear_1_25658)" stroke="url(#paint5_linear_1_25658)"/>
<path d="M40.8154 10.5177H31.3556C30.605 10.5177 29.9961 9.90876 29.9961 9.15821C29.9961 8.40765 30.605 7.79871 31.3556 7.79871H40.8154C41.566 7.79871 42.1749 8.40765 42.1749 9.15821C42.1749 9.90876 41.566 10.5177 40.8154 10.5177Z" fill="url(#paint6_linear_1_25658)" stroke="url(#paint7_linear_1_25658)"/>
<path d="M51.4078 21.3927H46.6779C45.9273 21.3927 45.3184 20.7838 45.3184 20.0332C45.3184 19.2826 45.9273 18.6737 46.6779 18.6737H51.4078C52.1583 18.6737 52.7673 19.2826 52.7673 20.0332C52.7673 20.7838 52.1583 21.3927 51.4078 21.3927Z" fill="url(#paint8_linear_1_25658)" stroke="url(#paint9_linear_1_25658)"/>
<defs>
<linearGradient id="paint0_linear_1_25658" x1="22.7498" y1="7.79699" x2="22.7498" y2="58.9978" gradientUnits="userSpaceOnUse">
<stop stop-color="#FF007F"/>
<stop offset="1" stop-color="#A5147F"/>
</linearGradient>
<linearGradient id="paint1_linear_1_25658" x1="22.7498" y1="7.79699" x2="22.7498" y2="58.9978" gradientUnits="userSpaceOnUse">
<stop stop-color="#FF007F"/>
<stop offset="1" stop-color="#A5147F"/>
</linearGradient>
<linearGradient id="paint2_linear_1_25658" x1="40.8161" y1="-4.6599" x2="40.8161" y2="32.9571" gradientUnits="userSpaceOnUse">
<stop stop-color="#FF007F"/>
<stop offset="1" stop-color="#A5147F"/>
</linearGradient>
<linearGradient id="paint3_linear_1_25658" x1="40.8161" y1="-4.6599" x2="40.8161" y2="32.9571" gradientUnits="userSpaceOnUse">
<stop stop-color="#FF007F"/>
<stop offset="1" stop-color="#A5147F"/>
</linearGradient>
<linearGradient id="paint4_linear_1_25658" x1="41.3819" y1="12.3004" x2="41.3819" y2="15.501" gradientUnits="userSpaceOnUse">
<stop stop-color="#FF007F"/>
<stop offset="1" stop-color="#A5147F"/>
</linearGradient>
<linearGradient id="paint5_linear_1_25658" x1="41.3819" y1="12.3004" x2="41.3819" y2="15.501" gradientUnits="userSpaceOnUse">
<stop stop-color="#FF007F"/>
<stop offset="1" stop-color="#A5147F"/>
</linearGradient>
<linearGradient id="paint6_linear_1_25658" x1="36.0855" y1="7.31715" x2="36.0855" y2="10.5177" gradientUnits="userSpaceOnUse">
<stop stop-color="#FF007F"/>
<stop offset="1" stop-color="#A5147F"/>
</linearGradient>
<linearGradient id="paint7_linear_1_25658" x1="36.0855" y1="7.31715" x2="36.0855" y2="10.5177" gradientUnits="userSpaceOnUse">
<stop stop-color="#FF007F"/>
<stop offset="1" stop-color="#A5147F"/>
</linearGradient>
<linearGradient id="paint8_linear_1_25658" x1="49.0428" y1="18.1921" x2="49.0428" y2="21.3927" gradientUnits="userSpaceOnUse">
<stop stop-color="#FF007F"/>
<stop offset="1" stop-color="#A5147F"/>
</linearGradient>
<linearGradient id="paint9_linear_1_25658" x1="49.0428" y1="18.1921" x2="49.0428" y2="21.3927" gradientUnits="userSpaceOnUse">
<stop stop-color="#FF007F"/>
<stop offset="1" stop-color="#A5147F"/>
</linearGradient>
</defs>
</svg>
