<svg width="100" height="101" viewBox="0 0 100 101" fill="none" xmlns="http://www.w3.org/2000/svg">
<path d="M50 0.105469C22.4282 0.105469 0 22.5337 0 50.1055C0 77.6771 22.4282 100.105 50 100.105C77.5718 100.105 100 77.6771 100 50.1055C100 22.5337 77.5718 0.105469 50 0.105469ZM50 7.24833C73.7113 7.24833 92.8571 26.3941 92.8571 50.1055C92.8571 73.8168 73.7113 92.9626 50 92.9626C26.2887 92.9626 7.14286 73.8168 7.14286 50.1055C7.14286 26.3941 26.2887 7.24833 50 7.24833ZM37.3512 27.4864C34.599 27.5483 32.2132 29.7587 32.1429 32.918V67.2557C32.2369 71.4678 36.4427 74.0228 40.1414 72.0176L69.9033 54.793C71.5231 53.8521 72.619 52.1254 72.619 50.1055C72.619 48.0856 71.5232 46.3587 69.9033 45.418L40.1414 28.1933C39.2167 27.692 38.2686 27.4658 37.3512 27.4864Z" fill="url(#paint0_linear_1_25721)"/>
<defs>
<linearGradient id="paint0_linear_1_25721" x1="50" y1="-17.6055" x2="50" y2="100.105" gradientUnits="userSpaceOnUse">
<stop stop-color="#FF007F"/>
<stop offset="1" stop-color="#A5147F"/>
</linearGradient>
</defs>
</svg>
