<svg width="76" height="77" viewBox="0 0 76 77" fill="none" xmlns="http://www.w3.org/2000/svg">
<rect y="0.268555" width="76" height="76" rx="38" fill="#E50680" fill-opacity="0.08"/>
<path d="M48.4793 50.8576C47.4822 50.8576 46.5816 50.3672 46.037 49.8227C45.6804 49.4661 45.6804 48.8879 46.037 48.5312C46.3937 48.1746 46.972 48.1746 47.3287 48.5312C47.3288 48.5312 47.6539 48.8403 48.0996 48.9751C48.4174 49.0711 48.909 49.1298 49.5075 48.5313C50.106 47.9327 50.0476 47.4411 49.9514 47.1235C49.816 46.6759 49.5052 46.3501 49.5021 46.3469C49.1454 45.9903 49.1482 45.4147 49.5048 45.0581C49.8615 44.7015 50.4425 44.7042 50.7991 45.0608C51.7561 46.0179 52.546 48.0759 50.7991 49.8228C50.046 50.5759 49.2349 50.8576 48.4793 50.8576Z" fill="url(#paint0_linear_1_43441)"/>
<path d="M43.2719 52.6039C42.2742 52.6039 41.373 52.1131 40.828 51.5682C40.4714 51.2116 40.4714 50.6334 40.828 50.2767C41.1847 49.92 41.763 49.92 42.1197 50.2767C42.1197 50.2767 42.4452 50.5862 42.8915 50.7213C43.2094 50.8175 43.7012 50.8762 44.2997 50.2779C44.8981 49.6794 44.8396 49.1878 44.7435 48.87C44.6082 48.4225 44.2973 48.0966 44.2942 48.0935C43.9375 47.7369 43.9403 47.1612 44.2969 46.8047C44.6535 46.448 45.2346 46.4508 45.5912 46.8074C46.5483 47.7645 47.3381 49.8225 45.5912 51.5694C44.8384 52.3222 44.0274 52.6039 43.2719 52.6039Z" fill="url(#paint1_linear_1_43441)"/>
<path d="M38.0976 54.2943C37.113 54.2944 36.2066 53.8357 35.648 53.324C35.6381 53.3149 35.6285 53.3056 35.619 53.2962L33.8837 51.561C33.5271 51.2043 33.5271 50.6261 33.8837 50.2694C33.8837 50.2694 34.1929 49.9444 34.3277 49.4983C34.4238 49.1806 34.4823 48.689 33.8838 48.0906C33.2854 47.4922 32.7937 47.5506 32.476 47.6467C32.0284 47.782 31.7027 48.0929 31.6995 48.096C31.3428 48.4526 30.7672 48.4499 30.4106 48.0932C30.054 47.7365 30.0567 47.1556 30.4134 46.7989C31.3705 45.8419 33.4286 45.0521 35.1754 46.7989C36.5562 48.1798 36.3521 49.7549 35.7332 50.8272L36.8899 51.9838C36.9448 52.0299 37.2708 52.2928 37.6958 52.4149C38.2184 52.565 38.6616 52.4351 39.0909 52.0058C39.5311 51.5654 39.6572 51.1085 39.4873 50.5679C39.3493 50.1285 39.0657 49.8007 39.0629 49.7977C38.7223 49.4257 38.7477 48.848 39.1197 48.5073C39.4917 48.1668 40.0693 48.1921 40.41 48.5641C41.3141 49.5515 42.0531 51.6268 40.3825 53.2974C39.6565 54.0233 38.854 54.2942 38.0976 54.2943Z" fill="url(#paint2_linear_1_43441)"/>
<path d="M32.7353 52.6028C31.9797 52.6028 31.1687 52.3211 30.4155 51.5679C29.4588 50.6112 29.1494 49.432 29.5442 48.2476C29.8214 47.4162 30.3556 46.866 30.4156 46.806C30.7723 46.4494 31.3505 46.4494 31.7072 46.8061C32.0639 47.1628 32.0639 47.741 31.7072 48.0977C31.7074 48.0977 31.3982 48.4226 31.2633 48.8687C31.1672 49.1863 31.1088 49.6779 31.7072 50.2765C32.3057 50.875 32.7973 50.8164 33.115 50.7203C33.5626 50.5851 33.8884 50.274 33.8916 50.271C34.2482 49.9144 34.8238 49.9171 35.1804 50.2737C35.5371 50.6304 35.5343 51.2114 35.1777 51.568C34.6331 52.1124 33.7323 52.6028 32.7353 52.6028Z" fill="url(#paint3_linear_1_43441)"/>
<path d="M51.9434 47.3948C50.9462 47.3948 50.0457 46.9044 49.5011 46.3599C49.1444 46.0033 49.1444 45.4251 49.5011 45.0684C49.8562 44.7133 50.4308 44.7117 50.7879 45.0635C50.8046 45.0794 51.1259 45.3799 51.5637 45.5123C51.8814 45.6083 52.3731 45.6669 52.9715 45.0685C53.5701 44.4699 53.5116 43.9783 53.4155 43.6606C53.2801 43.213 52.9692 42.8873 52.9661 42.8841L51.2515 41.1694C51.2415 41.1599 51.2318 41.1502 51.2223 41.1403L42.8278 32.7457H36.6434L35.1757 34.2135C33.3852 36.004 31.7707 36.7273 30.2401 36.4243C28.8861 36.1564 27.8984 35.1687 26.9432 34.2135C26.7714 34.0417 26.6751 33.8084 26.6758 33.5654C26.6764 33.3224 26.7738 33.0897 26.9466 32.9187C26.9639 32.9014 28.7275 31.1553 32.1569 27.7259C35.4706 24.4122 42.6742 25.3231 44.6322 25.6444L47.7659 22.5107C47.9373 22.3394 48.1695 22.2432 48.4118 22.2432C48.654 22.2432 48.8864 22.3394 49.0576 22.5107L57.7337 31.1868C58.0903 31.5435 58.0903 32.1218 57.7337 32.4783L54.4157 35.7964L52.9271 40.262L54.2633 41.5981C54.3233 41.6581 54.8575 42.2084 55.1346 43.0396C55.5294 44.2241 55.22 45.4034 54.2633 46.36C53.5101 47.1131 52.699 47.3948 51.9434 47.3948ZM36.2652 30.9191H43.2061C43.4483 30.9191 43.6806 31.0154 43.8518 31.1866L51.4831 38.8178L52.751 35.014C52.7959 34.8794 52.8713 34.7573 52.9716 34.6571L55.7962 31.8324L48.4117 24.4479L45.5871 27.2726C45.3713 27.4883 45.0621 27.582 44.7628 27.5224C44.6813 27.5062 36.5321 25.9336 33.4484 29.0173C31.2178 31.2479 29.6908 32.7676 28.89 33.5632C29.4541 34.0912 30.0096 34.5167 30.5946 34.6324C31.4815 34.8079 32.5575 34.2483 33.8841 32.9218L35.6193 31.1866C35.7906 31.0154 36.0229 30.9191 36.2652 30.9191Z" fill="url(#paint4_linear_1_43441)"/>
<path d="M24.0557 47.3953C23.3001 47.3953 22.4891 47.1137 21.7359 46.3605C19.9891 44.6136 20.7789 42.5555 21.7359 41.5984L25.2064 38.128C26.1635 37.171 28.2216 36.3812 29.9684 38.128C31.7153 39.8749 30.9255 41.9329 29.9684 42.89C29.6118 43.2467 29.0335 43.2467 28.6768 42.89C28.3202 42.5333 28.3202 41.9552 28.6768 41.5984C28.6768 41.5984 28.9859 41.2734 29.1207 40.8274C29.2168 40.5096 29.2753 40.018 28.6769 39.4196C28.0784 38.8212 27.5868 38.8796 27.2691 38.9757C26.8215 39.111 26.4957 39.4219 26.4925 39.425L23.0276 42.8899C23.0276 42.8899 22.7186 43.215 22.5837 43.6611C22.4876 43.9788 22.4292 44.4704 23.0275 45.0689C23.6261 45.6674 24.1177 45.6089 24.4354 45.5128C24.883 45.3776 25.2088 45.0666 25.2121 45.0635C25.5687 44.7068 26.1443 44.7096 26.5009 45.0662C26.8575 45.4229 26.8548 46.0039 26.4981 46.3605C25.9536 46.905 25.0527 47.3953 24.0557 47.3953Z" fill="url(#paint5_linear_1_43441)"/>
<path d="M27.5293 50.8714C26.6932 50.8714 25.892 50.5122 25.2125 49.8326C24.2557 48.8759 23.9463 47.6967 24.3411 46.5122C24.6182 45.681 25.1525 45.1307 25.2125 45.0707L28.6828 41.6003C28.7893 41.4939 29.7612 40.5615 31.1281 40.5615C31.9642 40.5615 32.7653 40.9206 33.4449 41.6003C35.1917 43.3471 34.402 45.4052 33.4449 46.3623L29.9744 49.8328C29.8681 49.939 28.8962 50.8714 27.5293 50.8714ZM26.5041 46.3622C26.5041 46.3622 26.1951 46.6873 26.0602 47.1334C25.964 47.4511 25.9055 47.9426 26.504 48.5412C26.843 48.8802 27.1784 49.0449 27.5293 49.0449C28.141 49.0449 28.6778 48.5464 28.6828 48.5412L32.1534 45.0707C32.1532 45.0708 32.4624 44.7457 32.5973 44.2997C32.6934 43.9819 32.7518 43.4904 32.1533 42.8918C31.8144 42.5529 31.4791 42.3882 31.1281 42.3882C30.5164 42.3882 29.9794 42.8869 29.9744 42.892L26.5041 46.3622Z" fill="url(#paint6_linear_1_43441)"/>
<path d="M41.4763 51.8344C41.2426 51.8344 41.0089 51.7453 40.8305 51.5669L37.3612 48.0977C37.0046 47.741 37.0046 47.1628 37.3612 46.8061C37.7179 46.4494 38.2961 46.4494 38.6528 46.8061L42.1221 50.2755C42.4788 50.6321 42.4788 51.2104 42.1221 51.567C41.9438 51.7453 41.7101 51.8344 41.4763 51.8344Z" fill="url(#paint7_linear_1_43441)"/>
<path d="M46.6796 50.1025C46.4458 50.1025 46.2121 50.0134 46.0337 49.835L40.828 44.6293C40.4714 44.2727 40.4714 43.6945 40.828 43.3378C41.1847 42.9812 41.763 42.9812 42.1197 43.3378L47.3253 48.5435C47.682 48.9002 47.682 49.4783 47.3253 49.835C47.147 50.0134 46.9133 50.1025 46.6796 50.1025Z" fill="url(#paint8_linear_1_43441)"/>
<path d="M50.153 46.6204C49.9193 46.6204 49.6856 46.5313 49.5071 46.3529L44.3026 41.1485C43.946 40.7918 43.946 40.2135 44.3026 39.8569C44.6593 39.5002 45.2375 39.5002 45.5942 39.8569L50.7988 45.0615C51.1554 45.4181 51.1554 45.9963 50.7988 46.353C50.6204 46.5313 50.3867 46.6204 50.153 46.6204Z" fill="url(#paint9_linear_1_43441)"/>
<path d="M24.1187 41.4222C23.7363 41.4222 23.3799 41.1802 23.2523 40.7975L21.5854 35.7963L18.2674 32.4784C18.0961 32.3071 17.9999 32.0746 18 31.8323C18 31.5901 18.0964 31.3577 18.2679 31.1865L26.9527 22.5104C27.3094 22.154 27.8873 22.1541 28.2438 22.5106L31.3776 25.6444C32.4795 25.4633 35.2666 25.09 38.0731 25.3874C38.5747 25.4405 38.9383 25.8902 38.8851 26.3918C38.832 26.8934 38.3826 27.2569 37.8807 27.2038C34.6217 26.8585 31.2811 27.5158 31.2478 27.5224C30.9483 27.5823 30.6386 27.4886 30.4227 27.2727L27.5977 24.4477L20.2051 31.8328L23.0294 34.6571C23.1297 34.7575 23.2052 34.8797 23.2501 35.0141L24.9852 40.2198C25.1447 40.6983 24.8861 41.2154 24.4075 41.3749C24.3118 41.407 24.2144 41.4222 24.1187 41.4222Z" fill="url(#paint10_linear_1_43441)"/>
<defs>
<linearGradient id="paint0_linear_1_43441" x1="48.8017" y1="43.7177" x2="48.8017" y2="50.8576" gradientUnits="userSpaceOnUse">
<stop stop-color="#FF007F"/>
<stop offset="1" stop-color="#A5147F"/>
</linearGradient>
<linearGradient id="paint1_linear_1_43441" x1="43.5933" y1="45.4644" x2="43.5933" y2="52.6039" gradientUnits="userSpaceOnUse">
<stop stop-color="#FF007F"/>
<stop offset="1" stop-color="#A5147F"/>
</linearGradient>
<linearGradient id="paint2_linear_1_43441" x1="35.762" y1="44.2534" x2="35.762" y2="54.2943" gradientUnits="userSpaceOnUse">
<stop stop-color="#FF007F"/>
<stop offset="1" stop-color="#A5147F"/>
</linearGradient>
<linearGradient id="paint3_linear_1_43441" x1="32.4117" y1="45.4645" x2="32.4117" y2="52.6028" gradientUnits="userSpaceOnUse">
<stop stop-color="#FF007F"/>
<stop offset="1" stop-color="#A5147F"/>
</linearGradient>
<linearGradient id="paint4_linear_1_43441" x1="42.3385" y1="17.7886" x2="42.3385" y2="47.3948" gradientUnits="userSpaceOnUse">
<stop stop-color="#FF007F"/>
<stop offset="1" stop-color="#A5147F"/>
</linearGradient>
<linearGradient id="paint5_linear_1_43441" x1="25.8522" y1="35.2687" x2="25.8522" y2="47.3953" gradientUnits="userSpaceOnUse">
<stop stop-color="#FF007F"/>
<stop offset="1" stop-color="#A5147F"/>
</linearGradient>
<linearGradient id="paint6_linear_1_43441" x1="29.3267" y1="38.7355" x2="29.3267" y2="50.8714" gradientUnits="userSpaceOnUse">
<stop stop-color="#FF007F"/>
<stop offset="1" stop-color="#A5147F"/>
</linearGradient>
<linearGradient id="paint7_linear_1_43441" x1="39.7417" y1="45.6006" x2="39.7417" y2="51.8344" gradientUnits="userSpaceOnUse">
<stop stop-color="#FF007F"/>
<stop offset="1" stop-color="#A5147F"/>
</linearGradient>
<linearGradient id="paint8_linear_1_43441" x1="44.0767" y1="41.8248" x2="44.0767" y2="50.1025" gradientUnits="userSpaceOnUse">
<stop stop-color="#FF007F"/>
<stop offset="1" stop-color="#A5147F"/>
</linearGradient>
<linearGradient id="paint9_linear_1_43441" x1="47.5507" y1="38.3441" x2="47.5507" y2="46.6204" gradientUnits="userSpaceOnUse">
<stop stop-color="#FF007F"/>
<stop offset="1" stop-color="#A5147F"/>
</linearGradient>
<linearGradient id="paint10_linear_1_43441" x1="28.4451" y1="18.8464" x2="28.4451" y2="41.4222" gradientUnits="userSpaceOnUse">
<stop stop-color="#FF007F"/>
<stop offset="1" stop-color="#A5147F"/>
</linearGradient>
</defs>
</svg>
