<svg width="76" height="77" viewBox="0 0 76 77" fill="none" xmlns="http://www.w3.org/2000/svg">
<rect y="0.268555" width="76" height="76" rx="38" fill="#E50680" fill-opacity="0.08"/>
<path fill-rule="evenodd" clip-rule="evenodd" d="M38.0009 18.2686C32.8821 18.2686 28.7326 22.4181 28.7326 27.5368C28.7326 32.6556 32.8821 36.8051 38.0009 36.8051C43.1196 36.8051 47.2691 32.6556 47.2691 27.5368C47.2691 22.4181 43.1196 18.2686 38.0009 18.2686ZM31.6594 27.5368C31.6594 24.0346 34.4986 21.1954 38.0009 21.1954C41.5032 21.1954 44.3423 24.0346 44.3423 27.5368C44.3423 31.0391 41.5032 33.8783 38.0009 33.8783C34.4986 33.8783 31.6594 31.0391 31.6594 27.5368Z" fill="url(#paint0_linear_1_43427)"/>
<path fill-rule="evenodd" clip-rule="evenodd" d="M32.1472 39.732C27.0285 39.732 22.8789 43.8815 22.8789 49.0003C22.8789 54.119 27.0285 58.2686 32.1472 58.2686H43.8545C48.9733 58.2686 53.1228 54.119 53.1228 49.0003C53.1228 43.8815 48.9733 39.732 43.8545 39.732H32.1472ZM25.8057 49.0003C25.8057 45.498 28.6449 42.6588 32.1472 42.6588H43.8545C47.3568 42.6588 50.196 45.498 50.196 49.0003C50.196 52.5026 47.3568 55.3417 43.8545 55.3417H32.1472C28.6449 55.3417 25.8057 52.5026 25.8057 49.0003Z" fill="url(#paint1_linear_1_43427)"/>
<defs>
<linearGradient id="paint0_linear_1_43427" x1="38.0009" y1="11.1842" x2="38.0009" y2="58.2686" gradientUnits="userSpaceOnUse">
<stop stop-color="#FF007F"/>
<stop offset="1" stop-color="#A5147F"/>
</linearGradient>
<linearGradient id="paint1_linear_1_43427" x1="38.0009" y1="11.1842" x2="38.0009" y2="58.2686" gradientUnits="userSpaceOnUse">
<stop stop-color="#FF007F"/>
<stop offset="1" stop-color="#A5147F"/>
</linearGradient>
</defs>
</svg>
