<svg width="76" height="77" viewBox="0 0 76 77" fill="none" xmlns="http://www.w3.org/2000/svg">
<rect y="0.268555" width="76" height="76" rx="38" fill="#E50680" fill-opacity="0.08"/>
<path fill-rule="evenodd" clip-rule="evenodd" d="M32.1218 42.8451C32.9353 41.7174 33.4137 40.333 33.4137 38.8386C33.4137 35.052 30.3394 31.9775 26.5513 31.9775C22.7647 31.9775 19.6902 35.0518 19.6902 38.8386C19.6902 40.333 20.1685 41.7174 20.9821 42.8451C18.6951 43.615 17.0488 45.7728 17.0488 48.3199V55.5684C17.0488 55.9542 17.3613 56.2667 17.7471 56.2667H35.3566C35.7424 56.2667 36.0549 55.9542 36.0549 55.5684V48.3199C36.0549 45.7728 34.4088 43.6152 32.1218 42.8451ZM31.0604 44.0096C29.8541 45.0623 28.2776 45.7012 26.551 45.7012C24.8262 45.7012 23.248 45.0623 22.0434 44.0096C19.9974 44.3779 18.4454 46.1673 18.4454 48.3199V54.8699H21.4516V49.4041C21.4516 49.02 21.7641 48.7058 22.1499 48.7058C22.534 48.7058 22.8482 49.02 22.8482 49.4041V54.8699H30.2572V49.4041C30.2572 49.02 30.5697 48.7058 30.9555 48.7058C31.3396 48.7058 31.6538 49.02 31.6538 49.4041V54.8699H34.6583V48.3199C34.6583 46.1673 33.1064 44.3779 31.0604 44.0096ZM26.551 33.3743C29.5677 33.3743 32.0168 35.8219 32.0168 38.8387C32.0168 41.8556 29.5675 44.3045 26.551 44.3045C23.536 44.3045 21.0865 41.8552 21.0865 38.8387C21.0865 35.8223 23.5359 33.3743 26.551 33.3743Z" fill="url(#paint0_linear_1_43431)"/>
<path fill-rule="evenodd" clip-rule="evenodd" d="M55.0183 42.8451C55.8318 41.7174 56.3102 40.333 56.3102 38.8386C56.3102 35.052 53.2359 31.9775 49.4491 31.9775C45.6608 31.9775 42.5867 35.0518 42.5867 38.8386C42.5867 40.333 43.065 41.7174 43.8785 42.8451C41.5916 43.615 39.9453 45.7728 39.9453 48.3199V55.5684C39.9453 55.9542 40.2578 56.2667 40.6436 56.2667H58.253C58.6389 56.2667 58.9513 55.9542 58.9513 55.5684V48.3199C58.9513 45.7728 57.3053 43.6152 55.0183 42.8451ZM53.9569 44.0096C52.7523 45.0623 51.1741 45.7012 49.4493 45.7012C47.7227 45.7012 46.1463 45.0623 44.9399 44.0096C42.8938 44.3779 41.3418 46.1673 41.3418 48.3199V54.8699H44.3463V49.4041C44.3463 49.02 44.6606 48.7058 45.0446 48.7058C45.4304 48.7058 45.7429 49.02 45.7429 49.4041V54.8699H53.1519V49.4041C53.1519 49.02 53.4662 48.7058 53.8502 48.7058C54.2361 48.7058 54.5485 49.02 54.5485 49.4041V54.8699H57.5548V48.3199C57.5548 46.1673 56.0029 44.3779 53.9569 44.0096ZM49.4493 33.3743C52.4642 33.3743 54.9137 35.8219 54.9137 38.8387C54.9137 41.8556 52.4644 44.3045 49.4493 44.3045C46.4326 44.3045 43.9835 41.8552 43.9835 38.8387C43.9835 35.8223 46.4328 33.3743 49.4493 33.3743Z" fill="url(#paint1_linear_1_43431)"/>
<path fill-rule="evenodd" clip-rule="evenodd" d="M28.4309 25.2004H20.7198C20.334 25.2004 20.0215 25.5147 20.0215 25.8988C20.0215 26.2846 20.334 26.5971 20.7198 26.5971H28.4309L26.4687 28.5593C26.1963 28.8316 26.1963 29.2751 26.4687 29.5474C26.741 29.8197 27.1844 29.8197 27.4567 29.5474L30.6096 26.3945C30.882 26.1222 30.882 25.6787 30.6096 25.4064L27.4567 22.2536C27.1844 21.9812 26.741 21.9812 26.4687 22.2536C26.1963 22.5259 26.1963 22.9676 26.4687 23.2399L28.4309 25.2004Z" fill="url(#paint2_linear_1_43431)"/>
<path fill-rule="evenodd" clip-rule="evenodd" d="M47.5431 26.597H55.2542C55.64 26.597 55.9525 26.2845 55.9525 25.8987C55.9525 25.5146 55.64 25.2004 55.2542 25.2004H47.5431C48.3322 24.4131 49.5054 23.2399 49.5054 23.2399C49.7777 22.9676 49.7777 22.5259 49.5054 22.2536C49.233 21.9812 48.7896 21.9812 48.5173 22.2536L45.3644 25.4064C45.0921 25.6788 45.0921 26.1222 45.3644 26.3945L48.5173 29.5474C48.7896 29.8197 49.2331 29.8197 49.5054 29.5474C49.7777 29.275 49.7777 28.8316 49.5054 28.5593L47.5431 26.597Z" fill="url(#paint3_linear_1_43431)"/>
<path fill-rule="evenodd" clip-rule="evenodd" d="M37.9987 20.2705C34.6974 20.2705 32.0176 22.9503 32.0176 26.2516C32.0176 29.5528 34.6973 32.2327 37.9987 32.2327C41.3 32.2327 43.9798 29.5529 43.9798 26.2516C43.9798 22.9504 41.3 20.2705 37.9987 20.2705ZM37.9987 21.6671C40.53 21.6671 42.5831 23.7202 42.5831 26.2516C42.5831 28.783 40.5301 30.8361 37.9987 30.8361C35.4672 30.8361 33.4142 28.783 33.4142 26.2516C33.4142 23.7202 35.4672 21.6671 37.9987 21.6671Z" fill="url(#paint4_linear_1_43431)"/>
<path fill-rule="evenodd" clip-rule="evenodd" d="M35.9464 26.8706L36.9904 27.9146C37.2627 28.1869 37.7062 28.1869 37.9785 27.9146L40.0664 25.8266C40.3388 25.5543 40.3388 25.1108 40.0664 24.8385C39.7941 24.5662 39.3506 24.5662 39.0783 24.8385L37.4845 26.4324L36.9345 25.8825C36.6604 25.6101 36.2187 25.6101 35.9464 25.8825C35.6741 26.1548 35.6741 26.5983 35.9464 26.8706Z" fill="url(#paint5_linear_1_43431)"/>
<defs>
<linearGradient id="paint0_linear_1_43431" x1="26.5518" y1="27.6757" x2="26.5518" y2="56.2667" gradientUnits="userSpaceOnUse">
<stop stop-color="#FF007F"/>
<stop offset="1" stop-color="#A5147F"/>
</linearGradient>
<linearGradient id="paint1_linear_1_43431" x1="49.4483" y1="27.6757" x2="49.4483" y2="56.2667" gradientUnits="userSpaceOnUse">
<stop stop-color="#FF007F"/>
<stop offset="1" stop-color="#A5147F"/>
</linearGradient>
<linearGradient id="paint2_linear_1_43431" x1="25.4177" y1="20.6852" x2="25.4177" y2="29.7516" gradientUnits="userSpaceOnUse">
<stop stop-color="#FF007F"/>
<stop offset="1" stop-color="#A5147F"/>
</linearGradient>
<linearGradient id="paint3_linear_1_43431" x1="50.5563" y1="20.6852" x2="50.5563" y2="29.7516" gradientUnits="userSpaceOnUse">
<stop stop-color="#FF007F"/>
<stop offset="1" stop-color="#A5147F"/>
</linearGradient>
<linearGradient id="paint4_linear_1_43431" x1="37.9987" y1="18.1519" x2="37.9987" y2="32.2327" gradientUnits="userSpaceOnUse">
<stop stop-color="#FF007F"/>
<stop offset="1" stop-color="#A5147F"/>
</linearGradient>
<linearGradient id="paint5_linear_1_43431" x1="38.0064" y1="24.0171" x2="38.0064" y2="28.1188" gradientUnits="userSpaceOnUse">
<stop stop-color="#FF007F"/>
<stop offset="1" stop-color="#A5147F"/>
</linearGradient>
</defs>
</svg>
