<svg width="76" height="77" viewBox="0 0 76 77" fill="none" xmlns="http://www.w3.org/2000/svg">
<rect y="0.268555" width="76" height="76" rx="38" fill="#E50680" fill-opacity="0.08"/>
<path d="M21.334 33.6147C20.9311 33.6147 20.5661 33.7776 20.3027 34.0422C20.0394 34.3055 19.8752 34.6706 19.8752 35.0735C19.8752 35.4765 20.0382 35.8403 20.3027 36.1036C20.5661 36.367 20.9311 36.5311 21.334 36.5311C21.737 36.5311 22.1008 36.3682 22.3654 36.1036C22.6287 35.8403 22.7916 35.4753 22.7916 35.0735C22.7916 34.6706 22.6287 34.3055 22.3654 34.0422C22.102 33.7789 21.737 33.6147 21.334 33.6147ZM22.8651 38.0328L24.4635 46.2221H51.5401L53.1386 38.0328C52.8323 37.8735 52.5555 37.6702 52.313 37.4289L52.3008 37.4154L45.569 41.0545C45.1182 41.297 44.5585 41.1317 44.3098 40.6883L38.7563 30.8282C38.5138 30.8845 38.2615 30.9139 38.0018 30.9139C37.7422 30.9139 37.4898 30.8845 37.2473 30.8282L31.6951 40.6883C31.4428 41.139 30.872 41.2995 30.42 41.0471L23.7017 37.4154L23.6894 37.4277C23.4481 37.669 23.1701 37.8723 22.8639 38.0315L22.8651 38.0328ZM24.5934 35.7705L30.5131 38.971L35.6158 29.9096C35.0291 29.3094 34.6678 28.4875 34.6678 27.5823C34.6678 26.6625 35.0414 25.8296 35.644 25.2257C36.2478 24.6231 37.0807 24.2495 38.0006 24.2495C38.9205 24.2495 39.7534 24.6231 40.3572 25.2257C40.9611 25.8296 41.3334 26.6625 41.3334 27.5823C41.3334 28.4875 40.9721 29.3094 40.3854 29.9096L45.4881 38.971L51.4078 35.7705C51.3601 35.5451 51.3344 35.3112 51.3344 35.0723C51.3344 34.1524 51.7079 33.3183 52.3106 32.7157C52.9144 32.1118 53.7473 31.7395 54.6672 31.7395C55.5883 31.7395 56.4212 32.1131 57.0238 32.7157C57.6276 33.3183 58 34.1512 58 35.0723C58 35.9922 57.6264 36.8251 57.0238 37.4289C56.4885 37.9642 55.772 38.3182 54.9734 38.3904L53.2463 47.2437V51.3506C53.2463 51.8687 52.8262 52.2876 52.3093 52.2876H23.6907C23.1738 52.2876 22.7537 51.8675 22.7537 51.3506V47.2437L21.0266 38.3904C20.228 38.3182 19.5115 37.9642 18.9762 37.4289C18.3724 36.8251 18 35.9922 18 35.0723C18 34.1512 18.3736 33.3183 18.9762 32.7157C19.5788 32.1118 20.4117 31.7395 21.3328 31.7395C22.2527 31.7395 23.0856 32.1131 23.6894 32.7157C24.2921 33.3183 24.6656 34.1524 24.6656 35.0723C24.6656 35.3112 24.6411 35.5451 24.5922 35.7705H24.5934ZM38.0018 42.6517L39.4925 41.5665L38.0018 38.8681L36.5112 41.5665L38.0018 42.6517ZM41.2599 42.5892L38.5653 44.5502C38.2456 44.7927 37.7936 44.8087 37.4531 44.56L34.8013 42.6309C34.3799 42.3712 34.2317 41.8237 34.473 41.384L37.1787 36.4882C37.2608 36.3351 37.387 36.2028 37.5511 36.1134C38.0043 35.8648 38.5726 36.0301 38.8213 36.4833L41.5294 41.384L41.527 41.3852C41.7511 41.7906 41.6421 42.3087 41.2587 42.5892H41.2599ZM39.0332 26.5522C38.7698 26.2889 38.4048 26.1248 38.0018 26.1248C37.5989 26.1248 37.2351 26.2877 36.9705 26.5522C36.7072 26.8156 36.5443 27.1806 36.5443 27.5823C36.5443 27.9853 36.7072 28.3491 36.9705 28.6137C37.2339 28.877 37.5989 29.0411 38.0018 29.0411C38.4048 29.0411 38.7686 28.8782 39.0332 28.6137C39.2965 28.3503 39.4594 27.9853 39.4594 27.5823C39.4594 27.1794 39.2965 26.8156 39.0332 26.5522ZM55.701 34.0422C55.4376 33.7789 55.0726 33.6147 54.6696 33.6147C54.2667 33.6147 53.9029 33.7776 53.6383 34.0422C53.375 34.3055 53.2121 34.6706 53.2121 35.0735C53.2121 35.4765 53.375 35.8403 53.6383 36.1036C53.9016 36.367 54.2667 36.5311 54.6696 36.5311C55.0726 36.5311 55.4376 36.3682 55.701 36.1036C55.9643 35.8403 56.1284 35.4753 56.1284 35.0735C56.1284 34.6706 55.9655 34.3055 55.701 34.0422ZM24.6301 48.0974L24.6313 50.4148H51.3748V48.0974H24.6301Z" fill="url(#paint0_linear_1_43467)"/>
<defs>
<linearGradient id="paint0_linear_1_43467" x1="38" y1="19.2837" x2="38" y2="52.2876" gradientUnits="userSpaceOnUse">
<stop stop-color="#FF007F"/>
<stop offset="1" stop-color="#A5147F"/>
</linearGradient>
</defs>
</svg>
