<svg width="40" height="41" viewBox="0 0 40 41" fill="none" xmlns="http://www.w3.org/2000/svg">
<rect x="0.5" y="1.21484" width="39" height="39" rx="19.5" stroke="url(#paint0_linear_1_31840)"/>
<path fill-rule="evenodd" clip-rule="evenodd" d="M28.0688 21.3878V26.0736C28.0688 28.4354 22.1827 29.0135 20.0001 29.0135C17.8175 29.0135 11.9313 28.4355 11.9313 26.0736V21.3878L19.0621 24.4304C19.6607 24.6907 20.3392 24.6907 20.9378 24.4304L28.0688 21.3878ZM31.308 19.2993L32.6499 18.73H32.6488C32.8638 18.6403 33.0032 18.4296 32.9999 18.1962C33.0032 17.9661 32.8627 17.7576 32.6488 17.6733L20.6807 12.5619C20.2474 12.3674 19.7526 12.3674 19.3193 12.5619L7.35119 17.6733C7.13726 17.7576 6.99682 17.9661 7.00006 18.1962C6.99681 18.4296 7.13619 18.6403 7.35119 18.73L19.3193 23.8306C19.7526 24.0251 20.2474 24.0251 20.6807 23.8306L30.6574 19.5791V23.4815C30.4088 23.6047 30.2511 23.8575 30.25 24.1341V26.1092C30.2522 26.3177 30.4207 26.4862 30.6292 26.4884H31.3402C31.5487 26.4862 31.7173 26.3177 31.7194 26.1092V24.1428C31.7205 23.8608 31.5606 23.6036 31.3067 23.4815L31.308 19.2993Z" fill="url(#paint1_linear_1_31840)"/>
<defs>
<linearGradient id="paint0_linear_1_31840" x1="20" y1="-6.36953" x2="20" y2="40.7148" gradientUnits="userSpaceOnUse">
<stop stop-color="#FF007F"/>
<stop offset="1" stop-color="#A5147F"/>
</linearGradient>
<linearGradient id="paint1_linear_1_31840" x1="20" y1="9.47645" x2="20" y2="29.0135" gradientUnits="userSpaceOnUse">
<stop stop-color="#FF007F"/>
<stop offset="1" stop-color="#A5147F"/>
</linearGradient>
</defs>
</svg>
