<svg width="40" height="41" viewBox="0 0 40 41" fill="none" xmlns="http://www.w3.org/2000/svg">
<rect x="0.5" y="1.21484" width="39" height="39" rx="19.5" stroke="url(#paint0_linear_1_31758)"/>
<path d="M19.673 27.8215L10.7449 27.3605C10.5757 27.3521 10.4446 27.2125 10.4446 27.0433V14.0592L9.00024 14V28.3671L18.6305 28.8154C19.1782 28.8154 19.6349 28.3756 19.6709 27.8236L19.673 27.8215Z" fill="url(#paint1_linear_1_31758)"/>
<path d="M29.5575 27.0433C29.5575 27.2125 29.4264 27.3521 29.2573 27.3605L20.3291 27.8215C20.3651 28.3734 20.8218 28.8133 21.3843 28.8133L30.9998 28.3671V14L29.5554 14.0592V27.0433H29.5575Z" fill="url(#paint2_linear_1_31758)"/>
<path d="M19.6596 13.8048C19.5877 13.3713 19.226 13.0351 18.7735 13.0118L11.074 12.6143V26.7466L19.6744 27.1907C19.6744 13.8069 19.6828 13.9528 19.6596 13.8048ZM18.4056 24.5199L16.5721 24.4268C16.1492 24.4057 16.1873 23.767 16.6039 23.7924L18.4225 23.8855C18.8306 23.9066 18.8158 24.5199 18.4056 24.5199ZM18.4056 22.6061L12.3639 22.2952C11.9452 22.2741 11.9769 21.6376 12.3956 21.6608L18.4204 21.9717C18.8285 21.9928 18.8137 22.6061 18.4034 22.6061H18.4056ZM18.4056 20.6923L12.3639 20.3815C11.9452 20.3603 11.9769 19.7238 12.3956 19.7471L18.4204 20.0579C18.8285 20.0791 18.8137 20.6923 18.4034 20.6923H18.4056ZM18.4056 18.7785L12.3639 18.4677C11.9452 18.4465 11.9769 17.81 12.3956 17.8333L18.4204 18.1441C18.8285 18.1653 18.8137 18.7785 18.4034 18.7785H18.4056ZM18.4056 16.8648L12.3639 16.5539C11.9452 16.5327 11.9769 15.8983 12.3956 15.9195L18.4204 16.2304C18.8285 16.2515 18.8137 16.8648 18.4034 16.8648H18.4056ZM18.4056 14.951L12.3639 14.6401C12.1081 14.6274 11.9769 14.3335 12.125 14.1326C12.2793 13.9254 12.1313 13.993 18.4204 14.3166C18.8264 14.3377 18.8137 14.951 18.4034 14.951H18.4056Z" fill="url(#paint3_linear_1_31758)"/>
<path d="M28.924 12.6143L21.2245 13.0118C20.7085 13.0393 20.3215 13.4707 20.3215 13.9613V27.1907L28.9219 26.7466V12.6143H28.924ZM27.6341 24.209L21.5925 24.5199C21.1843 24.5199 21.1674 23.9066 21.5755 23.8855L27.6002 23.5746C28.019 23.5492 28.0528 24.1858 27.632 24.209H27.6341ZM27.6341 22.2952L21.5925 22.6061C21.1843 22.6061 21.1674 21.9928 21.5755 21.9717L27.6002 21.6608C28.019 21.6355 28.0528 22.272 27.632 22.2952H27.6341ZM27.6341 20.3815L21.5925 20.6923C21.1843 20.6923 21.1674 20.0791 21.5755 20.0579L27.6002 19.7471C28.019 19.7217 28.0528 20.3582 27.632 20.3815H27.6341ZM27.6341 18.4677L21.5925 18.7785C21.1843 18.7785 21.1674 18.1653 21.5755 18.1441L27.6002 17.8333C28.019 17.81 28.0528 18.4444 27.632 18.4677H27.6341ZM27.6341 16.5539L21.5925 16.8648C21.1843 16.8648 21.1674 16.2515 21.5755 16.2304L27.6002 15.9195C28.019 15.8962 28.0528 16.5306 27.632 16.5539H27.6341ZM27.6341 14.6401L21.5925 14.951C21.3027 14.951 21.1632 14.5915 21.3831 14.3969C21.5142 14.2806 21.3789 14.3271 27.6024 14.0057C28.0211 13.9825 28.0549 14.6169 27.6341 14.6401Z" fill="url(#paint4_linear_1_31758)"/>
<defs>
<linearGradient id="paint0_linear_1_31758" x1="20" y1="-6.36953" x2="20" y2="40.7148" gradientUnits="userSpaceOnUse">
<stop stop-color="#FF007F"/>
<stop offset="1" stop-color="#A5147F"/>
</linearGradient>
<linearGradient id="paint1_linear_1_31758" x1="14.3366" y1="11.3761" x2="14.3366" y2="28.8154" gradientUnits="userSpaceOnUse">
<stop stop-color="#FF007F"/>
<stop offset="1" stop-color="#A5147F"/>
</linearGradient>
<linearGradient id="paint2_linear_1_31758" x1="25.6644" y1="11.3764" x2="25.6644" y2="28.8133" gradientUnits="userSpaceOnUse">
<stop stop-color="#FF007F"/>
<stop offset="1" stop-color="#A5147F"/>
</linearGradient>
<linearGradient id="paint3_linear_1_31758" x1="15.3749" y1="10.0326" x2="15.3749" y2="27.1907" gradientUnits="userSpaceOnUse">
<stop stop-color="#FF007F"/>
<stop offset="1" stop-color="#A5147F"/>
</linearGradient>
<linearGradient id="paint4_linear_1_31758" x1="24.6228" y1="10.0326" x2="24.6228" y2="27.1907" gradientUnits="userSpaceOnUse">
<stop stop-color="#FF007F"/>
<stop offset="1" stop-color="#A5147F"/>
</linearGradient>
</defs>
</svg>
