<svg width="59" height="50" viewBox="0 0 59 50" fill="none" xmlns="http://www.w3.org/2000/svg">
<circle cx="29.1662" cy="19.1669" r="17.5002" fill="#F9DEE2"/>
<path d="M28.8167 38.0479C23.91 38.0445 19.1934 36.1499 15.6477 32.7581C12.1021 29.3662 10.0003 24.7382 9.77942 19.8365C9.6657 17.3401 10.0463 14.8458 10.8994 12.4969C11.7524 10.148 13.0611 7.99073 14.7503 6.14908C16.4395 4.30743 18.4759 2.81764 20.7425 1.76528C23.0091 0.712928 25.4614 0.118739 27.9583 0.0168445C33.0044 -0.19528 37.9286 1.60305 41.6504 5.01725C45.3722 8.43144 47.5876 13.1826 47.8105 18.2283C47.9242 20.7247 47.5436 23.219 46.6906 25.5679C45.8375 27.9168 44.5288 30.0741 42.8396 31.9157C41.1504 33.7574 39.114 35.2471 36.8474 36.2995C34.5808 37.3519 32.1286 37.946 29.6317 38.0479H28.8167ZM11.9526 19.7495C12.0904 23.083 13.2145 26.3006 15.1825 28.9947C17.1504 31.6888 19.8738 33.7381 23.0075 34.8831C26.1411 36.0282 29.5442 36.2173 32.7854 35.4267C36.0267 34.636 38.9604 32.9011 41.2148 30.4417C42.7062 28.8112 43.8585 26.9003 44.6047 24.8204C45.3509 22.7404 45.676 20.5329 45.5612 18.3261C45.4106 15.0082 44.283 11.8088 42.32 9.12966C40.357 6.45053 37.6461 4.41115 34.5279 3.26763C31.4096 2.12412 28.023 1.92746 24.7934 2.70236C21.5637 3.47726 18.635 5.18916 16.3751 7.62306C14.8688 9.24882 13.7018 11.1587 12.9424 13.2408C12.183 15.323 11.8466 17.5358 11.9526 19.7495Z" fill="#1B1B1B"/>
<path d="M2.17321 41.3081H0V15.8164C0.00287249 14.2207 0.63802 12.6913 1.76633 11.563C2.89463 10.4347 4.42412 9.7995 6.01978 9.79663H12.8219V11.9698H6.01978C5.00049 11.9727 4.02376 12.3789 3.30301 13.0996C2.58226 13.8204 2.17607 14.7971 2.17321 15.8164V41.3081Z" fill="#1B1B1B"/>
<path d="M58.6766 41.3081H56.5034V15.8164C56.5005 14.7971 56.0944 13.8204 55.3736 13.0996C54.6529 12.3789 53.6761 11.9727 52.6568 11.9698H44.5508V9.79663H52.6568C54.2525 9.7995 55.782 10.4347 56.9103 11.563C58.0386 12.6913 58.6737 14.2207 58.6766 15.8164V41.3081Z" fill="#1B1B1B"/>
<path d="M54.1128 50.0002H4.56373C3.96441 50.0002 3.37096 49.8821 2.81727 49.6528C2.26357 49.4235 1.76047 49.0873 1.33669 48.6635C0.912904 48.2397 0.576742 47.7366 0.347393 47.1829C0.118044 46.6292 0 46.0358 0 45.4365V41.3074H2.17321V45.4365C2.17606 46.0696 2.42884 46.676 2.87653 47.1237C3.32422 47.5714 3.9306 47.8241 4.56373 47.827H54.1128C54.7459 47.8241 55.3523 47.5714 55.8 47.1237C56.2477 46.676 56.5005 46.0696 56.5033 45.4365V41.3074H58.6765V45.4365C58.6765 46.0358 58.5585 46.6292 58.3292 47.1829C58.0998 47.7366 57.7636 48.2397 57.3399 48.6635C56.9161 49.0873 56.413 49.4235 55.8593 49.6528C55.3056 49.8821 54.7121 50.0002 54.1128 50.0002Z" fill="#1B1B1B"/>
<path d="M34.1729 44.7839C33.916 44.7729 33.6659 44.6982 33.4449 44.5666H25.2737C25.0527 44.6982 24.8026 44.7729 24.5456 44.7839C24.3157 44.7892 24.0872 44.7454 23.8755 44.6555C23.6638 44.5656 23.4737 44.4316 23.3178 44.2624L21.5249 42.4695C21.4849 42.4328 21.4363 42.4066 21.3836 42.3934H5.43231C5.14412 42.3934 4.86774 42.2789 4.66396 42.0752C4.46018 41.8714 4.3457 41.595 4.3457 41.3068C4.3457 41.0186 4.46018 40.7423 4.66396 40.5385C4.86774 40.3347 5.14412 40.2202 5.43231 40.2202H21.5032H21.7313C22.2558 40.2997 22.7401 40.5476 23.1113 40.9265L24.5782 42.3934C24.683 42.3821 24.7886 42.3821 24.8934 42.3934H33.7818C33.8865 42.3821 33.9922 42.3821 34.0969 42.3934L35.6073 40.883C35.9745 40.5306 36.441 40.2993 36.9438 40.2202H37.1394H53.2428C53.531 40.2202 53.8074 40.3347 54.0112 40.5385C54.2149 40.7423 54.3294 41.0186 54.3294 41.3068C54.3294 41.595 54.2149 41.8714 54.0112 42.0752C53.8074 42.2789 53.531 42.3934 53.2428 42.3934H37.2915H37.1611L35.3573 44.208C35.2096 44.3796 35.0283 44.5192 34.8246 44.6183C34.6209 44.7173 34.3992 44.7737 34.1729 44.7839Z" fill="url(#paint0_linear_1_25594)"/>
<path d="M28.7953 27.5079C26.923 27.505 25.1282 26.76 23.8043 25.436C22.4803 24.1121 21.7353 22.3173 21.7324 20.445V17.5655C21.7353 16.0822 22.3258 14.6605 23.3746 13.6117C24.4235 12.5629 25.8452 11.9724 27.3284 11.9695H30.2623C31.7455 11.9724 33.1672 12.5629 34.2161 13.6117C35.2649 14.6605 35.8554 16.0822 35.8583 17.5655V20.445C35.8554 22.3173 35.1103 24.1121 33.7864 25.436C32.4625 26.76 30.6677 27.505 28.7953 27.5079ZM27.3284 14.1427C26.4215 14.1456 25.5526 14.5071 24.9113 15.1484C24.27 15.7896 23.9085 16.6586 23.9056 17.5655V20.445C23.9056 21.7418 24.4208 22.9855 25.3378 23.9025C26.2548 24.8195 27.4985 25.3347 28.7953 25.3347C30.0922 25.3347 31.3359 24.8195 32.2529 23.9025C33.1699 22.9855 33.6851 21.7418 33.6851 20.445V17.5655C33.6822 16.6586 33.3207 15.7896 32.6794 15.1484C32.0381 14.5071 31.1692 14.1456 30.2623 14.1427H27.3284Z" fill="#1B1B1B"/>
<path d="M37.2918 30.0406C36.6242 29.5907 35.8367 29.3522 35.0316 29.3561H32.5977V27.1829H35.0316C36.2735 27.1876 37.4852 27.5663 38.5088 28.2695L37.2918 30.0406Z" fill="#1B1B1B"/>
<path d="M20.9502 30.3775L19.4941 28.7476C20.6331 27.7391 22.1019 27.1825 23.6232 27.1829H26.079V29.3561H23.6232C22.6362 29.352 21.6831 29.7162 20.9502 30.3775Z" fill="#1B1B1B"/>
<path d="M29.3386 30.7458C28.4447 30.7622 27.5548 30.6225 26.709 30.3329C25.2204 29.757 24.9922 28.7899 24.9922 28.2683H27.1654C27.1678 28.2059 27.1486 28.1445 27.1111 28.0945C27.787 28.4784 28.5646 28.6453 29.3386 28.5726C30.0945 28.6341 30.8515 28.4676 31.5118 28.0945C31.4928 28.1509 31.4928 28.212 31.5118 28.2683H33.685C33.685 29.7787 31.979 30.7458 29.3386 30.7458Z" fill="#1B1B1B"/>
<path d="M33.6849 25.0083H31.5117V28.2681H33.6849V25.0083Z" fill="#1B1B1B"/>
<path d="M27.1654 25.0083H24.9922V28.2681H27.1654V25.0083Z" fill="#1B1B1B"/>
<path d="M25.8187 20.8586C24.8589 20.8629 23.9013 20.7683 22.9609 20.576L23.4282 18.4028C23.4282 18.4028 27.5899 19.283 30.3172 17.5009C30.9231 17.0942 31.4385 16.5667 31.8311 15.9516C32.2238 15.3364 32.4852 14.6469 32.5991 13.926L34.7723 14.3607C34.6035 15.3767 34.2268 16.3469 33.6659 17.2107C33.105 18.0745 32.3719 18.8132 31.5125 19.3808C29.7952 20.4082 27.819 20.9212 25.8187 20.8586Z" fill="#1B1B1B"/>
<path d="M34.6857 20.5652C30.8065 20.2283 30.7305 17.8704 30.7305 17.7617H32.9037C32.9087 17.7257 32.9087 17.6891 32.9037 17.6531C32.9037 17.8269 33.3926 18.2942 34.8704 18.4137L34.6857 20.5652Z" fill="#1B1B1B"/>
<defs>
<linearGradient id="paint0_linear_1_25594" x1="29.3376" y1="39.4119" x2="29.3376" y2="44.7844" gradientUnits="userSpaceOnUse">
<stop stop-color="#FF007F"/>
<stop offset="1" stop-color="#A5147F"/>
</linearGradient>
</defs>
</svg>
