<svg width="58" height="58" viewBox="0 0 58 58" fill="none" xmlns="http://www.w3.org/2000/svg">
<path d="M57.4275 54.0705L42.19 38.833C46.038 34.1025 47.9244 28.0759 47.46 21.9957C46.9957 15.9155 44.2161 10.2452 39.6944 6.15397C35.1726 2.06272 29.2534 -0.137603 23.1572 0.00667178C17.061 0.150947 11.2525 2.62882 6.9294 6.9294C2.62882 11.2525 0.150947 17.061 0.00667178 23.1572C-0.137603 29.2534 2.06272 35.1726 6.15397 39.6944C10.2452 44.2161 15.9155 46.9957 21.9957 47.46C28.0759 47.9244 34.1025 46.038 38.833 42.19L54.0705 57.4275C54.5259 57.8176 55.1118 58.0214 55.711 57.9982C56.3102 57.9751 56.8786 57.7267 57.3027 57.3027C57.7267 56.8786 57.9751 56.3102 57.9982 55.711C58.0214 55.1118 57.8176 54.5259 57.4275 54.0705ZM10.2864 37.2378C7.16888 34.1237 5.22749 30.0251 4.79303 25.6401C4.35856 21.2552 5.45789 16.8552 7.90371 13.1899C10.3495 9.52463 13.9905 6.82073 18.2064 5.53891C22.4222 4.25709 26.9521 4.47664 31.0242 6.16017C35.0964 7.8437 38.4588 10.887 40.5387 14.7717C42.6186 18.6564 43.2873 23.142 42.4308 27.4644C41.5743 31.7867 39.2456 35.6784 35.8415 38.4764C32.4374 41.2744 28.1685 42.8055 23.7621 42.809C21.2591 42.8175 18.7793 42.3295 16.4662 41.3732C14.1531 40.4169 12.0527 39.0113 10.2864 37.2378ZM26.143 9.47692C26.143 10.1084 25.8921 10.7139 25.4456 11.1604C24.9991 11.6069 24.3935 11.8578 23.7621 11.8578C20.6049 11.8578 17.577 13.112 15.3445 15.3445C13.112 17.577 11.8578 20.6049 11.8578 23.7621C11.8578 24.3935 11.6069 24.9991 11.1604 25.4456C10.7139 25.8921 10.1084 26.143 9.47692 26.143C8.84548 26.143 8.23989 25.8921 7.7934 25.4456C7.3469 24.9991 7.09606 24.3935 7.09606 23.7621C7.09606 19.342 8.85194 15.1029 11.9774 11.9774C15.1029 8.85194 19.342 7.09606 23.7621 7.09606C24.3935 7.09606 24.9991 7.3469 25.4456 7.7934C25.8921 8.23989 26.143 8.84548 26.143 9.47692Z" fill="url(#paint0_linear_1_25652)"/>
<defs>
<linearGradient id="paint0_linear_1_25652" x1="29" y1="-10.2723" x2="29" y2="58" gradientUnits="userSpaceOnUse">
<stop stop-color="#FF007F"/>
<stop offset="1" stop-color="#A5147F"/>
</linearGradient>
</defs>
</svg>
