<svg width="48" height="50" viewBox="0 0 48 50" fill="none" xmlns="http://www.w3.org/2000/svg">
<ellipse cx="36.5374" cy="39.7911" rx="9.76005" ry="9.76005" fill="#F9DEE2"/>
<path d="M7.88881 24.172C7.48189 26.567 7.57649 29.9079 7.58099 30.0506C7.59451 30.456 7.92485 30.7788 8.33177 30.7788H26.065C26.472 30.7788 26.8023 30.456 26.8158 30.0506C26.8203 29.9094 26.9134 26.5685 26.505 24.169C26.2047 22.4332 23.5995 21.0819 22.1085 20.4407C22.6325 19.5728 22.9523 18.5683 22.9523 17.4826C22.9523 14.3114 20.3712 11.7302 17.1984 11.7302C14.0256 11.7302 11.4445 14.3114 11.4445 17.4826C11.4445 18.5683 11.7643 19.5743 12.2898 20.4407C10.7943 21.0819 8.19212 22.4317 7.88881 24.172ZM17.1969 13.2333C19.5423 13.2333 21.4493 15.1402 21.4493 17.4842C21.4493 19.8296 19.5408 21.738 17.1969 21.738C14.853 21.738 12.9445 19.8296 12.9445 17.4842C12.9445 15.1402 14.853 13.2333 17.1969 13.2333ZM9.36783 24.4273C9.51649 23.5789 11.3964 22.4077 13.2673 21.6645C14.2974 22.6345 15.6743 23.2396 17.1969 23.2396C18.7195 23.2396 20.0979 22.6345 21.1279 21.6645C22.9989 22.4092 24.8788 23.5789 25.0245 24.4243C25.2992 26.0295 25.3293 28.1722 25.3233 29.2773H9.07203C9.06602 28.1707 9.09755 26.0295 9.36783 24.4273Z" fill="black"/>
<path d="M15.0145 38.0664C13.8958 38.0664 12.9844 38.9763 12.9844 40.0965C12.9844 41.2166 13.8943 42.1266 15.0145 42.1266H19.378C20.4966 42.1266 21.4081 41.2166 21.4081 40.0965C21.4081 38.9778 20.4981 38.0664 19.378 38.0664H15.0145ZM19.9065 40.095C19.9065 40.3863 19.6708 40.6235 19.378 40.6235H15.0145C14.7232 40.6235 14.4859 40.3863 14.4859 40.095C14.4859 39.8037 14.7217 39.5665 15.0145 39.5665H19.378C19.6708 39.568 19.9065 39.8037 19.9065 40.095Z" fill="black"/>
<path d="M41.5619 34.7991L35.5196 41.8834L31.8439 37.7466C31.5676 37.4343 31.0901 37.4073 30.7838 37.6836C30.4745 37.9583 30.4444 38.4328 30.7207 38.7436L34.9701 43.5261C35.1127 43.6867 35.3169 43.7783 35.5317 43.7783C35.5347 43.7783 35.5362 43.7783 35.5392 43.7783C35.7569 43.7768 35.9611 43.6807 36.1038 43.5156L42.7061 35.7766C42.9748 35.4613 42.9358 34.9868 42.6205 34.718C42.3096 34.4462 41.8352 34.4838 41.5619 34.7991Z" fill="url(#paint0_linear_1_25617)"/>
<path d="M3.95806 43.7761C2.87845 43.7761 2.00155 42.8992 2.00155 41.8196V36.7999H24.0007C24.0863 36.2894 24.1944 35.7864 24.3416 35.2984H2.00155V7.20892H32.3913V27.1405C32.8778 26.9873 33.3809 26.8732 33.8929 26.7801V3.45806C33.8929 1.5511 32.3418 0 30.4333 0H3.95806C2.0511 0 0.5 1.5511 0.5 3.45806V41.8196C0.5 43.7265 2.0511 45.2776 3.95806 45.2776H25.6869C25.3866 44.7986 25.1148 44.2986 24.8836 43.7761H3.95806ZM2.00155 3.45806C2.00155 2.37845 2.87845 1.50155 3.95806 1.50155H30.4348C31.5144 1.50155 32.3929 2.37845 32.3929 3.45806V5.70738H2.00155V3.45806Z" fill="black"/>
<path d="M36.7634 28.5286C30.8443 28.5286 26.0273 33.344 26.0273 39.2631C26.0273 45.1837 30.8443 49.9992 36.7634 49.9992C42.681 49.9992 47.4965 45.1837 47.4965 39.2631C47.4965 33.344 42.681 28.5286 36.7634 28.5286ZM36.7634 48.4976C31.6702 48.4976 27.5289 44.3549 27.5289 39.2631C27.5289 34.1714 31.6717 30.0301 36.7634 30.0301C41.8551 30.0301 45.9949 34.1729 45.9949 39.2631C45.9949 44.3549 41.8536 48.4976 36.7634 48.4976Z" fill="black"/>
<defs>
<linearGradient id="paint0_linear_1_25617" x1="36.708" y1="32.8993" x2="36.708" y2="43.7783" gradientUnits="userSpaceOnUse">
<stop stop-color="#FF007F"/>
<stop offset="1" stop-color="#A5147F"/>
</linearGradient>
</defs>
</svg>
